<svg width="40" height="40" viewBox="0 0 40 40" fill="none" xmlns="http://www.w3.org/2000/svg">
<g filter="url(#filter0_d_460_9)">
<circle cx="18" cy="18" r="16" fill="white"/>
</g>
<path d="M14.1458 21.9842L15.1875 20.6825L11.8342 18L15.1875 15.3175L14.1458 14.0158L9.97915 17.3492C9.88152 17.4272 9.80271 17.5263 9.74854 17.6389C9.69438 17.7516 9.66626 17.875 9.66626 18C9.66626 18.125 9.69438 18.2484 9.74854 18.3611C9.80271 18.4737 9.88152 18.5728 9.97915 18.6508L14.1458 21.9842ZM21.8542 14.0158L20.8125 15.3175L24.1658 18L20.8125 20.6825L21.8542 21.9842L26.0208 18.6508C26.1184 18.5728 26.1973 18.4737 26.2514 18.3611C26.3056 18.2484 26.3337 18.125 26.3337 18C26.3337 17.875 26.3056 17.7516 26.2514 17.6389C26.1973 17.5263 26.1184 17.4272 26.0208 17.3492L21.8542 14.0158ZM20.48 10.68L17.1467 25.68L15.5192 25.3183L18.8525 10.3183L20.48 10.68Z" fill="#0D182E"/>
<defs>
<filter id="filter0_d_460_9" x="0" y="0" width="40" height="40" filterUnits="userSpaceOnUse" color-interpolation-filters="sRGB">
<feFlood flood-opacity="0" result="BackgroundImageFix"/>
<feColorMatrix in="SourceAlpha" type="matrix" values="0 0 0 0 0 0 0 0 0 0 0 0 0 0 0 0 0 0 127 0" result="hardAlpha"/>
<feOffset dx="2" dy="2"/>
<feGaussianBlur stdDeviation="2"/>
<feComposite in2="hardAlpha" operator="out"/>
<feColorMatrix type="matrix" values="0 0 0 0 0 0 0 0 0 0 0 0 0 0 0 0 0 0 0.25 0"/>
<feBlend mode="normal" in2="BackgroundImageFix" result="effect1_dropShadow_460_9"/>
<feBlend mode="normal" in="SourceGraphic" in2="effect1_dropShadow_460_9" result="shape"/>
</filter>
</defs>
</svg>
