<svg width="41" height="40" viewBox="0 0 41 40" fill="none" xmlns="http://www.w3.org/2000/svg">
<g filter="url(#filter0_d_460_21)">
<circle cx="18.0078" cy="18" r="16" fill="white"/>
</g>
<g clip-path="url(#clip0_460_21)">
<path d="M22.6774 20.93C23.8878 19.2784 24.4299 17.2306 24.1953 15.1964C23.9607 13.1623 22.9667 11.2917 21.4121 9.95892C19.8575 8.62615 17.8571 7.92951 15.8109 8.00835C13.7648 8.08719 11.8239 8.93571 10.3765 10.3841C8.92909 11.8326 8.08196 13.7741 8.00459 15.8203C7.92721 17.8665 8.62529 19.8665 9.95916 21.4201C11.293 22.9737 13.1643 23.9663 15.1987 24.1995C17.233 24.4326 19.2804 23.8891 20.9312 22.6775H20.9299C20.9674 22.7275 21.0074 22.775 21.0524 22.8213L25.8649 27.6338C26.0993 27.8683 26.4172 28.0001 26.7488 28.0003C27.0804 28.0004 27.3985 27.8688 27.633 27.6344C27.8676 27.4 27.9994 27.082 27.9995 26.7504C27.9996 26.4189 27.868 26.1008 27.6337 25.8663L22.8212 21.0538C22.7765 21.0085 22.7284 20.9667 22.6774 20.9288V20.93ZM22.9999 16.125C22.9999 17.0278 22.8221 17.9218 22.4766 18.756C22.1311 19.5901 21.6247 20.348 20.9863 20.9864C20.3479 21.6248 19.59 22.1312 18.7559 22.4767C17.9217 22.8222 17.0277 23 16.1249 23C15.2221 23 14.3281 22.8222 13.494 22.4767C12.6598 22.1312 11.9019 21.6248 11.2635 20.9864C10.6251 20.348 10.1187 19.5901 9.77323 18.756C9.42773 17.9218 9.2499 17.0278 9.2499 16.125C9.2499 14.3016 9.97423 12.553 11.2635 11.2636C12.5529 9.97433 14.3015 9.25 16.1249 9.25C17.9483 9.25 19.6969 9.97433 20.9863 11.2636C22.2756 12.553 22.9999 14.3016 22.9999 16.125V16.125Z" fill="#0D182E"/>
</g>
<defs>
<filter id="filter0_d_460_21" x="0.0078125" y="0" width="40" height="40" filterUnits="userSpaceOnUse" color-interpolation-filters="sRGB">
<feFlood flood-opacity="0" result="BackgroundImageFix"/>
<feColorMatrix in="SourceAlpha" type="matrix" values="0 0 0 0 0 0 0 0 0 0 0 0 0 0 0 0 0 0 127 0" result="hardAlpha"/>
<feOffset dx="2" dy="2"/>
<feGaussianBlur stdDeviation="2"/>
<feComposite in2="hardAlpha" operator="out"/>
<feColorMatrix type="matrix" values="0 0 0 0 0 0 0 0 0 0 0 0 0 0 0 0 0 0 0.25 0"/>
<feBlend mode="normal" in2="BackgroundImageFix" result="effect1_dropShadow_460_21"/>
<feBlend mode="normal" in="SourceGraphic" in2="effect1_dropShadow_460_21" result="shape"/>
</filter>
<clipPath id="clip0_460_21">
<rect width="20" height="20" fill="white" transform="translate(8 8)"/>
</clipPath>
</defs>
</svg>
