<svg width="41" height="40" viewBox="0 0 41 40" fill="none" xmlns="http://www.w3.org/2000/svg">
<g filter="url(#filter0_d_460_17)">
<circle cx="18.0078" cy="18" r="16" fill="white"/>
</g>
<path d="M21.5411 17.5917L22.8495 16.2834L19.7245 13.1584L18.4161 14.4667L14.9661 11.0251C14.3161 10.3751 13.2578 10.3751 12.6078 11.0251L11.0245 12.6084C10.3745 13.2584 10.3745 14.3167 11.0245 14.9667L14.4661 18.4084L10.6328 22.2501C10.5495 22.3334 10.5078 22.4334 10.5078 22.5501V25.0834C10.5078 25.3167 10.6911 25.5001 10.9245 25.5001H13.4578C13.5661 25.5001 13.6745 25.4584 13.7495 25.3751L17.5995 21.5251L21.0411 24.9667C22.1411 26.0667 23.3411 25.0251 23.3995 24.9667L24.9828 23.3834C25.6328 22.7334 25.6328 21.6751 24.9828 21.0251L21.5411 17.5917V17.5917ZM15.6578 17.2251L12.2078 13.7834L13.7828 12.2001L14.8411 13.2584L14.4495 13.6667C14.2937 13.8225 14.2061 14.0339 14.2061 14.2542C14.2061 14.4746 14.2937 14.6859 14.4495 14.8417C14.6053 14.9975 14.8166 15.0851 15.037 15.0851C15.2573 15.0851 15.4687 14.9975 15.6245 14.8417L16.0245 14.4417L17.2328 15.6501L15.6578 17.2251V17.2251ZM22.2245 23.8001L18.7828 20.3584L20.3661 18.7751L21.5745 19.9834L21.1745 20.3834C21.0973 20.4605 21.0361 20.5521 20.9944 20.6529C20.9526 20.7537 20.9311 20.8618 20.9311 20.9709C20.9311 21.08 20.9526 21.188 20.9944 21.2888C21.0361 21.3896 21.0973 21.4812 21.1745 21.5584C21.2516 21.6355 21.3432 21.6967 21.444 21.7385C21.5448 21.7802 21.6529 21.8017 21.762 21.8017C21.8711 21.8017 21.9791 21.7802 22.0799 21.7385C22.1807 21.6967 22.2723 21.6355 22.3495 21.5584L22.7495 21.1584L23.8078 22.2167L22.2245 23.8001V23.8001ZM25.2661 13.8667C25.3434 13.7896 25.4047 13.6981 25.4465 13.5972C25.4883 13.4964 25.5098 13.3884 25.5098 13.2792C25.5098 13.1701 25.4883 13.062 25.4465 12.9612C25.4047 12.8604 25.3434 12.7688 25.2661 12.6917L23.3161 10.7417C22.9245 10.3501 22.3828 10.5001 22.1411 10.7417L20.6161 12.2667L23.7411 15.3917L25.2661 13.8667V13.8667Z" fill="#0D182E"/>
<defs>
<filter id="filter0_d_460_17" x="0.0078125" y="0" width="40" height="40" filterUnits="userSpaceOnUse" color-interpolation-filters="sRGB">
<feFlood flood-opacity="0" result="BackgroundImageFix"/>
<feColorMatrix in="SourceAlpha" type="matrix" values="0 0 0 0 0 0 0 0 0 0 0 0 0 0 0 0 0 0 127 0" result="hardAlpha"/>
<feOffset dx="2" dy="2"/>
<feGaussianBlur stdDeviation="2"/>
<feComposite in2="hardAlpha" operator="out"/>
<feColorMatrix type="matrix" values="0 0 0 0 0 0 0 0 0 0 0 0 0 0 0 0 0 0 0.25 0"/>
<feBlend mode="normal" in2="BackgroundImageFix" result="effect1_dropShadow_460_17"/>
<feBlend mode="normal" in="SourceGraphic" in2="effect1_dropShadow_460_17" result="shape"/>
</filter>
</defs>
</svg>
