<svg width="1372" height="457" viewBox="0 0 1372 457" fill="none" xmlns="http://www.w3.org/2000/svg">
<path opacity="0.5" fill-rule="evenodd" clip-rule="evenodd" d="M1202.25 228.126C1202.25 354.117 1100.12 456.253 974.126 456.253C848.135 456.253 746 354.117 746 228.126C746 102.136 848.135 0 974.126 0C1100.12 0 1202.25 102.136 1202.25 228.126Z" fill="#2C5AA0" fill-opacity="0.5"/>
<path fill-rule="evenodd" clip-rule="evenodd" d="M1315.42 25.2436L1314.45 58.4248L1309.29 234.91C1309.03 243.742 1303.01 251.357 1294.47 253.644L1000.06 332.532C987.118 335.999 974.496 326.017 974.888 312.629L979.699 148.12L980.702 113.835C980.799 110.524 983.057 107.667 986.258 106.809L1309.15 20.2892C1312.37 19.4266 1315.52 21.9127 1315.42 25.2436Z" fill="#2C5AA0"/>
<path fill-rule="evenodd" clip-rule="evenodd" d="M1315.42 25.2436L1314.88 43.5445C1314.62 52.3757 1308.6 59.991 1300.07 62.2777L1005.65 141.166C992.715 144.633 980.093 134.651 980.485 121.263L980.702 113.835C980.799 110.524 983.056 107.667 986.258 106.809L1309.15 20.2892C1312.37 19.4266 1315.52 21.9127 1315.42 25.2436Z" fill="#0CB9FB"/>
<path fill-rule="evenodd" clip-rule="evenodd" d="M1013.56 119.902C1013.56 124.601 1010 129.362 1005.62 130.537C1001.24 131.712 997.682 128.855 997.682 124.156C997.682 119.457 1001.24 114.695 1005.62 113.521C1010 112.346 1013.56 115.203 1013.56 119.902Z" fill="#0D182E"/>
<path fill-rule="evenodd" clip-rule="evenodd" d="M1043.54 111.87C1043.54 116.569 1039.98 121.33 1035.6 122.505C1031.21 123.68 1027.66 120.823 1027.66 116.124C1027.66 111.425 1031.21 106.663 1035.6 105.488C1039.98 104.314 1043.54 107.17 1043.54 111.87Z" fill="#2C5AA0"/>
<path fill-rule="evenodd" clip-rule="evenodd" d="M1291.16 53.1172C1291.08 53.1393 1290.99 53.1292 1290.91 53.0818L1273.42 42.5948C1273.26 42.5025 1273.21 42.3019 1273.31 42.1473C1273.4 41.9932 1273.6 41.9423 1273.75 42.0353L1291.24 52.522C1291.4 52.6146 1291.45 52.8152 1291.35 52.9698C1291.31 53.0454 1291.24 53.096 1291.16 53.1172Z" fill="white"/>
<path fill-rule="evenodd" clip-rule="evenodd" d="M1273.67 57.8027C1273.57 57.83 1273.46 57.8075 1273.37 57.7324C1273.24 57.6133 1273.22 57.4074 1273.34 57.2718L1290.83 37.414C1290.95 37.2786 1291.15 37.2652 1291.29 37.3847C1291.42 37.5039 1291.44 37.7098 1291.32 37.845L1273.83 57.7032C1273.79 57.7534 1273.73 57.7866 1273.67 57.8027Z" fill="white"/>
<path fill-rule="evenodd" clip-rule="evenodd" d="M1291.68 86.7314L1288.99 213.967L1288.56 234.329C1288.42 240.851 1283.99 246.497 1277.69 248.185L1092.88 297.706C1087.49 299.148 1082.23 295.021 1082.35 289.448L1085.51 139.908C1085.64 133.736 1089.84 128.392 1095.8 126.794L1279.88 77.4703C1285.91 75.8525 1291.82 80.4816 1291.68 86.7314Z" fill="#0D182E"/>
<path fill-rule="evenodd" clip-rule="evenodd" d="M998.436 162.746L995.258 312.901C995.142 318.415 1000.35 322.5 1005.68 321.072L1057.91 307.077C1063.87 305.478 1068.07 300.132 1068.2 293.957L1071.32 146.446C1071.46 139.86 1065.24 134.983 1058.88 136.688L1008.23 150.259C1002.55 151.78 998.561 156.869 998.436 162.746Z" fill="#0D182E"/>
<path fill-rule="evenodd" clip-rule="evenodd" d="M1055.2 204.938L1012.5 216.38C1011.52 216.642 1010.52 216.063 1010.26 215.088C1010 214.113 1010.58 213.111 1011.55 212.85L1054.25 201.408C1055.23 201.146 1056.23 201.725 1056.49 202.7C1056.75 203.675 1056.18 204.677 1055.2 204.938Z" fill="#2C5AA0"/>
<path fill-rule="evenodd" clip-rule="evenodd" d="M1267.58 103.814L1137.02 138.797C1136.05 139.058 1135.04 138.479 1134.78 137.504C1134.52 136.529 1135.1 135.527 1136.08 135.266L1266.63 100.283C1267.61 100.022 1268.61 100.6 1268.87 101.575C1269.13 102.55 1268.55 103.552 1267.58 103.814Z" fill="#2C5AA0"/>
<path fill-rule="evenodd" clip-rule="evenodd" d="M1237.39 156.12L1140.46 182.093C1139.49 182.354 1138.48 181.775 1138.22 180.8C1137.96 179.825 1138.54 178.823 1139.52 178.562L1236.45 152.59C1237.42 152.328 1238.42 152.907 1238.68 153.882C1238.94 154.857 1238.37 155.859 1237.39 156.12Z" fill="#2C5AA0"/>
<path fill-rule="evenodd" clip-rule="evenodd" d="M1193.61 134.982L1137.06 150.134C1136.09 150.395 1135.09 149.817 1134.82 148.842C1134.56 147.867 1135.14 146.864 1136.12 146.603L1192.66 131.451C1193.64 131.19 1194.64 131.769 1194.9 132.744C1195.16 133.719 1194.58 134.721 1193.61 134.982Z" fill="#2C5AA0"/>
<path fill-rule="evenodd" clip-rule="evenodd" d="M1268.96 180.617L1138.4 215.6C1137.42 215.862 1136.42 215.283 1136.16 214.308C1135.9 213.333 1136.48 212.331 1137.45 212.07L1268.01 177.087C1268.99 176.825 1269.99 177.404 1270.25 178.379C1270.51 179.354 1269.93 180.356 1268.96 180.617Z" fill="#2C5AA0"/>
<path fill-rule="evenodd" clip-rule="evenodd" d="M1194.99 211.786L1138.44 226.938C1137.46 227.199 1136.46 226.62 1136.2 225.646C1135.94 224.67 1136.52 223.668 1137.49 223.407L1194.04 208.255C1195.02 207.994 1196.02 208.573 1196.28 209.548C1196.54 210.523 1195.96 211.525 1194.99 211.786Z" fill="#2C5AA0"/>
<path fill-rule="evenodd" clip-rule="evenodd" d="M1044.12 235.291L1020.39 241.648C1020.22 241.695 1020.04 241.591 1019.99 241.417C1019.95 241.243 1020.05 241.064 1020.22 241.017L1043.95 234.661C1044.12 234.614 1044.3 234.717 1044.35 234.892C1044.39 235.066 1044.29 235.245 1044.12 235.291Z" fill="#2C5AA0"/>
<path fill-rule="evenodd" clip-rule="evenodd" d="M1043.61 251.147L1019.88 257.503C1019.71 257.55 1019.53 257.447 1019.48 257.273C1019.44 257.098 1019.54 256.92 1019.71 256.873L1043.44 250.516C1043.61 250.47 1043.79 250.573 1043.84 250.747C1043.88 250.921 1043.78 251.1 1043.61 251.147Z" fill="#2C5AA0"/>
<path fill-rule="evenodd" clip-rule="evenodd" d="M1043.97 266.767L1020.25 273.124C1020.08 273.17 1019.9 273.067 1019.85 272.893C1019.8 272.718 1019.91 272.54 1020.08 272.493L1043.8 266.136C1043.98 266.09 1044.16 266.193 1044.2 266.367C1044.25 266.541 1044.15 266.72 1043.97 266.767Z" fill="#2C5AA0"/>
<path fill-rule="evenodd" clip-rule="evenodd" d="M1051.98 291.897L1009.28 303.339C1009.11 303.386 1008.93 303.283 1008.88 303.108C1008.83 302.934 1008.94 302.755 1009.11 302.709L1051.81 291.266C1051.99 291.22 1052.17 291.323 1052.21 291.497C1052.26 291.672 1052.16 291.85 1051.98 291.897Z" fill="#2C5AA0"/>
<path fill-rule="evenodd" clip-rule="evenodd" d="M1289.08 214.283L1082.86 269.537C1082.69 269.584 1082.51 269.481 1082.46 269.307C1082.42 269.132 1082.52 268.954 1082.69 268.907L1288.91 213.652C1289.08 213.606 1289.26 213.709 1289.31 213.883C1289.35 214.057 1289.25 214.236 1289.08 214.283Z" fill="#2C5AA0"/>
<path fill-rule="evenodd" clip-rule="evenodd" d="M1225.72 239.921L1103.63 272.634C1101.25 273.271 1099.57 275.391 1099.5 277.851C1099.38 281.592 1102.91 284.386 1106.52 283.417L1228.61 250.705C1230.99 250.067 1232.66 247.948 1232.74 245.487C1232.86 241.747 1229.33 238.953 1225.72 239.921Z" fill="white"/>
<path fill-rule="evenodd" clip-rule="evenodd" d="M1288.99 213.967L1288.56 234.328C1288.42 240.851 1283.99 246.497 1277.69 248.185L1248.61 255.978L1249.54 224.539L1288.99 213.967Z" fill="#0CB9FB"/>
<path fill-rule="evenodd" clip-rule="evenodd" d="M1265.37 241.192C1265.25 241.225 1265.11 241.184 1265.03 241.076C1264.92 240.933 1264.94 240.728 1265.09 240.618L1274.48 233.383L1264.07 229.927C1263.9 229.87 1263.81 229.685 1263.86 229.514C1263.92 229.343 1264.11 229.251 1264.28 229.307L1275.27 232.956C1275.39 232.995 1275.47 233.093 1275.49 233.212C1275.51 233.331 1275.46 233.451 1275.37 233.525L1265.48 241.136C1265.45 241.163 1265.41 241.181 1265.37 241.192Z" fill="white"/>
<path fill-rule="evenodd" clip-rule="evenodd" d="M1125.42 222.032C1125.42 228.299 1120.68 234.65 1114.83 236.217C1108.98 237.784 1104.24 233.973 1104.24 227.706C1104.24 221.438 1108.98 215.087 1114.83 213.52C1120.68 211.954 1125.42 215.764 1125.42 222.032Z" fill="#2C5AA0"/>
<path fill-rule="evenodd" clip-rule="evenodd" d="M1052.13 171.323C1052.13 182.196 1043.91 193.214 1033.76 195.932C1023.62 198.651 1015.4 192.04 1015.4 181.167C1015.4 170.293 1023.62 159.275 1033.77 156.557C1043.91 153.839 1052.13 160.45 1052.13 171.323Z" fill="white"/>
<path fill-rule="evenodd" clip-rule="evenodd" d="M1052.13 171.323C1052.13 182.196 1043.91 193.214 1033.76 195.932C1023.62 198.651 1015.4 192.04 1015.4 181.167C1015.4 170.293 1023.62 159.275 1033.77 156.557C1043.91 153.839 1052.13 160.45 1052.13 171.323Z" fill="#2C5AA0"/>
<mask id="mask0_512_78" style="mask-type:alpha" maskUnits="userSpaceOnUse" x="1015" y="156" width="38" height="41">
<path d="M1015.4 181.387C1015.4 192.26 1023.62 198.871 1033.76 196.153C1043.91 193.434 1052.13 182.417 1052.13 171.544C1052.13 160.67 1043.91 154.06 1033.76 156.778C1023.62 159.496 1015.4 170.514 1015.4 181.387Z" fill="white"/>
</mask>
<g mask="url(#mask0_512_78)">
<path fill-rule="evenodd" clip-rule="evenodd" d="M1038.36 178.726L1038.35 178.726C1040.54 176.477 1042.09 173.436 1042.35 170.408C1042.8 165.259 1039.37 162.104 1034.68 163.361C1029.98 164.618 1025.82 169.812 1025.36 174.961C1025.1 177.988 1026.18 180.324 1028.07 181.482L1028.07 181.482C1023.24 184.184 1019.39 189.839 1018.9 195.451L1018.35 201.689L1044.92 194.571L1045.46 188.333C1045.95 182.72 1042.92 178.911 1038.36 178.726Z" fill="#0CB9FB"/>
</g>
<path fill-rule="evenodd" clip-rule="evenodd" d="M1124.04 159.069C1124.04 165.337 1119.3 171.688 1113.45 173.255C1107.61 174.822 1102.87 171.011 1102.87 164.743C1102.87 158.476 1107.61 152.125 1113.45 150.558C1119.3 148.991 1124.04 152.802 1124.04 159.069Z" fill="#2C5AA0"/>
<mask id="mask1_512_78" style="mask-type:alpha" maskUnits="userSpaceOnUse" x="1102" y="150" width="23" height="24">
<path d="M1102.87 164.743C1102.87 171.011 1107.61 174.822 1113.45 173.255C1119.3 171.688 1124.04 165.337 1124.04 159.069C1124.04 152.802 1119.3 148.991 1113.45 150.558C1107.61 152.125 1102.87 158.476 1102.87 164.743Z" fill="white"/>
</mask>
<g mask="url(#mask1_512_78)">
<path fill-rule="evenodd" clip-rule="evenodd" d="M1116.25 164.143L1116.24 164.143C1117.54 162.81 1118.46 161.007 1118.62 159.212C1118.88 156.159 1116.85 154.289 1114.06 155.034C1111.28 155.779 1108.81 158.858 1108.54 161.911C1108.39 163.706 1109.03 165.091 1110.15 165.777L1110.15 165.778C1107.29 167.38 1105 170.732 1104.71 174.059L1104.39 177.758L1120.14 173.538L1120.46 169.839C1120.75 166.511 1118.96 164.253 1116.25 164.143Z" fill="white"/>
</g>
<path fill-rule="evenodd" clip-rule="evenodd" d="M1273.68 158.346C1273.68 164.614 1268.94 170.965 1263.09 172.532C1257.24 174.099 1252.5 170.288 1252.5 164.02C1252.5 157.753 1257.24 151.402 1263.09 149.835C1268.94 148.268 1273.68 152.079 1273.68 158.346Z" fill="#2C5AA0"/>
<mask id="mask2_512_78" style="mask-type:alpha" maskUnits="userSpaceOnUse" x="1252" y="149" width="22" height="24">
<path d="M1252.5 164.02C1252.5 170.288 1257.24 174.098 1263.09 172.531C1268.94 170.965 1273.68 164.613 1273.68 158.346C1273.68 152.079 1268.94 148.268 1263.09 149.835C1257.24 151.402 1252.5 157.753 1252.5 164.02Z" fill="white"/>
</mask>
<g mask="url(#mask2_512_78)">
<path fill-rule="evenodd" clip-rule="evenodd" d="M1265.73 163.562L1265.72 163.562C1267.02 162.229 1267.94 160.425 1268.1 158.63C1268.36 155.578 1266.33 153.707 1263.54 154.453C1260.76 155.198 1258.29 158.277 1258.02 161.329C1257.87 163.124 1258.51 164.51 1259.63 165.196L1259.63 165.196C1256.77 166.798 1254.48 170.15 1254.19 173.478L1253.87 177.177L1269.62 172.956L1269.94 169.258C1270.23 165.93 1268.43 163.672 1265.73 163.562Z" fill="#0CB9FB"/>
</g>
<mask id="mask3_512_78" style="mask-type:alpha" maskUnits="userSpaceOnUse" x="1104" y="212" width="22" height="25">
<path d="M1104.24 227.363C1104.24 233.631 1108.98 237.441 1114.83 235.874C1120.68 234.308 1125.42 227.956 1125.42 221.689C1125.42 215.422 1120.68 211.611 1114.83 213.178C1108.98 214.745 1104.24 221.096 1104.24 227.363Z" fill="white"/>
</mask>
<g mask="url(#mask3_512_78)">
<path fill-rule="evenodd" clip-rule="evenodd" d="M1117.62 226.763L1117.62 226.763C1118.92 225.43 1119.84 223.627 1119.99 221.832C1120.26 218.779 1118.22 216.909 1115.44 217.654C1112.66 218.399 1110.19 221.478 1109.92 224.531C1109.77 226.326 1110.41 227.711 1111.52 228.397L1111.52 228.397C1108.66 229.999 1106.38 233.352 1106.09 236.679L1105.76 240.378L1121.51 236.158L1121.84 232.459C1122.13 229.131 1120.33 226.873 1117.62 226.763Z" fill="white"/>
</g>
<path opacity="0.5" fill-rule="evenodd" clip-rule="evenodd" d="M586.253 228.126C586.253 354.117 484.117 456.253 358.126 456.253C232.135 456.253 130 354.117 130 228.126C130 102.136 232.135 0 358.126 0C484.117 0 586.253 102.136 586.253 228.126Z" fill="#2C5AA0" fill-opacity="0.5"/>
<path fill-rule="evenodd" clip-rule="evenodd" d="M55.902 72.5748L56.8734 105.756L62.0349 282.241C62.2931 291.073 68.3157 298.688 76.8499 300.975L371.266 379.864C384.203 383.33 396.825 373.348 396.433 359.96L391.622 195.452L390.619 161.167C390.522 157.855 388.265 154.998 385.063 154.14L62.1662 67.6204C58.9471 66.7579 55.8046 69.2439 55.902 72.5748Z" fill="#2C5AA0"/>
<path fill-rule="evenodd" clip-rule="evenodd" d="M55.9021 72.5748L56.4379 90.8758C56.6965 99.707 62.719 107.322 71.253 109.609L365.669 188.497C378.606 191.964 391.228 181.982 390.836 168.594L390.619 161.167C390.522 157.855 388.265 154.998 385.063 154.14L62.1664 67.6204C58.9473 66.7579 55.8047 69.244 55.9021 72.5748Z" fill="#0CB9FB"/>
<path fill-rule="evenodd" clip-rule="evenodd" d="M64.2482 86.9772C64.2482 91.6763 67.8021 96.4376 72.1864 97.6124C76.5707 98.7871 80.125 95.9305 80.125 91.2314C80.125 86.5323 76.5706 81.7707 72.1866 80.596C67.8023 79.4212 64.2481 82.2782 64.2482 86.9772Z" fill="#0D182E"/>
<path fill-rule="evenodd" clip-rule="evenodd" d="M89.2482 94.9772C89.2482 99.6763 92.8021 104.438 97.1864 105.612C101.571 106.787 105.125 103.931 105.125 99.2314C105.125 94.5323 101.571 89.7707 97.1866 88.596C92.8023 87.4212 89.2481 90.2781 89.2482 94.9772Z" fill="#2C5AA0"/>
<path fill-rule="evenodd" clip-rule="evenodd" d="M356.947 174.851C357.03 174.873 357.121 174.863 357.2 174.815L374.687 164.328C374.841 164.236 374.891 164.035 374.798 163.881C374.706 163.727 374.506 163.676 374.351 163.769L356.864 174.256C356.709 174.348 356.659 174.549 356.752 174.703C356.797 174.779 356.868 174.83 356.947 174.851Z" fill="white"/>
<path fill-rule="evenodd" clip-rule="evenodd" d="M374.434 179.536C374.536 179.564 374.649 179.541 374.734 179.466C374.87 179.347 374.883 179.141 374.763 179.005L357.277 159.147C357.158 159.012 356.952 158.999 356.816 159.118C356.681 159.237 356.668 159.443 356.787 159.579L374.274 179.437C374.318 179.487 374.374 179.52 374.434 179.536Z" fill="white"/>
<path fill-rule="evenodd" clip-rule="evenodd" d="M71.3633 136.534L88.2973 141.235C90.9779 141.979 93.7542 140.41 94.4986 137.729C95.2427 135.048 93.6732 132.272 90.9921 131.528L74.0586 126.826C71.3781 126.082 68.6018 127.652 67.8573 130.333C67.1133 133.013 68.6827 135.789 71.3633 136.534ZM143.145 156.463L107.712 146.626C105.032 145.882 103.462 143.105 104.206 140.424C104.951 137.744 107.727 136.174 110.407 136.918L145.84 146.756C148.521 147.5 150.09 150.276 149.346 152.957C148.602 155.638 145.825 157.208 143.145 156.463ZM162.56 161.854L197.992 171.691C200.673 172.436 203.45 170.866 204.194 168.185C204.938 165.504 203.368 162.728 200.688 161.984L165.255 152.146C162.574 151.402 159.798 152.972 159.054 155.652C158.31 158.333 159.879 161.109 162.56 161.854ZM217.408 177.081L252.84 186.919C255.521 187.663 258.297 186.094 259.041 183.413C259.786 180.732 258.216 177.956 255.535 177.211L220.103 167.374C217.422 166.63 214.646 168.199 213.901 170.88C213.157 173.561 214.727 176.337 217.408 177.081Z" fill="#0D182E"/>
<path fill-rule="evenodd" clip-rule="evenodd" d="M181.42 188.166L207.153 195.278C209.835 196.019 212.61 194.446 213.351 191.765C214.092 189.083 212.519 186.309 209.838 185.567L184.104 178.455C181.423 177.713 178.648 179.287 177.907 181.968C177.166 184.65 178.739 187.424 181.42 188.166ZM226.575 200.646L252.308 207.759C254.99 208.5 257.764 206.927 258.505 204.245C259.246 201.564 257.674 198.789 254.992 198.048L229.259 190.935C226.577 190.194 223.803 191.767 223.061 194.449C222.32 197.13 223.893 199.905 226.575 200.646Z" fill="#2C5AA0"/>
<path d="M164.221 183.095L139.913 176.33C137.233 175.583 135.665 172.806 136.411 170.126C137.157 167.446 139.934 165.878 142.614 166.624L166.922 173.389C169.602 174.136 171.17 176.913 170.425 179.593C169.679 182.273 166.901 183.841 164.221 183.095Z" fill="#0D182E"/>
<path fill-rule="evenodd" clip-rule="evenodd" d="M71.3348 157.284L78.5178 159.256C81.2005 159.992 83.9727 158.415 84.7092 155.732C85.4456 153.049 83.8678 150.277 81.1851 149.541L74.0022 147.569C71.3195 146.832 68.5477 148.41 67.8108 151.093C67.0744 153.776 68.6521 156.547 71.3348 157.284ZM97.9483 164.591L123.694 171.659C126.377 172.396 129.149 170.818 129.885 168.135C130.622 165.452 129.044 162.68 126.361 161.944L100.616 154.875C97.9329 154.139 95.1611 155.716 94.4242 158.399C93.6877 161.082 95.2656 163.854 97.9483 164.591Z" fill="#0CB9FB"/>
<path fill-rule="evenodd" clip-rule="evenodd" d="M71.3742 184.147L81.813 187.022C84.4956 187.76 87.2687 186.184 88.0068 183.502C88.7454 180.82 87.17 178.047 84.4874 177.309L74.0485 174.434C71.3659 173.696 68.5928 175.272 67.8547 177.954C67.1161 180.636 68.6916 183.409 71.3742 184.147ZM101.24 192.37L126.98 199.457C129.662 200.196 132.435 198.62 133.174 195.938C133.913 193.256 132.337 190.483 129.655 189.744L103.914 182.657C101.232 181.919 98.4586 183.494 97.7201 186.177C96.982 188.859 98.5575 191.632 101.24 192.37Z" fill="white"/>
<path d="M180.672 213.855L154.965 206.648C152.286 205.897 150.724 203.116 151.475 200.437C152.226 197.759 155.006 196.196 157.685 196.947L183.392 204.154C186.071 204.905 187.633 207.686 186.882 210.364C186.131 213.043 183.351 214.606 180.672 213.855Z" fill="#2C5AA0"/>
<path fill-rule="evenodd" clip-rule="evenodd" d="M71.3632 207.306L116.503 219.838C119.184 220.583 121.961 219.013 122.705 216.332C123.449 213.651 121.879 210.875 119.199 210.131L74.0586 197.598C71.378 196.854 68.6018 198.424 67.8572 201.104C67.1132 203.785 68.6826 206.561 71.3632 207.306ZM181.059 237.761L135.919 225.228C133.238 224.484 131.668 221.708 132.413 219.027C133.157 216.347 135.933 214.777 138.614 215.521L183.754 228.054C186.435 228.798 188.004 231.575 187.26 234.255C186.516 236.936 183.739 238.506 181.059 237.761ZM245.614 255.685L200.474 243.152C197.793 242.407 196.224 239.631 196.968 236.951C197.712 234.27 200.488 232.7 203.169 233.444L248.309 245.977C250.99 246.721 252.56 249.497 251.815 252.178C251.071 254.859 248.295 256.429 245.614 255.685Z" fill="#0D182E"/>
<path fill-rule="evenodd" clip-rule="evenodd" d="M71.3689 229.418L97.1018 236.532C99.7834 237.273 102.558 235.7 103.299 233.019C104.041 230.337 102.468 227.563 99.7864 226.821L74.0535 219.708C71.3719 218.966 68.5972 220.539 67.8559 223.221C67.1146 225.902 68.6874 228.677 71.3689 229.418ZM142.256 249.015L116.523 241.901C113.841 241.159 112.269 238.385 113.01 235.703C113.751 233.022 116.526 231.449 119.207 232.19L144.94 239.304C147.622 240.045 149.195 242.82 148.453 245.502C147.712 248.183 144.937 249.756 142.256 249.015ZM187.41 261.498L161.677 254.384C158.995 253.642 157.423 250.868 158.164 248.186C158.905 245.505 161.68 243.932 164.361 244.673L190.094 251.786C192.776 252.528 194.349 255.303 193.607 257.984C192.866 260.666 190.091 262.239 187.41 261.498Z" fill="white"/>
</svg>
