<svg width="325" height="448" viewBox="0 0 325 448" fill="none" xmlns="http://www.w3.org/2000/svg">
<g id="BlitCore Diagram">
<g id="code_screen">
<g id="ui">
<path id="Background" opacity="0.5" fill-rule="evenodd" clip-rule="evenodd" d="M264.455 80.5079C264.455 124.971 228.411 161.016 183.947 161.016C139.484 161.016 103.44 124.971 103.44 80.5079C103.44 36.0447 139.484 0 183.947 0C228.411 0 264.455 36.0447 264.455 80.5079Z" fill="#2C5AA0" fill-opacity="0.5"/>
<g id="ui_screen">
<g id="ui_window">
<g id="Group-53">
<path id="Fill-3" fill-rule="evenodd" clip-rule="evenodd" d="M304.393 8.90855L304.05 20.6185L302.292 80.7129C302.163 85.1287 299.152 88.9365 294.885 90.0798L196.916 116.331C190.447 118.064 184.136 113.073 184.332 106.379L185.914 52.2729L186.268 40.1734C186.302 39.0047 187.099 37.9965 188.229 37.6938L302.182 7.1601C303.318 6.8557 304.427 7.73305 304.393 8.90855Z" fill="#2C5AA0"/>
<path id="Fill-5" fill-rule="evenodd" clip-rule="evenodd" d="M304.393 8.90873V8.90873C304.189 15.8584 299.45 21.8512 292.734 23.6507L197.606 49.1402C191.778 50.7019 186.092 46.205 186.268 40.1736V40.1736C186.302 39.0049 187.099 37.9967 188.229 37.694L302.182 7.16027C303.318 6.85587 304.427 7.73323 304.393 8.90873Z" fill="#0CB9FB"/>
<path id="Fill-7" fill-rule="evenodd" clip-rule="evenodd" d="M197.863 42.3145C197.863 43.9729 196.609 45.6532 195.062 46.0678C193.515 46.4824 192.26 45.4742 192.26 43.8159C192.26 42.1575 193.515 40.4771 195.062 40.0625C196.609 39.6479 197.863 40.6562 197.863 42.3145Z" fill="#0D182E"/>
<path id="Fill-9" fill-rule="evenodd" clip-rule="evenodd" d="M208.443 39.4798C208.443 41.1382 207.189 42.8185 205.641 43.2331C204.094 43.6477 202.84 42.6395 202.84 40.9812C202.84 39.3228 204.094 37.6424 205.641 37.2278C207.189 36.8132 208.443 37.8215 208.443 39.4798Z" fill="#2C5AA0"/>
<path id="Fill-11" fill-rule="evenodd" clip-rule="evenodd" d="M295.831 18.7456C295.802 18.7534 295.77 18.7498 295.742 18.7331L289.571 15.0322C289.516 14.9996 289.498 14.9288 289.531 14.8742C289.564 14.8199 289.634 14.8019 289.689 14.8347L295.86 18.5355C295.915 18.5682 295.933 18.639 295.9 18.6936C295.884 18.7203 295.859 18.7381 295.831 18.7456Z" fill="white"/>
<path id="Fill-13" fill-rule="evenodd" clip-rule="evenodd" d="M289.66 20.3992C289.624 20.4088 289.584 20.4009 289.554 20.3744C289.506 20.3324 289.501 20.2597 289.543 20.2119L295.715 13.2038C295.757 13.156 295.829 13.1513 295.877 13.1935C295.925 13.2356 295.93 13.3082 295.888 13.356L289.716 20.3641C289.701 20.3818 289.681 20.3935 289.66 20.3992Z" fill="white"/>
<path id="Fill-15" fill-rule="evenodd" clip-rule="evenodd" d="M296.017 30.6082L295.066 75.5108L294.914 82.6966C294.865 84.9985 293.302 86.9909 291.079 87.5867L225.856 105.063C223.956 105.572 222.099 104.115 222.14 102.149L223.257 49.3748C223.303 47.1967 224.783 45.3105 226.886 44.7468L291.85 27.3399C293.98 26.769 296.063 28.4026 296.017 30.6082Z" fill="#0D182E"/>
<path id="Fill-17" fill-rule="evenodd" clip-rule="evenodd" d="M192.527 57.4345L191.405 110.426C191.364 112.372 193.202 113.813 195.082 113.309L213.515 108.37C215.62 107.806 217.1 105.919 217.146 103.74L218.247 51.6821C218.297 49.358 216.102 47.6368 213.857 48.2384L195.983 53.0277C193.979 53.5647 192.571 55.3605 192.527 57.4345Z" fill="#0D182E"/>
<path id="Fill-19" fill-rule="evenodd" clip-rule="evenodd" d="M212.559 72.3248L197.489 76.3628C197.145 76.455 196.791 76.2508 196.699 75.9068C196.607 75.5626 196.811 75.209 197.155 75.1168L212.225 71.0787C212.569 70.9865 212.923 71.1907 213.015 71.5349C213.107 71.8789 212.903 72.2326 212.559 72.3248Z" fill="#2C5AA0"/>
<path id="Fill-21" fill-rule="evenodd" clip-rule="evenodd" d="M287.51 36.6366L241.435 48.9824C241.09 49.0746 240.737 48.8704 240.645 48.5264C240.552 48.1822 240.756 47.8286 241.101 47.7364L287.176 35.3906C287.52 35.2984 287.873 35.5026 287.966 35.8468C288.058 36.1908 287.854 36.5444 287.51 36.6366Z" fill="#2C5AA0"/>
<path id="Fill-23" fill-rule="evenodd" clip-rule="evenodd" d="M276.856 55.0964L242.649 64.2622C242.304 64.3544 241.951 64.1502 241.859 63.8062C241.767 63.462 241.971 63.1084 242.315 63.0162L276.522 53.8503C276.866 53.7581 277.22 53.9623 277.312 54.3065C277.404 54.6505 277.2 55.0042 276.856 55.0964Z" fill="#2C5AA0"/>
<path id="Fill-25" fill-rule="evenodd" clip-rule="evenodd" d="M261.405 47.6364L241.449 52.9836C241.105 53.0758 240.751 52.8716 240.659 52.5276C240.567 52.1835 240.771 51.8298 241.115 51.7376L261.071 46.3904C261.415 46.2982 261.769 46.5024 261.861 46.8465C261.953 47.1906 261.749 47.5442 261.405 47.6364Z" fill="#2C5AA0"/>
<path id="Fill-27" fill-rule="evenodd" clip-rule="evenodd" d="M287.996 63.7416L241.921 76.0874C241.576 76.1796 241.223 75.9754 241.131 75.6314C241.038 75.2872 241.243 74.9336 241.587 74.8414L287.662 62.4956C288.006 62.4034 288.36 62.6076 288.452 62.9517C288.544 63.2958 288.34 63.6494 287.996 63.7416Z" fill="#2C5AA0"/>
<path id="Fill-29" fill-rule="evenodd" clip-rule="evenodd" d="M261.891 74.7412L241.935 80.0884C241.591 80.1806 241.237 79.9764 241.145 79.6323C241.053 79.2882 241.257 78.9345 241.601 78.8423L261.557 73.4951C261.902 73.4029 262.255 73.6071 262.347 73.9513C262.439 74.2953 262.235 74.6489 261.891 74.7412Z" fill="#2C5AA0"/>
<path id="Fill-31" fill-rule="evenodd" clip-rule="evenodd" d="M208.648 83.0365L200.276 85.2799C200.214 85.2964 200.151 85.2599 200.134 85.1985C200.118 85.1369 200.154 85.0738 200.216 85.0573L208.588 82.814C208.65 82.7975 208.713 82.834 208.729 82.8955C208.746 82.957 208.709 83.0201 208.648 83.0365Z" fill="#2C5AA0"/>
<path id="Fill-33" fill-rule="evenodd" clip-rule="evenodd" d="M208.467 88.632L200.095 90.8753C200.034 90.8918 199.971 90.8554 199.954 90.7939C199.938 90.7324 199.974 90.6693 200.036 90.6528L208.408 88.4095C208.469 88.393 208.532 88.4294 208.549 88.491C208.565 88.5524 208.529 88.6155 208.467 88.632Z" fill="#2C5AA0"/>
<path id="Fill-35" fill-rule="evenodd" clip-rule="evenodd" d="M208.597 94.1444L200.225 96.3878C200.163 96.4043 200.1 96.3678 200.084 96.3064C200.067 96.2448 200.104 96.1817 200.165 96.1652L208.537 93.9219C208.599 93.9054 208.662 93.9419 208.678 94.0034C208.695 94.0649 208.658 94.128 208.597 94.1444Z" fill="#2C5AA0"/>
<path id="Fill-37" fill-rule="evenodd" clip-rule="evenodd" d="M211.424 103.013L196.353 107.051C196.292 107.068 196.229 107.031 196.212 106.97C196.196 106.908 196.232 106.845 196.294 106.829L211.364 102.791C211.425 102.774 211.488 102.811 211.505 102.872C211.521 102.934 211.485 102.997 211.424 103.013Z" fill="#2C5AA0"/>
<path id="Fill-39" fill-rule="evenodd" clip-rule="evenodd" d="M295.096 75.6222L222.321 95.1222C222.26 95.1386 222.197 95.1022 222.18 95.0408C222.164 94.9792 222.2 94.9161 222.262 94.8996L295.036 75.3997C295.098 75.3833 295.161 75.4197 295.177 75.4812C295.194 75.5427 295.157 75.6058 295.096 75.6222Z" fill="#2C5AA0"/>
<path id="Fill-41" fill-rule="evenodd" clip-rule="evenodd" d="M272.736 84.6703L229.651 96.2149C228.812 96.4398 228.219 97.1879 228.192 98.0562C228.151 99.3764 229.395 100.362 230.671 100.02L273.756 88.4758C274.595 88.251 275.188 87.503 275.215 86.6346C275.256 85.3145 274.012 84.3284 272.736 84.6703Z" fill="white"/>
<path id="Fill-43" fill-rule="evenodd" clip-rule="evenodd" d="M295.066 75.5107L294.914 82.6964C294.865 84.9983 293.302 86.9907 291.079 87.5865L280.815 90.3367L281.142 79.2416L295.066 75.5107Z" fill="#0CB9FB"/>
<path id="Fill-45" fill-rule="evenodd" clip-rule="evenodd" d="M286.73 85.1188C286.686 85.1304 286.638 85.1157 286.608 85.0778C286.57 85.0274 286.579 84.955 286.63 84.9162L289.946 82.3627L286.271 81.1431C286.211 81.1231 286.178 81.0579 286.198 80.9975C286.218 80.9372 286.284 80.9047 286.344 80.9244L290.224 82.2123C290.265 82.2258 290.295 82.2604 290.302 82.3023C290.309 82.3444 290.292 82.3869 290.258 82.413L286.77 85.0988C286.758 85.1083 286.744 85.1149 286.73 85.1188Z" fill="white"/>
<path id="Fill-47" fill-rule="evenodd" clip-rule="evenodd" d="M237.34 78.3571C237.34 80.5689 235.667 82.8103 233.604 83.3632C231.54 83.9162 229.867 82.5713 229.867 80.3596C229.867 78.1477 231.54 75.9063 233.604 75.3533C235.667 74.8004 237.34 76.1453 237.34 78.3571Z" fill="#2C5AA0"/>
<path id="Fill-49" fill-rule="evenodd" clip-rule="evenodd" d="M211.477 60.4615C211.477 64.2986 208.575 68.1871 204.995 69.1464C201.414 70.1057 198.512 67.7726 198.512 63.9354C198.512 60.0982 201.414 56.2098 204.995 55.2505C208.575 54.2913 211.477 56.6242 211.477 60.4615Z" fill="white"/>
<path id="Fill-51" fill-rule="evenodd" clip-rule="evenodd" d="M211.477 60.4615C211.477 64.2986 208.575 68.1871 204.995 69.1464C201.414 70.1057 198.512 67.7726 198.512 63.9354C198.512 60.0982 201.414 56.2098 204.995 55.2505C208.575 54.2913 211.477 56.6242 211.477 60.4615Z" fill="#2C5AA0"/>
</g>
<g id="Group-56">
<mask id="mask0_585_2" style="mask-type:alpha" maskUnits="userSpaceOnUse" x="198" y="55" width="14" height="15">
<g id="masterspot-illustrationchatting-mask-2">
<path id="Vector" d="M198.512 64.0133C198.512 67.8505 201.414 70.1835 204.994 69.2242C208.574 68.2648 211.477 64.3765 211.477 60.5394C211.477 56.7021 208.574 54.3691 204.994 55.3284C201.414 56.2877 198.512 60.176 198.512 64.0133Z" fill="white"/>
</g>
</mask>
<g mask="url(#mask0_585_2)">
<path id="Fill-54" fill-rule="evenodd" clip-rule="evenodd" d="M206.614 63.0741L206.613 63.0743C207.385 62.2806 207.932 61.2072 208.026 60.1388C208.185 58.3217 206.971 57.2083 205.316 57.6519C203.66 58.0955 202.189 59.9282 202.03 61.7454C201.936 62.8138 202.318 63.6383 202.984 64.0468L202.984 64.047C201.281 65.0006 199.92 66.996 199.747 68.9767L199.554 71.1782L208.93 68.6661L209.122 66.4646C209.296 64.4839 208.227 63.1395 206.614 63.0741Z" fill="#0CB9FB"/>
</g>
</g>
<path id="Fill-57" fill-rule="evenodd" clip-rule="evenodd" d="M236.854 56.1369C236.854 58.3488 235.181 60.5901 233.118 61.1431C231.054 61.6961 229.381 60.3512 229.381 58.1394C229.381 55.9275 231.054 53.6861 233.118 53.1331C235.181 52.5802 236.854 53.925 236.854 56.1369Z" fill="#2C5AA0"/>
<g id="Group-61">
<mask id="mask1_585_2" style="mask-type:alpha" maskUnits="userSpaceOnUse" x="229" y="53" width="8" height="9">
<g id="masterspot-illustrationchatting-mask-4">
<path id="Vector_2" d="M229.381 58.1394C229.381 60.3512 231.054 61.6961 233.117 61.1431C235.181 60.5901 236.854 58.3488 236.854 56.1369C236.854 53.925 235.181 52.5802 233.118 53.1331C231.054 53.6861 229.381 55.9275 229.381 58.1394Z" fill="white"/>
</g>
</mask>
<g mask="url(#mask1_585_2)">
<path id="Fill-59" fill-rule="evenodd" clip-rule="evenodd" d="M234.103 57.9275L234.102 57.9276C234.56 57.4571 234.884 56.8207 234.94 56.1872C235.034 55.11 234.315 54.4498 233.333 54.7129C232.351 54.9759 231.479 56.0625 231.385 57.1397C231.33 57.7732 231.556 58.2621 231.951 58.5042L231.95 58.5043C230.941 59.0697 230.134 60.2527 230.031 61.427L229.917 62.7324L235.476 61.243L235.59 59.9377C235.693 58.7633 235.059 57.9664 234.103 57.9275Z" fill="white"/>
</g>
</g>
<path id="Fill-62" fill-rule="evenodd" clip-rule="evenodd" d="M289.662 55.8817C289.663 58.0935 287.99 60.3349 285.926 60.8879C283.862 61.4409 282.189 60.096 282.189 57.8841C282.189 55.6724 283.862 53.431 285.926 52.878C287.99 52.325 289.663 53.6699 289.662 55.8817Z" fill="#2C5AA0"/>
<g id="Group-66">
<mask id="mask2_585_2" style="mask-type:alpha" maskUnits="userSpaceOnUse" x="282" y="52" width="8" height="10">
<g id="masterspot-illustrationchatting-mask-6">
<path id="Vector_3" d="M282.189 57.8843C282.189 60.0962 283.862 61.441 285.926 60.888C287.989 60.3351 289.663 58.0937 289.662 55.8818C289.663 53.67 287.99 52.3253 285.926 52.8783C283.862 53.4312 282.189 55.6725 282.189 57.8843Z" fill="white"/>
</g>
</mask>
<g mask="url(#mask2_585_2)">
<path id="Fill-64" fill-rule="evenodd" clip-rule="evenodd" d="M286.856 57.7224L286.855 57.7226C287.312 57.2521 287.637 56.6156 287.692 55.9822C287.787 54.9049 287.067 54.2448 286.086 54.5078C285.104 54.7708 284.232 55.8574 284.138 56.9347C284.082 57.5681 284.308 58.0571 284.703 58.2992L284.703 58.2992C283.694 58.8647 282.887 60.0476 282.784 61.222L282.67 62.5273L288.228 61.038L288.342 59.7326C288.445 58.5583 287.812 57.7613 286.856 57.7224Z" fill="#0CB9FB"/>
</g>
</g>
<g id="Group-69">
<mask id="mask3_585_2" style="mask-type:alpha" maskUnits="userSpaceOnUse" x="229" y="75" width="9" height="9">
<g id="masterspot-illustrationchatting-mask-8">
<path id="Vector_4" d="M229.867 80.2385C229.867 82.4503 231.54 83.7951 233.603 83.2421C235.667 82.6892 237.34 80.4478 237.34 78.236C237.34 76.0242 235.667 74.6793 233.604 75.2322C231.54 75.7852 229.867 78.0266 229.867 80.2385Z" fill="white"/>
</g>
</mask>
<g mask="url(#mask3_585_2)">
<path id="Fill-67" fill-rule="evenodd" clip-rule="evenodd" d="M234.589 80.0266L234.588 80.0268C235.046 79.5562 235.37 78.9198 235.426 78.2864C235.52 77.2091 234.801 76.5489 233.819 76.812C232.838 77.075 231.965 78.1616 231.871 79.2388C231.816 79.8723 232.042 80.3612 232.437 80.6034L232.436 80.6034C231.427 81.1688 230.62 82.3518 230.518 83.5262L230.403 84.8315L235.962 83.3421L236.076 82.0368C236.179 80.8625 235.545 80.0655 234.589 80.0266Z" fill="white"/>
</g>
</g>
</g>
</g>
</g>
<g id="code">
<path id="Background_2" opacity="0.5" fill-rule="evenodd" clip-rule="evenodd" d="M206.894 366.523C206.894 410.987 170.849 447.031 126.386 447.031C81.9226 447.031 45.8782 410.987 45.8782 366.523C45.8782 322.06 81.9226 286.016 126.386 286.016C170.849 286.016 206.894 322.06 206.894 366.523Z" fill="#2C5AA0" fill-opacity="0.5"/>
<g id="code_window">
<path id="Fill-3_2" fill-rule="evenodd" clip-rule="evenodd" d="M19.7283 311.628L20.0711 323.338L21.8286 383.432C21.9577 387.848 24.969 391.656 29.2361 392.799L127.205 419.05C133.674 420.783 139.985 415.793 139.789 409.099L138.207 354.992L137.853 342.893C137.819 341.724 137.022 340.716 135.892 340.413L21.939 309.88C20.8029 309.575 19.6939 310.453 19.7283 311.628Z" fill="#2C5AA0"/>
<g id="Group 26">
<path id="Fill-5_2" fill-rule="evenodd" clip-rule="evenodd" d="M19.7283 311.628V311.628C19.9318 318.578 24.6712 324.57 31.3869 326.37L126.515 351.859C132.343 353.421 138.029 348.924 137.853 342.893V342.893C137.819 341.724 137.022 340.716 135.892 340.413L21.939 309.88C20.803 309.575 19.6939 310.452 19.7283 311.628Z" fill="#0CB9FB"/>
<path id="Fill-7_2" fill-rule="evenodd" clip-rule="evenodd" d="M22.6738 316.711C22.6738 318.369 23.928 320.049 25.4753 320.464C27.0225 320.879 28.2769 319.87 28.2769 318.212C28.2769 316.554 27.0225 314.873 25.4753 314.459C23.9281 314.044 22.6738 315.052 22.6738 316.711Z" fill="#0D182E"/>
<path id="Fill-9_2" fill-rule="evenodd" clip-rule="evenodd" d="M31.4965 319.534C31.4965 321.192 32.7507 322.873 34.298 323.287C35.8454 323.702 37.0996 322.694 37.0996 321.035C37.0996 319.377 35.8452 317.697 34.2981 317.282C32.7508 316.867 31.4965 317.876 31.4965 319.534Z" fill="#2C5AA0"/>
<g id="Group 25">
<path id="Fill-11_2" fill-rule="evenodd" clip-rule="evenodd" d="M125.97 347.722C125.999 347.73 126.031 347.726 126.059 347.71L132.23 344.009C132.285 343.976 132.302 343.905 132.27 343.851C132.237 343.796 132.166 343.778 132.112 343.811L125.94 347.512C125.886 347.545 125.868 347.616 125.901 347.67C125.917 347.697 125.942 347.715 125.97 347.722Z" fill="white"/>
<path id="Fill-13_2" fill-rule="evenodd" clip-rule="evenodd" d="M132.141 349.376C132.177 349.385 132.217 349.377 132.247 349.351C132.295 349.309 132.299 349.236 132.257 349.188L126.086 342.18C126.044 342.132 125.971 342.128 125.924 342.17C125.876 342.212 125.871 342.285 125.913 342.332L132.085 349.34C132.1 349.358 132.12 349.37 132.141 349.376Z" fill="white"/>
</g>
</g>
<g id="code_2">
<path id="Path_3" fill-rule="evenodd" clip-rule="evenodd" d="M25.1848 334.2L31.1609 335.859C32.1069 336.121 33.0867 335.568 33.3494 334.621C33.612 333.675 33.0581 332.696 32.112 332.433L26.136 330.774C25.19 330.511 24.2102 331.065 23.9475 332.011C23.6849 332.957 24.2388 333.937 25.1848 334.2ZM50.5171 341.233L38.0126 337.761C37.0666 337.499 36.5127 336.519 36.7753 335.573C37.038 334.627 38.0178 334.073 38.9638 334.335L51.4683 337.807C52.4144 338.07 52.9682 339.05 52.7056 339.996C52.4429 340.942 51.4631 341.496 50.5171 341.233ZM57.369 343.135L69.8733 346.607C70.8193 346.87 71.7993 346.316 72.0618 345.37C72.3246 344.424 71.7705 343.444 70.8245 343.181L58.32 339.709C57.374 339.447 56.3942 340.001 56.1315 340.947C55.8689 341.893 56.4228 342.873 57.369 343.135ZM76.7251 348.509L89.2295 351.981C90.1757 352.244 91.1555 351.69 91.418 350.744C91.6808 349.798 91.1267 348.818 90.1807 348.555L77.6762 345.083C76.7302 344.821 75.7504 345.375 75.4877 346.321C75.2251 347.267 75.7792 348.247 76.7251 348.509Z" fill="#0D182E"/>
<path id="Path Copy" fill-rule="evenodd" clip-rule="evenodd" d="M64.0248 352.421L73.1062 354.931C74.0526 355.193 75.0318 354.637 75.2932 353.691C75.5548 352.745 74.9998 351.766 74.0535 351.504L64.972 348.994C64.0256 348.732 63.0464 349.288 62.7848 350.234C62.5232 351.18 63.0784 352.159 64.0248 352.421ZM79.9602 356.825L89.0417 359.336C89.9881 359.597 90.9672 359.042 91.2287 358.096C91.4903 357.149 90.9353 356.17 89.9889 355.909L80.9075 353.399C79.9611 353.137 78.9819 353.692 78.7203 354.638C78.4587 355.585 79.0139 356.564 79.9602 356.825Z" fill="#2C5AA0"/>
<path id="Path Copy_2" d="M57.9551 350.632L49.3765 348.244C48.4306 347.981 47.8772 347 48.1405 346.055C48.4038 345.109 49.3839 344.555 50.3298 344.819L58.9084 347.206C59.8542 347.47 60.4076 348.45 60.1444 349.396C59.8811 350.341 58.9009 350.895 57.9551 350.632Z" fill="#0D182E"/>
<path id="Path Copy_3" fill-rule="evenodd" clip-rule="evenodd" d="M25.1746 341.523L27.7095 342.219C28.6563 342.478 29.6346 341.922 29.8945 340.975C30.1544 340.028 29.5976 339.05 28.6508 338.79L26.1159 338.094C25.1692 337.834 24.191 338.391 23.9309 339.338C23.671 340.285 24.2278 341.263 25.1746 341.523ZM34.5667 344.101L43.6525 346.596C44.5993 346.856 45.5777 346.299 45.8376 345.352C46.0974 344.405 45.5406 343.427 44.5939 343.167L35.508 340.673C34.5613 340.413 33.5831 340.969 33.323 341.916C33.0631 342.863 33.62 343.841 34.5667 344.101Z" fill="#0CB9FB"/>
<path id="Path Copy 2" fill-rule="evenodd" clip-rule="evenodd" d="M25.1886 351.003L28.8726 352.017C29.8193 352.278 30.7979 351.722 31.0584 350.775C31.319 349.829 30.7631 348.85 29.8164 348.59L26.1324 347.575C25.1857 347.315 24.207 347.871 23.9465 348.817C23.6859 349.764 24.2419 350.742 25.1886 351.003ZM35.7285 353.905L44.8125 356.406C45.759 356.667 46.7377 356.111 46.9983 355.164C47.259 354.217 46.7028 353.239 45.7563 352.978L36.6723 350.477C35.7256 350.217 34.7469 350.773 34.4863 351.719C34.2258 352.666 34.7818 353.644 35.7285 353.905Z" fill="white"/>
<path id="Path Copy 2_2" d="M63.7607 361.487L54.6884 358.944C53.7431 358.679 53.1916 357.697 53.4567 356.752C53.7217 355.807 54.7029 355.255 55.6482 355.52L64.7205 358.064C65.6659 358.329 66.2173 359.31 65.9523 360.255C65.6872 361.201 64.7061 361.752 63.7607 361.487Z" fill="#2C5AA0"/>
<path id="Path Copy 3" fill-rule="evenodd" clip-rule="evenodd" d="M25.1847 359.176L41.1151 363.599C42.0611 363.861 43.0411 363.307 43.3036 362.361C43.5664 361.415 43.0123 360.435 42.0663 360.173L26.136 355.75C25.19 355.487 24.2102 356.041 23.9474 356.987C23.6849 357.933 24.2387 358.913 25.1847 359.176ZM63.8973 369.924L47.9669 365.501C47.0209 365.238 46.4669 364.258 46.7296 363.312C46.9922 362.366 47.972 361.812 48.9182 362.075L64.8485 366.498C65.7945 366.761 66.3484 367.74 66.0858 368.686C65.8231 369.632 64.8433 370.186 63.8973 369.924ZM86.6793 376.249L70.749 371.826C69.803 371.563 69.2491 370.584 69.5117 369.638C69.7744 368.692 70.7542 368.138 71.7002 368.4L87.6305 372.823C88.5765 373.086 89.1306 374.066 88.8678 375.012C88.6053 375.958 87.6255 376.512 86.6793 376.249Z" fill="#0D182E"/>
<path id="Path Copy 4" fill-rule="evenodd" clip-rule="evenodd" d="M25.1866 366.98L34.268 369.49C35.2143 369.752 36.1935 369.196 36.4551 368.25C36.7168 367.304 36.1618 366.325 35.2154 366.063L26.134 363.553C25.1877 363.291 24.2085 363.846 23.9469 364.792C23.6853 365.739 24.2403 366.718 25.1866 366.98ZM50.2032 373.895L41.1218 371.385C40.1755 371.123 39.6205 370.144 39.8821 369.198C40.1437 368.251 41.1229 367.696 42.0693 367.958L51.1506 370.468C52.097 370.73 52.652 371.709 52.3904 372.655C52.1288 373.602 51.1496 374.157 50.2032 373.895ZM66.1385 378.301L57.0571 375.79C56.1108 375.528 55.5557 374.549 55.8173 373.603C56.0789 372.657 57.0582 372.102 58.0045 372.363L67.0859 374.873C68.0322 375.135 68.5872 376.114 68.3256 377.061C68.064 378.007 67.0848 378.562 66.1385 378.301Z" fill="white"/>
</g>
</g>
</g>
</g>
</g>
</svg>
