<svg width="1077" height="359" viewBox="0 0 1077 359" fill="none" xmlns="http://www.w3.org/2000/svg">
<path opacity="0.5" fill-rule="evenodd" clip-rule="evenodd" d="M943.512 179.011C943.512 277.876 863.366 358.022 764.501 358.022C665.636 358.022 585.49 277.876 585.49 179.011C585.49 80.1461 665.636 0 764.501 0C863.366 0 943.512 80.1461 943.512 179.011Z" fill="#2C5AA0" fill-opacity="0.5"/>
<path fill-rule="evenodd" clip-rule="evenodd" d="M1032.31 19.8086L1031.55 45.8459L1027.59 181.13C1027.34 189.962 1021.31 197.577 1012.78 199.864L790.435 259.441C777.498 262.908 764.876 252.926 765.267 239.538L768.874 116.23L769.661 89.3267C769.737 86.728 771.508 84.4863 774.02 83.8132L1027.4 15.9209C1029.92 15.244 1032.39 17.1948 1032.31 19.8086Z" fill="#2C5AA0"/>
<path fill-rule="evenodd" clip-rule="evenodd" d="M1032.31 19.8086L1031.99 30.9656C1031.73 39.7968 1025.71 47.4121 1017.17 49.6988L794.827 109.276C781.89 112.742 769.269 102.715 769.661 89.3266V89.3266C769.737 86.728 771.508 84.4862 774.02 83.8131L1027.4 15.9208C1029.92 15.244 1032.39 17.1948 1032.31 19.8086Z" fill="#0CB9FB"/>
<path fill-rule="evenodd" clip-rule="evenodd" d="M795.443 94.0872C795.443 97.7746 792.654 101.511 789.214 102.433C785.774 103.354 782.985 101.113 782.985 97.4255C782.985 93.7381 785.774 90.0016 789.214 89.0798C792.654 88.158 795.443 90.3998 795.443 94.0872Z" fill="#0D182E"/>
<path fill-rule="evenodd" clip-rule="evenodd" d="M818.967 87.7841C818.967 91.4715 816.178 95.2077 812.738 96.1295C809.297 97.0514 806.508 94.8097 806.508 91.1224C806.508 87.435 809.297 83.6985 812.737 82.7767C816.178 81.8549 818.967 84.0967 818.967 87.7841Z" fill="#2C5AA0"/>
<path fill-rule="evenodd" clip-rule="evenodd" d="M1013.28 41.6812C1013.21 41.6985 1013.14 41.6906 1013.08 41.6534L999.356 33.4243C999.235 33.3518 999.195 33.1944 999.268 33.0731C999.341 32.9522 999.498 32.9122 999.619 32.9853L1013.34 41.2141C1013.46 41.2868 1013.5 41.4442 1013.43 41.5655C1013.39 41.6248 1013.34 41.6645 1013.28 41.6812Z" fill="white"/>
<path fill-rule="evenodd" clip-rule="evenodd" d="M999.554 45.3579C999.474 45.3794 999.385 45.3617 999.319 45.3027C999.212 45.2093 999.202 45.0477 999.296 44.9413L1013.02 29.3589C1013.11 29.2526 1013.27 29.2422 1013.38 29.3359C1013.48 29.4294 1013.5 29.591 1013.4 29.6971L999.68 45.2799C999.645 45.3193 999.601 45.3453 999.554 45.3579Z" fill="white"/>
<path fill-rule="evenodd" clip-rule="evenodd" d="M1013.69 68.0582L1011.57 167.9L1011.24 183.878C1011.13 188.996 1007.65 193.426 1002.71 194.751L857.686 233.61C853.461 234.742 849.332 231.503 849.423 227.13L851.906 109.786C852.009 104.943 855.298 100.749 859.976 99.4956L1004.42 60.791C1009.16 59.5215 1013.79 63.1539 1013.69 68.0582Z" fill="#0D182E"/>
<path fill-rule="evenodd" clip-rule="evenodd" d="M783.577 127.707L781.083 245.533C780.991 249.861 785.078 253.066 789.258 251.945L830.244 240.963C834.925 239.709 838.215 235.514 838.318 230.668L840.767 114.916C840.877 109.749 835.997 105.921 831.004 107.259L791.261 117.908C786.806 119.102 783.674 123.095 783.577 127.707Z" fill="#0D182E"/>
<path fill-rule="evenodd" clip-rule="evenodd" d="M828.12 160.815L794.611 169.794C793.846 169.999 793.06 169.545 792.855 168.78C792.65 168.015 793.103 167.228 793.869 167.023L827.377 158.045C828.142 157.84 828.929 158.294 829.134 159.059C829.339 159.824 828.885 160.61 828.12 160.815Z" fill="#2C5AA0"/>
<path fill-rule="evenodd" clip-rule="evenodd" d="M994.773 81.4626L892.324 108.914C891.559 109.119 890.773 108.665 890.568 107.9C890.363 107.134 890.817 106.348 891.582 106.143L994.031 78.692C994.796 78.487 995.582 78.9411 995.787 79.7063C995.992 80.4713 995.539 81.2576 994.773 81.4626Z" fill="#2C5AA0"/>
<path fill-rule="evenodd" clip-rule="evenodd" d="M971.085 122.508L895.024 142.888C894.259 143.093 893.473 142.639 893.268 141.874C893.063 141.109 893.517 140.323 894.282 140.118L970.342 119.737C971.108 119.532 971.894 119.986 972.099 120.751C972.304 121.516 971.85 122.303 971.085 122.508Z" fill="#2C5AA0"/>
<path fill-rule="evenodd" clip-rule="evenodd" d="M936.73 105.92L892.357 117.81C891.592 118.015 890.805 117.561 890.6 116.796C890.395 116.031 890.849 115.244 891.614 115.039L935.987 103.15C936.752 102.945 937.539 103.399 937.744 104.164C937.949 104.929 937.495 105.715 936.73 105.92Z" fill="#2C5AA0"/>
<path fill-rule="evenodd" clip-rule="evenodd" d="M995.854 141.731L893.405 169.182C892.64 169.387 891.854 168.933 891.649 168.168C891.444 167.402 891.898 166.616 892.663 166.411L995.112 138.96C995.877 138.755 996.663 139.209 996.868 139.974C997.073 140.739 996.619 141.526 995.854 141.731Z" fill="#2C5AA0"/>
<path fill-rule="evenodd" clip-rule="evenodd" d="M937.81 166.188L893.438 178.078C892.672 178.283 891.886 177.829 891.681 177.064C891.476 176.299 891.93 175.513 892.695 175.307L937.068 163.418C937.833 163.213 938.619 163.667 938.824 164.432C939.029 165.197 938.576 165.983 937.81 166.188Z" fill="#2C5AA0"/>
<path fill-rule="evenodd" clip-rule="evenodd" d="M819.422 184.633L800.807 189.621C800.67 189.658 800.529 189.577 800.493 189.44C800.456 189.303 800.537 189.163 800.674 189.126L819.29 184.138C819.426 184.102 819.567 184.183 819.603 184.32C819.64 184.456 819.559 184.597 819.422 184.633Z" fill="#2C5AA0"/>
<path fill-rule="evenodd" clip-rule="evenodd" d="M819.021 197.075L800.406 202.063C800.269 202.1 800.129 202.019 800.092 201.882C800.055 201.745 800.136 201.605 800.273 201.568L818.889 196.58C819.026 196.544 819.166 196.625 819.203 196.761C819.239 196.898 819.158 197.038 819.021 197.075Z" fill="#2C5AA0"/>
<path fill-rule="evenodd" clip-rule="evenodd" d="M819.309 209.332L800.694 214.32C800.557 214.357 800.417 214.276 800.38 214.139C800.343 214.002 800.424 213.862 800.561 213.825L819.177 208.837C819.314 208.801 819.454 208.882 819.491 209.019C819.527 209.155 819.446 209.295 819.309 209.332Z" fill="#2C5AA0"/>
<path fill-rule="evenodd" clip-rule="evenodd" d="M825.594 229.052L792.086 238.03C791.949 238.067 791.809 237.986 791.772 237.849C791.736 237.712 791.817 237.572 791.953 237.535L825.462 228.557C825.599 228.52 825.739 228.601 825.775 228.738C825.812 228.875 825.731 229.015 825.594 229.052Z" fill="#2C5AA0"/>
<path fill-rule="evenodd" clip-rule="evenodd" d="M1011.64 168.148L849.826 211.506C849.689 211.543 849.549 211.462 849.512 211.325C849.475 211.188 849.557 211.048 849.693 211.011L1011.51 167.653C1011.65 167.616 1011.79 167.697 1011.82 167.834C1011.86 167.971 1011.78 168.111 1011.64 168.148Z" fill="#2C5AA0"/>
<path fill-rule="evenodd" clip-rule="evenodd" d="M961.925 188.266L866.124 213.936C864.258 214.436 862.94 216.099 862.88 218.03C862.788 220.966 865.554 223.158 868.391 222.398L964.192 196.728C966.058 196.228 967.376 194.565 967.437 192.634C967.528 189.699 964.762 187.506 961.925 188.266Z" fill="white"/>
<path fill-rule="evenodd" clip-rule="evenodd" d="M1011.57 167.9L1011.24 183.877C1011.13 188.996 1007.65 193.426 1002.71 194.751L979.887 200.866L980.615 176.196L1011.57 167.9Z" fill="#0CB9FB"/>
<path fill-rule="evenodd" clip-rule="evenodd" d="M993.039 189.264C992.942 189.29 992.835 189.257 992.77 189.173C992.683 189.06 992.704 188.9 992.817 188.813L1000.19 183.135L992.019 180.424C991.885 180.379 991.813 180.234 991.857 180.1C991.902 179.966 992.047 179.894 992.181 179.937L1000.81 182.801C1000.9 182.831 1000.97 182.908 1000.98 183.001C1001 183.095 1000.96 183.189 1000.89 183.247L993.129 189.219C993.101 189.24 993.071 189.255 993.039 189.264Z" fill="white"/>
<path fill-rule="evenodd" clip-rule="evenodd" d="M883.221 174.229C883.221 179.146 879.501 184.13 874.913 185.36C870.324 186.589 866.604 183.599 866.604 178.681C866.604 173.763 870.324 168.779 874.912 167.55C879.501 166.32 883.221 169.31 883.221 174.229Z" fill="#2C5AA0"/>
<path fill-rule="evenodd" clip-rule="evenodd" d="M825.713 134.437C825.713 142.969 819.26 151.615 811.299 153.748C803.339 155.881 796.885 150.694 796.886 142.161C796.885 133.629 803.339 124.983 811.299 122.85C819.26 120.717 825.713 125.905 825.713 134.437Z" fill="white"/>
<path fill-rule="evenodd" clip-rule="evenodd" d="M825.713 134.437C825.713 142.969 819.26 151.615 811.299 153.748C803.339 155.881 796.885 150.694 796.886 142.161C796.885 133.629 803.339 124.983 811.299 122.85C819.26 120.717 825.713 125.905 825.713 134.437Z" fill="#2C5AA0"/>
<mask id="mask0_512_78" style="mask-type:alpha" maskUnits="userSpaceOnUse" x="796" y="122" width="30" height="33">
<path d="M796.885 142.335C796.885 150.867 803.338 156.054 811.299 153.921C819.26 151.788 825.713 143.142 825.713 134.61C825.713 126.078 819.259 120.891 811.299 123.024C803.338 125.157 796.885 133.802 796.885 142.335Z" fill="white"/>
</mask>
<g mask="url(#mask0_512_78)">
<path fill-rule="evenodd" clip-rule="evenodd" d="M814.902 140.246L814.899 140.247C816.615 138.482 817.832 136.095 818.039 133.72C818.393 129.679 815.695 127.203 812.014 128.19C808.332 129.176 805.061 133.251 804.708 137.292C804.5 139.667 805.348 141.501 806.829 142.409L806.828 142.409C803.043 144.53 800.017 148.967 799.632 153.371L799.203 158.266L820.049 152.68L820.478 147.785C820.863 143.381 818.487 140.392 814.902 140.246Z" fill="#0CB9FB"/>
</g>
<path fill-rule="evenodd" clip-rule="evenodd" d="M882.14 124.822C882.14 129.74 878.42 134.724 873.832 135.953C869.243 137.183 865.523 134.192 865.523 129.274C865.523 124.356 869.242 119.372 873.831 118.143C878.42 116.913 882.14 119.904 882.14 124.822Z" fill="#2C5AA0"/>
<mask id="mask1_512_78" style="mask-type:alpha" maskUnits="userSpaceOnUse" x="865" y="117" width="18" height="20">
<path d="M865.523 129.274C865.523 134.192 869.243 137.183 873.831 135.953C878.42 134.724 882.14 129.74 882.14 124.822C882.14 119.904 878.42 116.913 873.831 118.143C869.242 119.372 865.523 124.356 865.523 129.274Z" fill="white"/>
</mask>
<g mask="url(#mask1_512_78)">
<path fill-rule="evenodd" clip-rule="evenodd" d="M876.023 128.803L876.021 128.803C877.039 127.757 877.76 126.342 877.883 124.934C878.093 122.538 876.493 121.07 874.311 121.655C872.128 122.24 870.189 124.656 869.979 127.051C869.856 128.46 870.358 129.547 871.237 130.086L871.236 130.086C868.992 131.343 867.198 133.973 866.97 136.584L866.716 139.487L879.075 136.175L879.329 133.273C879.557 130.662 878.148 128.89 876.023 128.803Z" fill="white"/>
</g>
<path fill-rule="evenodd" clip-rule="evenodd" d="M999.56 124.254C999.561 129.172 995.84 134.156 991.252 135.386C986.663 136.615 982.943 133.625 982.943 128.707C982.943 123.789 986.663 118.805 991.252 117.576C995.841 116.346 999.56 119.336 999.56 124.254Z" fill="#2C5AA0"/>
<mask id="mask2_512_78" style="mask-type:alpha" maskUnits="userSpaceOnUse" x="982" y="117" width="18" height="19">
<path d="M982.943 128.707C982.943 133.625 986.663 136.615 991.252 135.385C995.84 134.156 999.561 129.172 999.56 124.254C999.561 119.336 995.841 116.346 991.252 117.576C986.663 118.805 982.943 123.789 982.943 128.707Z" fill="white"/>
</mask>
<g mask="url(#mask2_512_78)">
<path fill-rule="evenodd" clip-rule="evenodd" d="M993.319 128.347L993.318 128.347C994.335 127.301 995.056 125.886 995.18 124.477C995.389 122.082 993.79 120.614 991.607 121.199C989.424 121.784 987.485 124.2 987.276 126.595C987.152 128.004 987.655 129.091 988.533 129.629L988.533 129.629C986.289 130.887 984.495 133.517 984.266 136.128L984.012 139.031L996.371 135.719L996.625 132.817C996.854 130.205 995.445 128.433 993.319 128.347Z" fill="#0CB9FB"/>
</g>
<mask id="mask3_512_78" style="mask-type:alpha" maskUnits="userSpaceOnUse" x="866" y="167" width="18" height="19">
<path d="M866.604 178.412C866.603 183.33 870.323 186.32 874.912 185.091C879.501 183.861 883.221 178.877 883.221 173.959C883.221 169.041 879.501 166.051 874.912 167.281C870.323 168.51 866.604 173.494 866.604 178.412Z" fill="white"/>
</mask>
<g mask="url(#mask3_512_78)">
<path fill-rule="evenodd" clip-rule="evenodd" d="M877.104 177.941L877.102 177.941C878.119 176.895 878.841 175.48 878.964 174.071C879.174 171.676 877.574 170.208 875.391 170.793C873.209 171.378 871.27 173.794 871.06 176.189C870.937 177.598 871.439 178.685 872.317 179.223L872.317 179.223C870.073 180.481 868.279 183.111 868.05 185.722L867.797 188.625L880.156 185.313L880.41 182.411C880.638 179.799 879.229 178.027 877.104 177.941Z" fill="white"/>
</g>
<path opacity="0.5" fill-rule="evenodd" clip-rule="evenodd" d="M460.136 179.011C460.136 277.876 379.99 358.022 281.125 358.022C182.26 358.022 102.115 277.876 102.115 179.011C102.115 80.1461 182.26 0 281.125 0C379.99 0 460.136 80.1461 460.136 179.011Z" fill="#2C5AA0" fill-opacity="0.5"/>
<path fill-rule="evenodd" clip-rule="evenodd" d="M43.9698 56.9495L44.7321 82.9867L48.6886 218.271C48.9469 227.102 54.9694 234.718 63.5037 237.005L285.848 296.582C298.785 300.048 311.407 290.067 311.016 276.679L307.41 153.371L306.622 126.468C306.546 123.869 304.775 121.627 302.263 120.954L48.8854 53.0617C46.3594 52.3849 43.8934 54.3357 43.9698 56.9495Z" fill="#2C5AA0"/>
<path fill-rule="evenodd" clip-rule="evenodd" d="M43.9699 56.9494L44.2965 68.1064C44.5551 76.9377 50.5776 84.553 59.1116 86.8397L281.456 146.417C294.393 149.883 307.014 139.856 306.622 126.468V126.468C306.546 123.869 304.775 121.627 302.263 120.954L48.8854 53.0617C46.3594 52.3849 43.8934 54.3357 43.9699 56.9494Z" fill="#0CB9FB"/>
<path fill-rule="evenodd" clip-rule="evenodd" d="M50.519 68.251C50.519 71.9384 53.3078 75.6746 56.7481 76.5964C60.1885 77.5183 62.9776 75.2767 62.9776 71.5893C62.9776 67.9019 60.1884 64.1654 56.7483 63.2436C53.3079 62.3218 50.519 64.5636 50.519 68.251Z" fill="#0D182E"/>
<path fill-rule="evenodd" clip-rule="evenodd" d="M70.1365 74.5286C70.1366 78.216 72.9253 81.9522 76.3657 82.874C79.8063 83.7959 82.5951 81.5542 82.5951 77.8669C82.5951 74.1795 79.806 70.443 76.3658 69.5212C72.9255 68.5994 70.1365 70.8412 70.1365 74.5286Z" fill="#2C5AA0"/>
<path fill-rule="evenodd" clip-rule="evenodd" d="M280.2 137.205C280.265 137.223 280.336 137.215 280.398 137.178L294.12 128.948C294.241 128.876 294.281 128.719 294.208 128.597C294.135 128.476 293.978 128.436 293.857 128.509L280.135 136.738C280.013 136.811 279.974 136.968 280.047 137.09C280.082 137.149 280.138 137.189 280.2 137.205Z" fill="white"/>
<path fill-rule="evenodd" clip-rule="evenodd" d="M293.922 140.882C294.002 140.904 294.091 140.886 294.157 140.827C294.264 140.733 294.274 140.572 294.18 140.466L280.458 124.883C280.365 124.777 280.204 124.766 280.097 124.86C279.991 124.954 279.981 125.115 280.074 125.221L293.796 140.804C293.831 140.843 293.875 140.869 293.922 140.882Z" fill="white"/>
<path fill-rule="evenodd" clip-rule="evenodd" d="M56.1023 107.138L69.3904 110.827C71.4939 111.411 73.6725 110.18 74.2566 108.076C74.8404 105.972 73.6089 103.794 71.505 103.21L58.2173 99.5204C56.1139 98.9366 53.9354 100.169 53.3511 102.272C52.7673 104.375 53.9988 106.554 56.1023 107.138ZM112.429 122.777L84.6252 115.057C82.5218 114.473 81.2902 112.294 81.874 110.191C82.4583 108.088 84.6368 106.856 86.7403 107.44L114.544 115.159C116.648 115.743 117.879 117.922 117.296 120.025C116.711 122.129 114.533 123.361 112.429 122.777ZM127.665 127.007L155.468 134.726C157.572 135.31 159.751 134.078 160.334 131.975C160.919 129.871 159.687 127.692 157.583 127.109L129.779 119.389C127.676 118.805 125.497 120.037 124.913 122.14C124.329 124.244 125.561 126.422 127.665 127.007ZM170.703 138.956L198.507 146.676C200.611 147.259 202.79 146.028 203.373 143.924C203.957 141.82 202.726 139.642 200.622 139.058L172.818 131.338C170.715 130.755 168.536 131.986 167.952 134.09C167.368 136.193 168.6 138.372 170.703 138.956Z" fill="#0D182E"/>
<path fill-rule="evenodd" clip-rule="evenodd" d="M142.464 147.654L162.657 153.235C164.761 153.816 166.938 152.582 167.52 150.478C168.101 148.374 166.867 146.196 164.763 145.615L144.57 140.033C142.466 139.452 140.289 140.686 139.707 142.79C139.125 144.895 140.36 147.072 142.464 147.654ZM177.897 157.447L198.09 163.028C200.194 163.61 202.371 162.375 202.952 160.271C203.534 158.167 202.3 155.99 200.196 155.408L180.003 149.827C177.899 149.245 175.721 150.48 175.14 152.584C174.558 154.688 175.793 156.865 177.897 157.447Z" fill="#2C5AA0"/>
<path d="M128.968 143.675L109.893 138.366C107.79 137.78 106.559 135.601 107.145 133.498C107.73 131.395 109.91 130.165 112.013 130.75L131.087 136.059C133.19 136.644 134.421 138.824 133.836 140.927C133.25 143.03 131.071 144.26 128.968 143.675Z" fill="#0D182E"/>
<path fill-rule="evenodd" clip-rule="evenodd" d="M56.0799 123.421L61.7163 124.968C63.8214 125.546 65.9968 124.308 66.5747 122.203C67.1526 120.098 65.9145 117.923 63.8094 117.345L58.1729 115.797C56.0678 115.219 53.8928 116.457 53.3146 118.563C52.7367 120.668 53.9748 122.843 56.0799 123.421ZM76.9635 129.154L97.1659 134.701C99.2711 135.279 101.446 134.041 102.024 131.936C102.602 129.83 101.364 127.655 99.259 127.077L79.0565 121.53C76.9513 120.953 74.7764 122.191 74.1981 124.296C73.6202 126.401 74.8584 128.576 76.9635 129.154Z" fill="#0CB9FB"/>
<path fill-rule="evenodd" clip-rule="evenodd" d="M56.1108 144.501L64.3022 146.756C66.4072 147.336 68.5833 146.099 69.1625 143.994C69.742 141.889 68.5058 139.714 66.4008 139.134L58.2094 136.879C56.1044 136.299 53.9283 137.536 53.3491 139.64C52.7695 141.745 54.0058 143.921 56.1108 144.501ZM79.5466 150.953L99.7449 156.514C101.85 157.094 104.026 155.857 104.605 153.753C105.185 151.648 103.948 149.472 101.844 148.892L81.6451 143.331C79.5401 142.752 77.364 143.988 76.7845 146.093C76.2053 148.198 77.4416 150.374 79.5466 150.953Z" fill="white"/>
<path d="M141.877 167.812L121.704 162.156C119.602 161.567 118.376 159.385 118.966 157.283C119.555 155.181 121.737 153.955 123.839 154.544L144.011 160.2C146.113 160.789 147.339 162.971 146.75 165.073C146.16 167.175 143.979 168.401 141.877 167.812Z" fill="#2C5AA0"/>
<path fill-rule="evenodd" clip-rule="evenodd" d="M56.1022 162.673L91.5236 172.507C93.6271 173.091 95.806 171.859 96.3899 169.756C96.974 167.652 95.7421 165.474 93.6387 164.89L58.2172 155.055C56.1138 154.471 53.9352 155.703 53.351 157.807C52.7672 159.91 53.9987 162.089 56.1022 162.673ZM142.18 186.571L106.759 176.737C104.655 176.153 103.423 173.974 104.008 171.871C104.591 169.767 106.77 168.536 108.874 169.119L144.295 178.954C146.399 179.538 147.63 181.717 147.047 183.82C146.462 185.924 144.284 187.155 142.18 186.571ZM192.837 200.636L157.415 190.801C155.312 190.217 154.08 188.039 154.664 185.935C155.248 183.832 157.427 182.6 159.53 183.184L194.952 193.018C197.055 193.602 198.287 195.781 197.703 197.884C197.119 199.988 194.94 201.22 192.837 200.636Z" fill="#0D182E"/>
<path fill-rule="evenodd" clip-rule="evenodd" d="M56.1066 180.024L76.2992 185.607C78.4034 186.188 80.5807 184.954 81.1623 182.85C81.7441 180.746 80.51 178.569 78.4058 177.987L58.2131 172.405C56.1089 171.823 53.9316 173.057 53.3499 175.161C52.7683 177.265 54.0024 179.443 56.1066 180.024ZM111.731 195.402L91.5388 189.819C89.4346 189.238 88.2005 187.06 88.7822 184.956C89.3639 182.852 91.5412 181.618 93.6454 182.2L113.838 187.782C115.942 188.364 117.176 190.541 116.595 192.645C116.013 194.749 113.836 195.983 111.731 195.402ZM147.164 205.197L126.971 199.615C124.867 199.033 123.633 196.856 124.215 194.752C124.796 192.647 126.974 191.413 129.078 191.995L149.27 197.577C151.375 198.159 152.609 200.336 152.027 202.44C151.445 204.544 149.268 205.779 147.164 205.197Z" fill="white"/>
</svg>
