<svg width="1078" height="436" viewBox="0 0 1078 436" fill="none" xmlns="http://www.w3.org/2000/svg">
<g id="BlitCore Diagram">
<g id="code_screen">
<g id="ui">
<path id="Background" opacity="0.5" fill-rule="evenodd" clip-rule="evenodd" d="M944.401 179.011C944.401 277.876 864.255 358.022 765.39 358.022C666.525 358.022 586.379 277.876 586.379 179.011C586.379 80.1461 666.525 0 765.39 0C864.255 0 944.401 80.1461 944.401 179.011Z" fill="#2C5AA0" fill-opacity="0.5"/>
<g id="ui_screen">
<g id="ui_window">
<g id="Group-53">
<path id="Fill-3" fill-rule="evenodd" clip-rule="evenodd" d="M1033.2 19.8086L1032.44 45.8459L1028.48 181.13C1028.23 189.962 1022.2 197.577 1013.67 199.864L791.324 259.441C778.387 262.908 765.765 252.926 766.156 239.538L769.762 116.23L770.55 89.3267C770.626 86.728 772.397 84.4863 774.909 83.8132L1028.29 15.9209C1030.81 15.244 1033.28 17.1948 1033.2 19.8086Z" fill="#2C5AA0"/>
<path id="Fill-5" fill-rule="evenodd" clip-rule="evenodd" d="M1033.2 19.8086L1032.88 30.9656C1032.62 39.7968 1026.59 47.4121 1018.06 49.6988L795.716 109.276C782.779 112.742 770.158 102.715 770.55 89.3266V89.3266C770.626 86.728 772.397 84.4862 774.909 83.8131L1028.29 15.9208C1030.81 15.244 1033.28 17.1948 1033.2 19.8086Z" fill="#0CB9FB"/>
<path id="Fill-7" fill-rule="evenodd" clip-rule="evenodd" d="M796.332 94.0872C796.332 97.7746 793.543 101.511 790.103 102.433C786.663 103.354 783.874 101.113 783.874 97.4255C783.874 93.7381 786.663 90.0016 790.103 89.0798C793.543 88.158 796.332 90.3998 796.332 94.0872Z" fill="#0D182E"/>
<path id="Fill-9" fill-rule="evenodd" clip-rule="evenodd" d="M819.856 87.7841C819.856 91.4715 817.067 95.2077 813.626 96.1295C810.186 97.0514 807.397 94.8097 807.397 91.1224C807.397 87.435 810.186 83.6985 813.626 82.7767C817.067 81.8549 819.856 84.0967 819.856 87.7841Z" fill="#2C5AA0"/>
<path id="Fill-11" fill-rule="evenodd" clip-rule="evenodd" d="M1014.16 41.6812C1014.1 41.6985 1014.03 41.6906 1013.97 41.6534L1000.24 33.4243C1000.12 33.3518 1000.08 33.1944 1000.16 33.0731C1000.23 32.9522 1000.39 32.9122 1000.51 32.9853L1014.23 41.2141C1014.35 41.2868 1014.39 41.4442 1014.32 41.5655C1014.28 41.6248 1014.23 41.6645 1014.16 41.6812Z" fill="white"/>
<path id="Fill-13" fill-rule="evenodd" clip-rule="evenodd" d="M1000.44 45.3579C1000.36 45.3794 1000.27 45.3617 1000.21 45.3027C1000.1 45.2093 1000.09 45.0477 1000.18 44.9413L1013.91 29.3589C1014 29.2526 1014.16 29.2422 1014.27 29.3359C1014.37 29.4294 1014.38 29.591 1014.29 29.6971L1000.57 45.2799C1000.53 45.3193 1000.49 45.3453 1000.44 45.3579Z" fill="white"/>
<path id="Fill-15" fill-rule="evenodd" clip-rule="evenodd" d="M1014.58 68.0582L1012.46 167.9L1012.13 183.878C1012.02 188.996 1008.54 193.426 1003.6 194.751L858.575 233.61C854.35 234.742 850.22 231.503 850.312 227.13L852.795 109.786C852.898 104.943 856.187 100.749 860.865 99.4956L1005.31 60.791C1010.05 59.5215 1014.68 63.1539 1014.58 68.0582Z" fill="#0D182E"/>
<path id="Fill-17" fill-rule="evenodd" clip-rule="evenodd" d="M784.465 127.707L781.972 245.533C781.88 249.861 785.967 253.066 790.147 251.945L831.133 240.963C835.814 239.709 839.104 235.514 839.207 230.668L841.656 114.916C841.766 109.749 836.886 105.921 831.893 107.259L792.15 117.908C787.695 119.102 784.563 123.095 784.465 127.707Z" fill="#0D182E"/>
<path id="Fill-19" fill-rule="evenodd" clip-rule="evenodd" d="M829.009 160.815L795.5 169.794C794.735 169.999 793.949 169.545 793.744 168.78C793.538 168.015 793.992 167.228 794.757 167.023L828.266 158.045C829.031 157.84 829.818 158.294 830.023 159.059C830.228 159.824 829.774 160.61 829.009 160.815Z" fill="#2C5AA0"/>
<path id="Fill-21" fill-rule="evenodd" clip-rule="evenodd" d="M995.662 81.4626L893.213 108.914C892.448 109.119 891.662 108.665 891.457 107.9C891.252 107.134 891.706 106.348 892.471 106.143L994.92 78.692C995.685 78.487 996.471 78.9411 996.676 79.7063C996.881 80.4713 996.427 81.2576 995.662 81.4626Z" fill="#2C5AA0"/>
<path id="Fill-23" fill-rule="evenodd" clip-rule="evenodd" d="M971.974 122.508L895.913 142.888C895.148 143.093 894.362 142.639 894.157 141.874C893.952 141.109 894.405 140.323 895.171 140.118L971.231 119.737C971.997 119.532 972.783 119.986 972.988 120.751C973.193 121.516 972.739 122.303 971.974 122.508Z" fill="#2C5AA0"/>
<path id="Fill-25" fill-rule="evenodd" clip-rule="evenodd" d="M937.618 105.92L893.246 117.81C892.481 118.015 891.694 117.561 891.489 116.796C891.284 116.031 891.738 115.244 892.503 115.039L936.876 103.15C937.641 102.945 938.427 103.399 938.632 104.164C938.837 104.929 938.384 105.715 937.618 105.92Z" fill="#2C5AA0"/>
<path id="Fill-27" fill-rule="evenodd" clip-rule="evenodd" d="M996.743 141.731L894.294 169.182C893.529 169.387 892.743 168.933 892.538 168.168C892.333 167.402 892.787 166.616 893.552 166.411L996.001 138.96C996.766 138.755 997.552 139.209 997.757 139.974C997.962 140.739 997.508 141.526 996.743 141.731Z" fill="#2C5AA0"/>
<path id="Fill-29" fill-rule="evenodd" clip-rule="evenodd" d="M938.699 166.188L894.327 178.078C893.561 178.283 892.775 177.829 892.57 177.064C892.365 176.299 892.819 175.513 893.584 175.307L937.957 163.418C938.722 163.213 939.508 163.667 939.713 164.432C939.918 165.197 939.464 165.983 938.699 166.188Z" fill="#2C5AA0"/>
<path id="Fill-31" fill-rule="evenodd" clip-rule="evenodd" d="M820.311 184.633L801.695 189.621C801.559 189.658 801.418 189.577 801.382 189.44C801.345 189.303 801.426 189.163 801.563 189.126L820.179 184.138C820.315 184.102 820.456 184.183 820.492 184.32C820.529 184.456 820.448 184.597 820.311 184.633Z" fill="#2C5AA0"/>
<path id="Fill-33" fill-rule="evenodd" clip-rule="evenodd" d="M819.91 197.075L801.295 202.063C801.158 202.1 801.017 202.019 800.981 201.882C800.944 201.745 801.025 201.605 801.162 201.568L819.778 196.58C819.914 196.544 820.055 196.625 820.091 196.761C820.128 196.898 820.047 197.038 819.91 197.075Z" fill="#2C5AA0"/>
<path id="Fill-35" fill-rule="evenodd" clip-rule="evenodd" d="M820.198 209.332L801.583 214.32C801.446 214.357 801.306 214.276 801.269 214.139C801.232 214.002 801.313 213.862 801.45 213.825L820.066 208.837C820.203 208.801 820.343 208.882 820.379 209.019C820.416 209.155 820.335 209.295 820.198 209.332Z" fill="#2C5AA0"/>
<path id="Fill-37" fill-rule="evenodd" clip-rule="evenodd" d="M826.483 229.052L792.975 238.03C792.838 238.067 792.698 237.986 792.661 237.849C792.624 237.712 792.705 237.572 792.842 237.535L826.351 228.557C826.487 228.52 826.628 228.601 826.664 228.738C826.701 228.875 826.62 229.015 826.483 229.052Z" fill="#2C5AA0"/>
<path id="Fill-39" fill-rule="evenodd" clip-rule="evenodd" d="M1012.53 168.148L850.714 211.506C850.578 211.543 850.438 211.462 850.401 211.325C850.364 211.188 850.445 211.048 850.582 211.011L1012.4 167.653C1012.53 167.616 1012.67 167.697 1012.71 167.834C1012.75 167.971 1012.67 168.111 1012.53 168.148Z" fill="#2C5AA0"/>
<path id="Fill-41" fill-rule="evenodd" clip-rule="evenodd" d="M962.814 188.266L867.013 213.936C865.147 214.436 863.829 216.099 863.769 218.03C863.677 220.966 866.443 223.158 869.28 222.398L965.081 196.728C966.947 196.228 968.265 194.565 968.325 192.634C968.417 189.699 965.651 187.506 962.814 188.266Z" fill="white"/>
<path id="Fill-43" fill-rule="evenodd" clip-rule="evenodd" d="M1012.46 167.9L1012.13 183.877C1012.02 188.996 1008.54 193.426 1003.6 194.751L980.776 200.866L981.504 176.196L1012.46 167.9Z" fill="#0CB9FB"/>
<path id="Fill-45" fill-rule="evenodd" clip-rule="evenodd" d="M993.928 189.264C993.831 189.29 993.724 189.257 993.659 189.173C993.572 189.06 993.593 188.9 993.705 188.813L1001.08 183.135L992.908 180.424C992.774 180.379 992.702 180.234 992.746 180.1C992.791 179.966 992.936 179.894 993.07 179.937L1001.7 182.801C1001.79 182.831 1001.85 182.908 1001.87 183.001C1001.89 183.095 1001.85 183.189 1001.77 183.247L994.018 189.219C993.99 189.24 993.96 189.255 993.928 189.264Z" fill="white"/>
<path id="Fill-47" fill-rule="evenodd" clip-rule="evenodd" d="M884.11 174.229C884.11 179.146 880.39 184.13 875.801 185.36C871.213 186.589 867.493 183.599 867.493 178.681C867.493 173.763 871.213 168.779 875.801 167.55C880.39 166.32 884.11 169.31 884.11 174.229Z" fill="#2C5AA0"/>
<path id="Fill-49" fill-rule="evenodd" clip-rule="evenodd" d="M826.602 134.437C826.602 142.969 820.149 151.615 812.188 153.748C804.228 155.881 797.774 150.694 797.774 142.161C797.774 133.629 804.228 124.983 812.188 122.85C820.149 120.717 826.602 125.905 826.602 134.437Z" fill="white"/>
<path id="Fill-51" fill-rule="evenodd" clip-rule="evenodd" d="M826.602 134.437C826.602 142.969 820.149 151.615 812.188 153.748C804.228 155.881 797.774 150.694 797.774 142.161C797.774 133.629 804.228 124.983 812.188 122.85C820.149 120.717 826.602 125.905 826.602 134.437Z" fill="#2C5AA0"/>
</g>
<g id="Group-56">
<mask id="mask0_512_78" style="mask-type:alpha" maskUnits="userSpaceOnUse" x="797" y="122" width="30" height="33">
<g id="masterspot-illustrationchatting-mask-2">
<path id="Vector" d="M797.774 142.335C797.774 150.867 804.227 156.054 812.188 153.921C820.148 151.788 826.602 143.142 826.602 134.61C826.602 126.078 820.148 120.891 812.188 123.024C804.227 125.157 797.774 133.802 797.774 142.335Z" fill="white"/>
</g>
</mask>
<g mask="url(#mask0_512_78)">
<path id="Fill-54" fill-rule="evenodd" clip-rule="evenodd" d="M815.79 140.246L815.788 140.247C817.503 138.482 818.721 136.095 818.928 133.72C819.282 129.679 816.584 127.203 812.902 128.19C809.221 129.176 805.95 133.251 805.597 137.292C805.389 139.667 806.237 141.501 807.718 142.409L807.717 142.409C803.932 144.53 800.906 148.967 800.521 153.371L800.092 158.266L820.938 152.68L821.367 147.785C821.752 143.381 819.375 140.392 815.79 140.246Z" fill="#0CB9FB"/>
</g>
</g>
<path id="Fill-57" fill-rule="evenodd" clip-rule="evenodd" d="M883.029 124.822C883.029 129.74 879.309 134.724 874.72 135.953C870.132 137.183 866.412 134.192 866.412 129.274C866.412 124.356 870.131 119.372 874.72 118.143C879.309 116.913 883.029 119.904 883.029 124.822Z" fill="#2C5AA0"/>
<g id="Group-61">
<mask id="mask1_512_78" style="mask-type:alpha" maskUnits="userSpaceOnUse" x="866" y="117" width="18" height="20">
<g id="masterspot-illustrationchatting-mask-4">
<path id="Vector_2" d="M866.412 129.274C866.412 134.192 870.132 137.183 874.72 135.953C879.309 134.724 883.029 129.74 883.029 124.822C883.029 119.904 879.309 116.913 874.72 118.143C870.131 119.372 866.412 124.356 866.412 129.274Z" fill="white"/>
</g>
</mask>
<g mask="url(#mask1_512_78)">
<path id="Fill-59" fill-rule="evenodd" clip-rule="evenodd" d="M876.912 128.803L876.91 128.803C877.927 127.757 878.649 126.342 878.772 124.934C878.982 122.538 877.382 121.07 875.2 121.655C873.017 122.24 871.078 124.656 870.868 127.051C870.745 128.46 871.247 129.547 872.126 130.086L872.125 130.086C869.881 131.343 868.087 133.973 867.859 136.584L867.605 139.487L879.964 136.175L880.218 133.273C880.446 130.662 879.037 128.89 876.912 128.803Z" fill="white"/>
</g>
</g>
<path id="Fill-62" fill-rule="evenodd" clip-rule="evenodd" d="M1000.45 124.254C1000.45 129.172 996.729 134.156 992.141 135.386C987.552 136.615 983.832 133.625 983.832 128.707C983.832 123.789 987.552 118.805 992.141 117.576C996.729 116.346 1000.45 119.336 1000.45 124.254Z" fill="#2C5AA0"/>
<g id="Group-66">
<mask id="mask2_512_78" style="mask-type:alpha" maskUnits="userSpaceOnUse" x="983" y="117" width="18" height="19">
<g id="masterspot-illustrationchatting-mask-6">
<path id="Vector_3" d="M983.832 128.707C983.832 133.625 987.552 136.615 992.141 135.385C996.729 134.156 1000.45 129.172 1000.45 124.254C1000.45 119.336 996.73 116.346 992.141 117.576C987.552 118.805 983.832 123.789 983.832 128.707Z" fill="white"/>
</g>
</mask>
<g mask="url(#mask2_512_78)">
<path id="Fill-64" fill-rule="evenodd" clip-rule="evenodd" d="M994.208 128.347L994.207 128.347C995.224 127.301 995.945 125.886 996.069 124.477C996.278 122.082 994.679 120.614 992.496 121.199C990.313 121.784 988.374 124.2 988.164 126.595C988.041 128.004 988.544 129.091 989.422 129.629L989.422 129.629C987.178 130.887 985.383 133.517 985.155 136.128L984.901 139.031L997.26 135.719L997.514 132.817C997.743 130.205 996.334 128.433 994.208 128.347Z" fill="#0CB9FB"/>
</g>
</g>
<g id="Group-69">
<mask id="mask3_512_78" style="mask-type:alpha" maskUnits="userSpaceOnUse" x="867" y="167" width="18" height="19">
<g id="masterspot-illustrationchatting-mask-8">
<path id="Vector_4" d="M867.493 178.412C867.492 183.33 871.212 186.32 875.801 185.091C880.39 183.861 884.11 178.877 884.11 173.959C884.109 169.041 880.389 166.051 875.801 167.281C871.212 168.51 867.493 173.494 867.493 178.412Z" fill="white"/>
</g>
</mask>
<g mask="url(#mask3_512_78)">
<path id="Fill-67" fill-rule="evenodd" clip-rule="evenodd" d="M877.993 177.941L877.991 177.941C879.008 176.895 879.73 175.48 879.853 174.071C880.062 171.676 878.463 170.208 876.28 170.793C874.098 171.378 872.158 173.794 871.949 176.189C871.826 177.598 872.328 178.685 873.206 179.223L873.206 179.223C870.962 180.481 869.168 183.111 868.939 185.722L868.685 188.625L881.045 185.313L881.299 182.411C881.527 179.799 880.118 178.027 877.993 177.941Z" fill="white"/>
</g>
</g>
</g>
</g>
</g>
<g id="code">
<path id="Background_2" opacity="0.5" fill-rule="evenodd" clip-rule="evenodd" d="M461.025 256.011C461.025 354.876 380.879 435.022 282.014 435.022C183.149 435.022 103.004 354.876 103.004 256.011C103.004 157.146 183.149 76.9999 282.014 76.9999C380.879 76.9999 461.025 157.146 461.025 256.011Z" fill="#2C5AA0" fill-opacity="0.5"/>
<g id="code_window">
<path id="Fill-3_2" fill-rule="evenodd" clip-rule="evenodd" d="M44.8588 133.949L45.621 159.987L49.5775 295.271C49.8358 304.102 55.8584 311.718 64.3926 314.005L286.737 373.582C299.674 377.048 312.296 367.067 311.905 353.679L308.299 230.371L307.511 203.467C307.435 200.869 305.664 198.627 303.152 197.954L49.7743 130.062C47.2483 129.385 44.7823 131.336 44.8588 133.949Z" fill="#2C5AA0"/>
<g id="Group 26">
<path id="Fill-5_2" fill-rule="evenodd" clip-rule="evenodd" d="M44.8588 133.949L45.1855 145.106C45.444 153.938 51.4665 161.553 60.0005 163.84L282.345 223.417C295.282 226.883 307.903 216.856 307.511 203.467V203.467C307.435 200.869 305.664 198.627 303.152 197.954L49.7743 130.062C47.2483 129.385 44.7824 131.336 44.8588 133.949Z" fill="#0CB9FB"/>
<path id="Fill-7_2" fill-rule="evenodd" clip-rule="evenodd" d="M51.4079 145.251C51.4079 148.938 54.1967 152.674 57.6371 153.596C61.0774 154.518 63.8665 152.277 63.8665 148.589C63.8665 144.902 61.0774 141.165 57.6372 140.244C54.1968 139.322 51.4079 141.564 51.4079 145.251Z" fill="#0D182E"/>
<path id="Fill-9_2" fill-rule="evenodd" clip-rule="evenodd" d="M71.0255 151.528C71.0255 155.216 73.8142 158.952 77.2546 159.874C80.6952 160.796 83.484 158.554 83.484 154.867C83.484 151.179 80.6949 147.443 77.2547 146.521C73.8144 145.599 71.0254 147.841 71.0255 151.528Z" fill="#2C5AA0"/>
<g id="Group 25">
<path id="Fill-11_2" fill-rule="evenodd" clip-rule="evenodd" d="M281.089 214.205C281.154 214.223 281.225 214.215 281.287 214.177L295.009 205.948C295.13 205.876 295.17 205.718 295.097 205.597C295.024 205.476 294.867 205.436 294.746 205.509L281.023 213.738C280.902 213.811 280.863 213.968 280.936 214.09C280.971 214.149 281.027 214.189 281.089 214.205Z" fill="white"/>
<path id="Fill-13_2" fill-rule="evenodd" clip-rule="evenodd" d="M294.811 217.882C294.891 217.903 294.98 217.886 295.046 217.827C295.153 217.733 295.163 217.572 295.069 217.465L281.347 201.883C281.254 201.777 281.093 201.766 280.986 201.86C280.88 201.953 280.87 202.115 280.963 202.221L294.685 217.804C294.72 217.843 294.764 217.869 294.811 217.882Z" fill="white"/>
</g>
</g>
<g id="code_2">
<path id="Path_3" fill-rule="evenodd" clip-rule="evenodd" d="M56.9912 184.138L70.2794 187.827C72.3828 188.411 74.5614 187.18 75.1455 185.076C75.7294 182.972 74.4978 180.794 72.394 180.21L59.1062 176.52C57.0028 175.936 54.8243 177.168 54.2401 179.272C53.6562 181.375 54.8877 183.554 56.9912 184.138ZM113.318 199.776L85.5141 192.057C83.4107 191.473 82.1791 189.294 82.763 187.191C83.3472 185.087 85.5257 183.855 87.6292 184.44L115.433 192.159C117.537 192.743 118.768 194.922 118.184 197.025C117.6 199.129 115.422 200.361 113.318 199.776ZM128.553 204.007L156.357 211.726C158.461 212.31 160.64 211.078 161.223 208.975C161.808 206.871 160.576 204.692 158.472 204.109L130.668 196.389C128.565 195.805 126.386 197.037 125.802 199.14C125.218 201.244 126.45 203.422 128.553 204.007ZM171.592 215.956L199.396 223.675C201.5 224.259 203.678 223.028 204.262 220.924C204.846 218.82 203.614 216.642 201.511 216.058L173.707 208.338C171.604 207.754 169.425 208.986 168.841 211.089C168.257 213.193 169.489 215.372 171.592 215.956Z" fill="#0D182E"/>
<path id="Path Copy" fill-rule="evenodd" clip-rule="evenodd" d="M143.353 224.653L163.546 230.234C165.65 230.816 167.827 229.582 168.409 227.478C168.99 225.374 167.756 223.196 165.652 222.615L145.459 217.033C143.355 216.452 141.178 217.686 140.596 219.79C140.014 221.894 141.249 224.072 143.353 224.653ZM178.786 234.447L198.979 240.028C201.083 240.61 203.26 239.375 203.841 237.271C204.423 235.167 203.189 232.99 201.085 232.408L180.892 226.827C178.788 226.245 176.61 227.479 176.029 229.584C175.447 231.688 176.681 233.865 178.786 234.447Z" fill="#2C5AA0"/>
<path id="Path Copy_2" d="M129.857 220.675L110.782 215.366C108.679 214.78 107.448 212.601 108.034 210.498C108.619 208.394 110.799 207.164 112.902 207.75L131.976 213.059C134.079 213.644 135.31 215.824 134.725 217.927C134.139 220.03 131.96 221.26 129.857 220.675Z" fill="#0D182E"/>
<path id="Path Copy_3" fill-rule="evenodd" clip-rule="evenodd" d="M56.9688 200.421L62.6052 201.968C64.7103 202.546 66.8857 201.308 67.4636 199.203C68.0415 197.098 66.8034 194.923 64.6983 194.345L59.0619 192.797C56.9567 192.219 54.7817 193.457 54.2035 195.563C53.6256 197.668 54.8637 199.843 56.9688 200.421ZM77.8524 206.154L98.0548 211.7C100.16 212.279 102.335 211.041 102.913 208.935C103.491 206.83 102.253 204.655 100.148 204.077L79.9454 198.53C77.8403 197.952 75.6653 199.191 75.087 201.296C74.5091 203.401 75.7473 205.576 77.8524 206.154Z" fill="#0CB9FB"/>
<path id="Path Copy 2" fill-rule="evenodd" clip-rule="evenodd" d="M56.9997 221.501L65.1911 223.756C67.2962 224.336 69.4722 223.099 70.0514 220.994C70.6309 218.889 69.3947 216.714 67.2897 216.134L59.0983 213.879C56.9933 213.299 54.8172 214.536 54.238 216.64C53.6584 218.745 54.8947 220.921 56.9997 221.501ZM80.4355 227.953L100.634 233.514C102.738 234.094 104.915 232.857 105.494 230.752C106.074 228.648 104.837 226.472 102.732 225.892L82.5341 220.331C80.429 219.752 78.2529 220.988 77.6734 223.093C77.0942 225.197 78.3305 227.374 80.4355 227.953Z" fill="white"/>
<path id="Path Copy 2_2" d="M142.766 244.812L122.593 239.156C120.491 238.567 119.265 236.385 119.855 234.283C120.444 232.181 122.626 230.955 124.728 231.544L144.9 237.199C147.002 237.789 148.228 239.971 147.639 242.073C147.049 244.175 144.868 245.401 142.766 244.812Z" fill="#2C5AA0"/>
<path id="Path Copy 3" fill-rule="evenodd" clip-rule="evenodd" d="M56.9911 239.673L92.4126 249.507C94.516 250.091 96.695 248.859 97.2788 246.756C97.863 244.652 96.631 242.473 94.5276 241.89L59.1062 232.055C57.0027 231.471 54.8241 232.703 54.2399 234.806C53.6561 236.91 54.8876 239.088 56.9911 239.673ZM143.069 263.571L107.648 253.737C105.544 253.153 104.312 250.974 104.897 248.87C105.48 246.767 107.659 245.536 109.763 246.119L145.184 255.954C147.288 256.538 148.519 258.717 147.935 260.82C147.351 262.923 145.173 264.155 143.069 263.571ZM193.726 277.636L158.304 267.801C156.201 267.217 154.969 265.038 155.553 262.935C156.137 260.832 158.316 259.6 160.419 260.183L195.841 270.018C197.944 270.602 199.176 272.781 198.592 274.884C198.008 276.988 195.829 278.219 193.726 277.636Z" fill="#0D182E"/>
<path id="Path Copy 4" fill-rule="evenodd" clip-rule="evenodd" d="M56.9955 257.024L77.1881 262.607C79.2923 263.188 81.4696 261.954 82.0513 259.85C82.633 257.746 81.3989 255.568 79.2947 254.987L59.1021 249.404C56.9978 248.823 54.8205 250.057 54.2388 252.161C53.6572 254.265 54.8913 256.443 56.9955 257.024ZM112.62 272.402L92.4278 266.819C90.3235 266.238 89.0894 264.06 89.6711 261.956C90.2528 259.852 92.4301 258.618 94.5343 259.199L114.727 264.782C116.831 265.363 118.065 267.541 117.484 269.645C116.902 271.749 114.725 272.983 112.62 272.402ZM148.053 282.197L127.86 276.615C125.756 276.033 124.522 273.856 125.103 271.752C125.685 269.647 127.862 268.413 129.967 268.995L150.159 274.577C152.264 275.159 153.498 277.336 152.916 279.44C152.334 281.544 150.157 282.779 148.053 282.197Z" fill="white"/>
</g>
</g>
</g>
</g>
</g>
</svg>
