<svg width="733" height="521" viewBox="0 0 733 521" fill="none" xmlns="http://www.w3.org/2000/svg">
<path d="M684.635 0.0216064H560.422C556.233 0.0216064 552.837 3.41775 552.837 7.6071V257.928C552.837 262.118 556.233 265.514 560.422 265.514H684.635C688.824 265.514 692.22 262.118 692.22 257.928V7.6071C692.22 3.41775 688.824 0.0216064 684.635 0.0216064Z" fill="#15294A"/>
<path d="M622.054 249.395C629.909 249.395 636.277 243.027 636.277 235.172C636.277 227.317 629.909 220.949 622.054 220.949C614.199 220.949 607.832 227.317 607.832 235.172C607.832 243.027 614.199 249.395 622.054 249.395Z" fill="#2C5AA0"/>
<path d="M609.728 18.0371C610.775 18.0371 611.624 17.1881 611.624 16.1408C611.624 15.0934 610.775 14.2444 609.728 14.2444C608.681 14.2444 607.832 15.0934 607.832 16.1408C607.832 17.1881 608.681 18.0371 609.728 18.0371Z" fill="white"/>
<path d="M634.381 14.2444H618.262C617.214 14.2444 616.365 15.0934 616.365 16.1408C616.365 17.1881 617.214 18.0371 618.262 18.0371H634.381C635.428 18.0371 636.277 17.1881 636.277 16.1408C636.277 15.0934 635.428 14.2444 634.381 14.2444Z" fill="#0CB9FB"/>
<path d="M675.153 26.5708H569.904C567.81 26.5708 566.111 28.2689 566.111 30.3635V70.9124C566.111 73.0071 567.81 74.7052 569.904 74.7052H675.153C677.248 74.7052 678.946 73.0071 678.946 70.9124V30.3635C678.946 28.2689 677.248 26.5708 675.153 26.5708Z" fill="#2C5AA0"/>
<path d="M629.64 41.0098H577.49C575.919 41.0098 574.645 42.2834 574.645 43.8544V45.3848C574.645 46.9558 575.919 48.2293 577.49 48.2293H629.64C631.211 48.2293 632.485 46.9558 632.485 45.3848V43.8544C632.485 42.2834 631.211 41.0098 629.64 41.0098Z" fill="#0CB9FB"/>
<path d="M610.624 53.0422H577.49C575.919 53.0422 574.645 54.3158 574.645 55.8868V57.4172C574.645 58.9882 575.919 60.2617 577.49 60.2617H610.624C612.195 60.2617 613.469 58.9882 613.469 57.4172V55.8868C613.469 54.3158 612.195 53.0422 610.624 53.0422Z" fill="white"/>
<path d="M666.887 57.2731C670.552 57.2731 673.524 54.3015 673.524 50.6358C673.524 46.9701 670.552 43.9985 666.887 43.9985C663.221 43.9985 660.249 46.9701 660.249 50.6358C660.249 54.3015 663.221 57.2731 666.887 57.2731Z" fill="#4186EC"/>
<path d="M666.887 53.4804C668.458 53.4804 669.731 52.2068 669.731 50.6358C669.731 49.0648 668.458 47.7913 666.887 47.7913C665.316 47.7913 664.042 49.0648 664.042 50.6358C664.042 52.2068 665.316 53.4804 666.887 53.4804Z" fill="#4186EC"/>
<path d="M675.153 82.5138H569.904C567.809 82.5138 566.111 84.2119 566.111 86.3065V114.473C566.111 116.568 567.809 118.266 569.904 118.266H675.153C677.247 118.266 678.946 116.568 678.946 114.473V86.3065C678.946 84.2119 677.247 82.5138 675.153 82.5138Z" fill="#2C5AA0"/>
<path d="M658.248 93.2416H605.773C604.291 93.2416 603.091 94.4423 603.091 95.9235C603.091 97.4047 604.291 98.6055 605.773 98.6055H658.248C659.729 98.6055 660.93 97.4047 660.93 95.9235C660.93 94.4423 659.729 93.2416 658.248 93.2416Z" fill="#0CB9FB"/>
<path d="M639.232 102.181H605.773C604.291 102.181 603.091 103.382 603.091 104.863C603.091 106.344 604.291 107.545 605.773 107.545H639.232C640.714 107.545 641.914 106.344 641.914 104.863C641.914 103.382 640.714 102.181 639.232 102.181Z" fill="white"/>
<path d="M586.023 111.772C592.307 111.772 597.402 106.678 597.402 100.394C597.402 94.1097 592.307 89.0155 586.023 89.0155C579.739 89.0155 574.645 94.1097 574.645 100.394C574.645 106.678 579.739 111.772 586.023 111.772Z" fill="white"/>
<path d="M675.153 126.13H569.904C567.809 126.13 566.111 127.828 566.111 129.923V158.09C566.111 160.185 567.809 161.883 569.904 161.883H675.153C677.247 161.883 678.946 160.185 678.946 158.09V129.923C678.946 127.828 677.247 126.13 675.153 126.13Z" fill="#2C5AA0"/>
<path d="M629.803 136.858H577.327C575.846 136.858 574.645 138.059 574.645 139.54C574.645 141.021 575.846 142.222 577.327 142.222H629.803C631.284 142.222 632.484 141.021 632.484 139.54C632.484 138.059 631.284 136.858 629.803 136.858Z" fill="#0CB9FB"/>
<path d="M610.787 145.798H577.327C575.846 145.798 574.645 146.998 574.645 148.48C574.645 149.961 575.846 151.162 577.327 151.162H610.787C612.268 151.162 613.469 149.961 613.469 148.48C613.469 146.998 612.268 145.798 610.787 145.798Z" fill="white"/>
<path d="M666.887 150.648C670.552 150.648 673.524 147.676 673.524 144.01C673.524 140.345 670.552 137.373 666.887 137.373C663.221 137.373 660.249 140.345 660.249 144.01C660.249 147.676 663.221 150.648 666.887 150.648Z" fill="#15294A"/>
<path d="M666.887 146.855C668.458 146.855 669.731 145.581 669.731 144.01C669.731 142.439 668.458 141.166 666.887 141.166C665.316 141.166 664.042 142.439 664.042 144.01C664.042 145.581 665.316 146.855 666.887 146.855Z" fill="#15294A"/>
<path d="M675.153 169.747H569.904C567.809 169.747 566.111 171.445 566.111 173.54V201.706C566.111 203.801 567.809 205.499 569.904 205.499H675.153C677.247 205.499 678.946 203.801 678.946 201.706V173.54C678.946 171.445 677.247 169.747 675.153 169.747Z" fill="#2C5AA0"/>
<path d="M658.248 180.475H605.773C604.291 180.475 603.091 181.675 603.091 183.157C603.091 184.638 604.291 185.839 605.773 185.839H658.248C659.729 185.839 660.93 184.638 660.93 183.157C660.93 181.675 659.729 180.475 658.248 180.475Z" fill="#0CB9FB"/>
<path d="M639.232 189.414H605.773C604.291 189.414 603.091 190.615 603.091 192.096C603.091 193.577 604.291 194.778 605.773 194.778H639.232C640.714 194.778 641.914 193.577 641.914 192.096C641.914 190.615 640.714 189.414 639.232 189.414Z" fill="white"/>
<path d="M586.023 199.005C592.307 199.005 597.402 193.911 597.402 187.627C597.402 181.343 592.307 176.249 586.023 176.249C579.739 176.249 574.645 181.343 574.645 187.627C574.645 193.911 579.739 199.005 586.023 199.005Z" fill="white"/>
<path d="M218.127 21.8299H82.5365C78.3472 21.8299 74.951 25.226 74.951 29.4154V300.597C74.951 304.786 78.3472 308.182 82.5365 308.182H218.127C222.317 308.182 225.713 304.786 225.713 300.597V29.4154C225.713 25.226 222.317 21.8299 218.127 21.8299Z" fill="#15294A"/>
<path d="M149.858 290.167C157.713 290.167 164.08 283.799 164.08 275.944C164.08 268.089 157.713 261.721 149.858 261.721C142.003 261.721 135.635 268.089 135.635 275.944C135.635 283.799 142.003 290.167 149.858 290.167Z" fill="#2C5AA0"/>
<path d="M137.531 40.7937C138.579 40.7937 139.428 39.9446 139.428 38.8973C139.428 37.85 138.579 37.0009 137.531 37.0009C136.484 37.0009 135.635 37.85 135.635 38.8973C135.635 39.9446 136.484 40.7937 137.531 40.7937Z" fill="white"/>
<path d="M162.184 37.0009H146.065C145.018 37.0009 144.169 37.85 144.169 38.8973C144.169 39.9446 145.018 40.7937 146.065 40.7937H162.184C163.231 40.7937 164.08 39.9446 164.08 38.8973C164.08 37.85 163.231 37.0009 162.184 37.0009Z" fill="#0CB9FB"/>
<path d="M208.645 48.3791H92.0183C89.9237 48.3791 88.2256 50.0772 88.2256 52.1718V95.7884C88.2256 97.8831 89.9237 99.5812 92.0183 99.5812H208.645C210.74 99.5812 212.438 97.8831 212.438 95.7884V52.1718C212.438 50.0772 210.74 48.3791 208.645 48.3791Z" fill="#2C5AA0"/>
<path d="M191.578 63.7396H128.05C126.479 63.7396 125.205 65.0132 125.205 66.5842V68.5754C125.205 70.1464 126.479 71.4199 128.05 71.4199H191.578C193.149 71.4199 194.423 70.1464 194.423 68.5754V66.5842C194.423 65.0132 193.149 63.7396 191.578 63.7396Z" fill="#0CB9FB"/>
<path d="M168.822 76.5402H128.05C126.479 76.5402 125.205 77.8137 125.205 79.3847V81.3759C125.205 82.9469 126.479 84.2205 128.05 84.2205H168.822C170.393 84.2205 171.666 82.9469 171.666 81.3759V79.3847C171.666 77.8137 170.393 76.5402 168.822 76.5402Z" fill="white"/>
<path d="M108.137 85.3583C114.421 85.3583 119.516 80.2641 119.516 73.98C119.516 67.696 114.421 62.6018 108.137 62.6018C101.853 62.6018 96.7592 67.696 96.7592 73.98C96.7592 80.2641 101.853 85.3583 108.137 85.3583Z" fill="white"/>
<path d="M208.645 107.167H92.0183C89.9237 107.167 88.2256 108.865 88.2256 110.959V143.198C88.2256 145.292 89.9237 146.99 92.0183 146.99H208.645C210.74 146.99 212.438 145.292 212.438 143.198V110.959C212.438 108.865 210.74 107.167 208.645 107.167Z" fill="#2C5AA0"/>
<path d="M191.578 119.114H128.05C126.479 119.114 125.205 120.387 125.205 121.958V122.243C125.205 123.814 126.479 125.087 128.05 125.087H191.578C193.149 125.087 194.423 123.814 194.423 122.243V121.958C194.423 120.387 193.149 119.114 191.578 119.114Z" fill="#0CB9FB"/>
<path d="M168.822 129.07H128.05C126.479 129.07 125.205 130.343 125.205 131.914V132.199C125.205 133.77 126.479 135.043 128.05 135.043H168.822C170.393 135.043 171.666 133.77 171.666 132.199V131.914C171.666 130.343 170.393 129.07 168.822 129.07Z" fill="white"/>
<path d="M108.137 138.457C114.421 138.457 119.516 133.363 119.516 127.078C119.516 120.794 114.421 115.7 108.137 115.7C101.853 115.7 96.7592 120.794 96.7592 127.078C96.7592 133.363 101.853 138.457 108.137 138.457Z" fill="white"/>
<path d="M208.645 154.576H92.0183C89.9237 154.576 88.2256 156.274 88.2256 158.369V190.607C88.2256 192.702 89.9237 194.4 92.0183 194.4H208.645C210.74 194.4 212.438 192.702 212.438 190.607V158.369C212.438 156.274 210.74 154.576 208.645 154.576Z" fill="#2C5AA0"/>
<path d="M191.578 166.523H128.05C126.479 166.523 125.205 167.797 125.205 169.368V169.652C125.205 171.223 126.479 172.497 128.05 172.497H191.578C193.149 172.497 194.423 171.223 194.423 169.652V169.368C194.423 167.797 193.149 166.523 191.578 166.523Z" fill="#0CB9FB"/>
<path d="M168.822 176.479H128.05C126.479 176.479 125.205 177.753 125.205 179.324V179.608C125.205 181.179 126.479 182.453 128.05 182.453H168.822C170.393 182.453 171.666 181.179 171.666 179.608V179.324C171.666 177.753 170.393 176.479 168.822 176.479Z" fill="white"/>
<path d="M108.137 185.866C114.421 185.866 119.516 180.772 119.516 174.488C119.516 168.204 114.421 163.11 108.137 163.11C101.853 163.11 96.7592 168.204 96.7592 174.488C96.7592 180.772 101.853 185.866 108.137 185.866Z" fill="white"/>
<path d="M208.645 201.985H92.0183C89.9237 201.985 88.2256 203.683 88.2256 205.778V238.016C88.2256 240.111 89.9237 241.809 92.0183 241.809H208.645C210.74 241.809 212.438 240.111 212.438 238.016V205.778C212.438 203.683 210.74 201.985 208.645 201.985Z" fill="#2C5AA0"/>
<path d="M191.578 213.932H128.05C126.479 213.932 125.205 215.206 125.205 216.777V217.061C125.205 218.632 126.479 219.906 128.05 219.906H191.578C193.149 219.906 194.423 218.632 194.423 217.061V216.777C194.423 215.206 193.149 213.932 191.578 213.932Z" fill="#0CB9FB"/>
<path d="M168.822 223.888H128.05C126.479 223.888 125.205 225.162 125.205 226.733V227.017C125.205 228.588 126.479 229.862 128.05 229.862H168.822C170.393 229.862 171.666 228.588 171.666 227.017V226.733C171.666 225.162 170.393 223.888 168.822 223.888Z" fill="white"/>
<path d="M108.137 233.275C114.421 233.275 119.516 228.181 119.516 221.897C119.516 215.613 114.421 210.519 108.137 210.519C101.853 210.519 96.7592 215.613 96.7592 221.897C96.7592 228.181 101.853 233.275 108.137 233.275Z" fill="white"/>
<path d="M541.459 94.8403H238.987C234.798 94.8403 231.402 98.2364 231.402 102.426V415.327C231.402 419.517 234.798 422.913 238.987 422.913H541.459C545.648 422.913 549.044 419.517 549.044 415.327V102.426C549.044 98.2364 545.648 94.8403 541.459 94.8403Z" fill="#15294A"/>
<path d="M526.288 135.612H475.086C470.896 135.612 467.5 139.008 467.5 143.198V204.83C467.5 209.019 470.896 212.415 475.086 212.415H526.288C530.477 212.415 533.873 209.019 533.873 204.83V143.198C533.873 139.008 530.477 135.612 526.288 135.612Z" fill="#2C5AA0"/>
<path d="M500.687 180.177C509.065 180.177 515.858 173.385 515.858 165.006C515.858 156.627 509.065 149.835 500.687 149.835C492.308 149.835 485.516 156.627 485.516 165.006C485.516 173.385 492.308 180.177 500.687 180.177Z" fill="white"/>
<path d="M521.547 183.97H479.827C478.256 183.97 476.982 185.243 476.982 186.814C476.982 188.385 478.256 189.659 479.827 189.659H521.547C523.118 189.659 524.392 188.385 524.392 186.814C524.392 185.243 523.118 183.97 521.547 183.97Z" fill="white"/>
<path d="M513.961 193.452H487.412C485.841 193.452 484.568 194.725 484.568 196.296C484.568 197.867 485.841 199.141 487.412 199.141H513.961C515.532 199.141 516.806 197.867 516.806 196.296C516.806 194.725 515.532 193.452 513.961 193.452Z" fill="white"/>
<path d="M231.402 112.856C231.402 117.045 234.798 120.441 238.987 120.441H541.459C545.648 120.441 549.044 117.045 549.044 112.856V99.8402C549.044 97.0788 546.806 94.8402 544.044 94.8402H236.402C233.64 94.8402 231.402 97.0788 231.402 99.8402V112.856Z" fill="#2C5AA0"/>
<path d="M243.728 111.908C245.823 111.908 247.521 110.21 247.521 108.115C247.521 106.02 245.823 104.322 243.728 104.322C241.633 104.322 239.935 106.02 239.935 108.115C239.935 110.21 241.633 111.908 243.728 111.908Z" fill="white"/>
<path d="M255.106 111.908C257.201 111.908 258.899 110.21 258.899 108.115C258.899 106.02 257.201 104.322 255.106 104.322C253.012 104.322 251.314 106.02 251.314 108.115C251.314 110.21 253.012 111.908 255.106 111.908Z" fill="white"/>
<path d="M266.485 111.908C268.579 111.908 270.278 110.21 270.278 108.115C270.278 106.02 268.579 104.322 266.485 104.322C264.39 104.322 262.692 106.02 262.692 108.115C262.692 110.21 264.39 111.908 266.485 111.908Z" fill="white"/>
<path d="M526.288 220.001H475.086C470.896 220.001 467.5 223.397 467.5 227.586V396.364C467.5 400.553 470.896 403.949 475.086 403.949H526.288C530.477 403.949 533.873 400.553 533.873 396.364V227.586C533.873 223.397 530.477 220.001 526.288 220.001Z" fill="#2C5AA0"/>
<path d="M513.013 237.068H488.36C486.266 237.068 484.568 238.766 484.568 240.861V257.928C484.568 260.023 486.266 261.721 488.36 261.721H513.013C515.108 261.721 516.806 260.023 516.806 257.928V240.861C516.806 238.766 515.108 237.068 513.013 237.068Z" fill="#0CB9FB"/>
<path d="M513.013 269.307H488.36C486.266 269.307 484.568 271.005 484.568 273.099V289.218C484.568 291.313 486.266 293.011 488.36 293.011H513.013C515.108 293.011 516.806 291.313 516.806 289.218V273.099C516.806 271.005 515.108 269.307 513.013 269.307Z" fill="white"/>
<path d="M513.013 300.597H488.36C486.266 300.597 484.568 302.295 484.568 304.389V320.509C484.568 322.603 486.266 324.301 488.36 324.301H513.013C515.108 324.301 516.806 322.603 516.806 320.509V304.389C516.806 302.295 515.108 300.597 513.013 300.597Z" fill="#0CB9FB"/>
<path d="M513.013 363.177H488.36C486.266 363.177 484.568 364.875 484.568 366.97V383.089C484.568 385.184 486.266 386.882 488.36 386.882H513.013C515.108 386.882 516.806 385.184 516.806 383.089V366.97C516.806 364.875 515.108 363.177 513.013 363.177Z" fill="#0CB9FB"/>
<path d="M513.013 331.887H488.36C486.266 331.887 484.568 333.585 484.568 335.68V351.799C484.568 353.893 486.266 355.592 488.36 355.592H513.013C515.108 355.592 516.806 353.893 516.806 351.799V335.68C516.806 333.585 515.108 331.887 513.013 331.887Z" fill="white"/>
<path d="M456.122 136.56H250.365C248.271 136.56 246.573 138.259 246.573 140.353V177.333C246.573 179.427 248.271 181.125 250.365 181.125H456.122C458.217 181.125 459.915 179.427 459.915 177.333V140.353C459.915 138.259 458.217 136.56 456.122 136.56Z" fill="#2C5AA0"/>
<path d="M410.609 149.93H257.951C256.38 149.93 255.106 151.203 255.106 152.774V153.77C255.106 155.341 256.38 156.615 257.951 156.615H410.609C412.18 156.615 413.454 155.341 413.454 153.77V152.774C413.454 151.203 412.18 149.93 410.609 149.93Z" fill="#0CB9FB"/>
<path d="M358.55 161.071H257.951C256.38 161.071 255.106 162.345 255.106 163.916V164.911C255.106 166.482 256.38 167.756 257.951 167.756H358.55C360.121 167.756 361.394 166.482 361.394 164.911V163.916C361.394 162.345 360.121 161.071 358.55 161.071Z" fill="#0CB9FB"/>
<path d="M437.114 165.48C440.78 165.48 443.752 162.509 443.752 158.843C443.752 155.177 440.78 152.206 437.114 152.206C433.449 152.206 430.477 155.177 430.477 158.843C430.477 162.509 433.449 165.48 437.114 165.48Z" fill="#0CB9FB"/>
<path d="M437.115 161.687C438.686 161.687 439.959 160.414 439.959 158.843C439.959 157.272 438.686 155.998 437.115 155.998C435.544 155.998 434.27 157.272 434.27 158.843C434.27 160.414 435.544 161.687 437.115 161.687Z" fill="white"/>
<path d="M456.122 188.711H250.365C248.271 188.711 246.573 190.409 246.573 192.504V221.897C246.573 223.992 248.271 225.69 250.365 225.69H456.122C458.217 225.69 459.915 223.992 459.915 221.897V192.504C459.915 190.409 458.217 188.711 456.122 188.711Z" fill="#2C5AA0"/>
<path d="M410.68 199.805H257.88C256.348 199.805 255.106 201.046 255.106 202.578C255.106 204.11 256.348 205.351 257.88 205.351H410.68C412.212 205.351 413.454 204.11 413.454 202.578C413.454 201.046 412.212 199.805 410.68 199.805Z" fill="#0CB9FB"/>
<path d="M358.621 209.049H257.88C256.348 209.049 255.106 210.291 255.106 211.823C255.106 213.354 256.348 214.596 257.88 214.596H358.621C360.153 214.596 361.394 213.354 361.394 211.823C361.394 210.291 360.153 209.049 358.621 209.049Z" fill="#0CB9FB"/>
<path d="M437.114 213.838C440.78 213.838 443.752 210.866 443.752 207.2C443.752 203.535 440.78 200.563 437.114 200.563C433.449 200.563 430.477 203.535 430.477 207.2C430.477 210.866 433.449 213.838 437.114 213.838Z" fill="#0CB9FB"/>
<path d="M437.115 210.045C438.686 210.045 439.959 208.771 439.959 207.2C439.959 205.629 438.686 204.356 437.115 204.356C435.544 204.356 434.27 205.629 434.27 207.2C434.27 208.771 435.544 210.045 437.115 210.045Z" fill="white"/>
<path d="M456.122 233.276H250.365C248.271 233.276 246.573 234.974 246.573 237.068V266.462C246.573 268.557 248.271 270.255 250.365 270.255H456.122C458.217 270.255 459.915 268.557 459.915 266.462V237.068C459.915 234.974 458.217 233.276 456.122 233.276Z" fill="#2C5AA0"/>
<path d="M410.68 244.369H257.88C256.348 244.369 255.106 245.611 255.106 247.143C255.106 248.674 256.348 249.916 257.88 249.916H410.68C412.212 249.916 413.454 248.674 413.454 247.143C413.454 245.611 412.212 244.369 410.68 244.369Z" fill="#0CB9FB"/>
<path d="M358.621 253.614H257.88C256.348 253.614 255.106 254.856 255.106 256.388C255.106 257.919 256.348 259.161 257.88 259.161H358.621C360.153 259.161 361.394 257.919 361.394 256.388C361.394 254.856 360.153 253.614 358.621 253.614Z" fill="#0CB9FB"/>
<path d="M437.114 258.402C440.78 258.402 443.752 255.431 443.752 251.765C443.752 248.099 440.78 245.128 437.114 245.128C433.449 245.128 430.477 248.099 430.477 251.765C430.477 255.431 433.449 258.402 437.114 258.402Z" fill="#0CB9FB"/>
<path d="M437.115 254.61C438.686 254.61 439.959 253.336 439.959 251.765C439.959 250.194 438.686 248.921 437.115 248.921C435.544 248.921 434.27 250.194 434.27 251.765C434.27 253.336 435.544 254.61 437.115 254.61Z" fill="white"/>
<path d="M456.122 366.97H250.365C248.271 366.97 246.573 368.668 246.573 370.763V400.156C246.573 402.251 248.271 403.949 250.365 403.949H456.122C458.217 403.949 459.915 402.251 459.915 400.156V370.763C459.915 368.668 458.217 366.97 456.122 366.97Z" fill="#2C5AA0"/>
<path d="M410.68 378.064H257.88C256.348 378.064 255.106 379.305 255.106 380.837C255.106 382.369 256.348 383.611 257.88 383.611H410.68C412.212 383.611 413.454 382.369 413.454 380.837C413.454 379.305 412.212 378.064 410.68 378.064Z" fill="#0CB9FB"/>
<path d="M358.621 387.308H257.88C256.348 387.308 255.106 388.55 255.106 390.082C255.106 391.614 256.348 392.855 257.88 392.855H358.621C360.153 392.855 361.394 391.614 361.394 390.082C361.394 388.55 360.153 387.308 358.621 387.308Z" fill="#0CB9FB"/>
<path d="M437.114 392.097C440.78 392.097 443.752 389.125 443.752 385.459C443.752 381.794 440.78 378.822 437.114 378.822C433.449 378.822 430.477 381.794 430.477 385.459C430.477 389.125 433.449 392.097 437.114 392.097Z" fill="#0CB9FB"/>
<path d="M437.115 388.304C438.686 388.304 439.959 387.03 439.959 385.459C439.959 383.888 438.686 382.615 437.115 382.615C435.544 382.615 434.27 383.888 434.27 385.459C434.27 387.03 435.544 388.304 437.115 388.304Z" fill="white"/>
<path d="M456.122 322.405H250.365C248.271 322.405 246.573 324.103 246.573 326.198V355.592C246.573 357.686 248.271 359.384 250.365 359.384H456.122C458.217 359.384 459.915 357.686 459.915 355.592V326.198C459.915 324.103 458.217 322.405 456.122 322.405Z" fill="#2C5AA0"/>
<path d="M410.68 333.499H257.88C256.348 333.499 255.106 334.741 255.106 336.272C255.106 337.804 256.348 339.046 257.88 339.046H410.68C412.212 339.046 413.454 337.804 413.454 336.272C413.454 334.741 412.212 333.499 410.68 333.499Z" fill="#0CB9FB"/>
<path d="M358.621 342.744H257.88C256.348 342.744 255.106 343.985 255.106 345.517C255.106 347.049 256.348 348.291 257.88 348.291H358.621C360.153 348.291 361.394 347.049 361.394 345.517C361.394 343.985 360.153 342.744 358.621 342.744Z" fill="#0CB9FB"/>
<path d="M437.114 347.532C440.78 347.532 443.752 344.56 443.752 340.895C443.752 337.229 440.78 334.257 437.114 334.257C433.449 334.257 430.477 337.229 430.477 340.895C430.477 344.56 433.449 347.532 437.114 347.532Z" fill="#0CB9FB"/>
<path d="M437.115 343.739C438.686 343.739 439.959 342.466 439.959 340.895C439.959 339.324 438.686 338.05 437.115 338.05C435.544 338.05 434.27 339.324 434.27 340.895C434.27 342.466 435.544 343.739 437.115 343.739Z" fill="white"/>
<path d="M456.122 277.84H250.365C248.271 277.84 246.573 279.538 246.573 281.633V311.027C246.573 313.121 248.271 314.82 250.365 314.82H456.122C458.217 314.82 459.915 313.121 459.915 311.027V281.633C459.915 279.538 458.217 277.84 456.122 277.84Z" fill="#2C5AA0"/>
<path d="M410.68 288.934H257.88C256.348 288.934 255.106 290.176 255.106 291.708C255.106 293.239 256.348 294.481 257.88 294.481H410.68C412.212 294.481 413.454 293.239 413.454 291.708C413.454 290.176 412.212 288.934 410.68 288.934Z" fill="#0CB9FB"/>
<path d="M358.621 298.179H257.88C256.348 298.179 255.106 299.421 255.106 300.952C255.106 302.484 256.348 303.726 257.88 303.726H358.621C360.153 303.726 361.394 302.484 361.394 300.952C361.394 299.421 360.153 298.179 358.621 298.179Z" fill="#0CB9FB"/>
<path d="M437.114 302.967C440.78 302.967 443.752 299.996 443.752 296.33C443.752 292.664 440.78 289.693 437.114 289.693C433.449 289.693 430.477 292.664 430.477 296.33C430.477 299.996 433.449 302.967 437.114 302.967Z" fill="#0CB9FB"/>
<path d="M437.115 299.174C438.686 299.174 439.959 297.901 439.959 296.33C439.959 294.759 438.686 293.485 437.115 293.485C435.544 293.485 434.27 294.759 434.27 296.33C434.27 297.901 435.544 299.174 437.115 299.174Z" fill="white"/>
<path d="M366.044 55.0164C366.044 53.4454 364.771 52.1718 363.2 52.1718C361.629 52.1718 360.355 53.4454 360.355 55.0164V73.0319C360.355 74.6029 361.629 75.8765 363.2 75.8765C364.771 75.8765 366.044 74.6029 366.044 73.0319V55.0164Z" fill="#0CB9FB"/>
<path d="M379.319 39.8455C379.319 38.2745 378.045 37.0009 376.474 37.0009C374.903 37.0009 373.63 38.2745 373.63 39.8455V73.032C373.63 74.603 374.903 75.8766 376.474 75.8766C378.045 75.8766 379.319 74.603 379.319 73.032V39.8455Z" fill="#0CB9FB"/>
<path d="M392.593 32.2599C392.593 30.6889 391.32 29.4153 389.749 29.4153C388.178 29.4153 386.904 30.6889 386.904 32.2599V73.0319C386.904 74.6029 388.178 75.8765 389.749 75.8765C391.32 75.8765 392.593 74.6029 392.593 73.0319V32.2599Z" fill="#0CB9FB"/>
<path d="M405.868 39.8455C405.868 38.2745 404.595 37.0009 403.024 37.0009C401.453 37.0009 400.179 38.2745 400.179 39.8455V73.032C400.179 74.603 401.453 75.8766 403.024 75.8766C404.595 75.8766 405.868 74.603 405.868 73.032V39.8455Z" fill="#0CB9FB"/>
<path d="M419.143 24.6745C419.143 23.1034 417.869 21.8299 416.298 21.8299C414.727 21.8299 413.453 23.1034 413.453 24.6745V73.032C413.453 74.603 414.727 75.8765 416.298 75.8765C417.869 75.8765 419.143 74.603 419.143 73.032V24.6745Z" fill="#FECE2D"/>
<path fill-rule="evenodd" clip-rule="evenodd" d="M662.605 391.792C660.783 393.727 658.202 394.941 655.331 394.941C649.816 394.941 645.344 390.484 645.344 384.985C645.344 379.487 649.816 375.029 655.331 375.029V356.54C639.64 356.54 626.795 369.343 626.795 384.985C626.795 400.628 639.64 413.431 655.331 413.431C663.574 413.431 671.024 409.955 676.101 404.425L662.605 391.792Z" fill="#0CB9FB"/>
<path fill-rule="evenodd" clip-rule="evenodd" d="M655.241 356.54V375.029C660.74 375.029 665.197 379.487 665.197 384.985H683.687C683.687 369.343 670.883 356.54 655.241 356.54Z" fill="#FECE2D"/>
<path fill-rule="evenodd" clip-rule="evenodd" d="M664.815 384.985C664.815 388.216 663.293 391.087 660.93 392.942L672.557 407.742C679.324 402.443 683.687 394.229 683.687 384.985H664.815Z" fill="#0CB9FB"/>
<path fill-rule="evenodd" clip-rule="evenodd" d="M28.5382 159.795C27.1368 161.278 25.1513 162.209 22.9429 162.209C18.6998 162.209 15.2607 158.792 15.2607 154.576C15.2607 150.36 18.6998 146.943 22.9429 146.943V132.768C10.8725 132.768 0.992432 142.583 0.992432 154.576C0.992432 166.569 10.8725 176.384 22.9429 176.384C29.2835 176.384 35.0134 173.719 38.9199 169.48L28.5382 159.795Z" fill="#2C5AA0"/>
<path fill-rule="evenodd" clip-rule="evenodd" d="M22.8007 132.768V146.943C27.0163 146.943 30.4336 150.36 30.4336 154.576H44.6089C44.6089 142.583 34.7933 132.768 22.8007 132.768Z" fill="#FECE2D"/>
<path fill-rule="evenodd" clip-rule="evenodd" d="M30.4554 154.576C30.4554 156.999 29.3138 159.153 27.5416 160.543L36.2611 171.643C41.3377 167.67 44.609 161.509 44.609 154.576H30.4554Z" fill="#2C5AA0"/>
<path fill-rule="evenodd" clip-rule="evenodd" d="M688.435 142.237C688.431 142.247 688.427 142.257 688.421 142.269C688.427 142.259 688.435 142.219 688.435 142.237Z" fill="#FECE2D"/>
<path fill-rule="evenodd" clip-rule="evenodd" d="M688.426 142.251C688.426 142.253 688.424 142.258 688.424 142.262C688.424 142.251 688.442 142.221 688.426 142.251Z" fill="#FECE2D"/>
<path fill-rule="evenodd" clip-rule="evenodd" d="M688.491 142.09C688.478 142.128 688.461 142.164 688.446 142.202C688.453 142.183 688.461 142.168 688.468 142.149C688.271 142.642 688.396 142.322 688.491 142.09Z" fill="#FECE2D"/>
<path fill-rule="evenodd" clip-rule="evenodd" d="M688.449 142.205C688.441 142.222 688.434 142.241 688.426 142.259C688.37 142.366 688.449 142.205 688.449 142.205Z" fill="#FECE2D"/>
<path fill-rule="evenodd" clip-rule="evenodd" d="M688.427 142.253C688.427 142.251 688.427 142.251 688.43 142.248C688.427 142.251 688.427 142.251 688.427 142.253Z" fill="#FECE2D"/>
<path fill-rule="evenodd" clip-rule="evenodd" d="M688.418 142.266C688.406 142.29 688.473 142.176 688.418 142.266V142.266Z" fill="#FECE2D"/>
<path fill-rule="evenodd" clip-rule="evenodd" d="M688.426 142.253L688.432 142.248C688.429 142.251 688.429 142.253 688.426 142.253Z" fill="#FECE2D"/>
<path d="M729.2 92.9438H646.707C644.613 92.9438 642.915 94.6419 642.915 96.7366V148.887C642.915 150.982 644.613 152.68 646.707 152.68H729.2C731.294 152.68 732.992 150.982 732.992 148.887V96.7366C732.992 94.6419 731.294 92.9438 729.2 92.9438Z" fill="#FECE2D"/>
<path fill-rule="evenodd" clip-rule="evenodd" d="M677.049 110.011L650.5 152.68H703.599L677.049 110.011Z" fill="#0D182E"/>
<path fill-rule="evenodd" clip-rule="evenodd" d="M703.125 121.389L679.894 152.68H726.355L703.125 121.389Z" fill="#0D182E"/>
<path d="M713.08 121.389C717.794 121.389 721.614 117.569 721.614 112.856C721.614 108.143 717.794 104.322 713.08 104.322C708.367 104.322 704.547 108.143 704.547 112.856C704.547 117.569 708.367 121.389 713.08 121.389Z" fill="#0CB9FB"/>
<path fill-rule="evenodd" clip-rule="evenodd" d="M74.9445 441.863C74.9485 441.873 74.9525 441.883 74.9585 441.895C74.9525 441.885 74.9445 441.845 74.9445 441.863Z" fill="#15294A"/>
<path fill-rule="evenodd" clip-rule="evenodd" d="M74.9532 441.878C74.9532 441.88 74.9553 441.884 74.9553 441.888C74.9553 441.878 74.937 441.848 74.9532 441.878Z" fill="#15294A"/>
<path fill-rule="evenodd" clip-rule="evenodd" d="M74.8875 441.717C74.9007 441.755 74.9178 441.791 74.933 441.829C74.9254 441.81 74.9178 441.795 74.9102 441.776C75.1074 442.269 74.9823 441.948 74.8875 441.717Z" fill="#15294A"/>
<path fill-rule="evenodd" clip-rule="evenodd" d="M74.9302 441.832C74.9378 441.849 74.9455 441.868 74.9532 441.886C75.0088 441.993 74.9302 441.832 74.9302 441.832Z" fill="#15294A"/>
<path fill-rule="evenodd" clip-rule="evenodd" d="M74.953 441.88C74.953 441.877 74.9529 441.877 74.9501 441.875C74.9529 441.877 74.953 441.877 74.953 441.88Z" fill="#15294A"/>
<path fill-rule="evenodd" clip-rule="evenodd" d="M74.9613 441.893C74.9731 441.916 74.9062 441.802 74.9613 441.893V441.893Z" fill="#15294A"/>
<path fill-rule="evenodd" clip-rule="evenodd" d="M74.9548 441.88L74.9491 441.875C74.952 441.877 74.952 441.88 74.9548 441.88Z" fill="#15294A"/>
<path d="M11.4225 368.866H138.479C140.574 368.866 142.272 370.564 142.272 372.659V454.203C142.272 456.298 140.574 457.996 138.479 457.996H11.4225C9.32779 457.996 7.62971 456.298 7.62971 454.203V372.659C7.62971 370.564 9.32779 368.866 11.4225 368.866Z" fill="#FECE2D"/>
<path fill-rule="evenodd" clip-rule="evenodd" d="M92.2781 394.467L131.206 457.996H53.3503L92.2781 394.467Z" fill="#0CB9FB"/>
<path fill-rule="evenodd" clip-rule="evenodd" d="M52.1415 411.484L86.5559 457.996H17.7271L52.1415 411.484Z" fill="#15294A"/>
<path d="M37.4977 411.535C30.4282 411.535 24.6972 405.804 24.6972 398.734C24.6972 391.664 30.4282 385.933 37.4977 385.933C44.5672 385.933 50.2982 391.664 50.2982 398.734C50.2982 405.804 44.5672 411.535 37.4977 411.535Z" fill="#2C5AA0"/>
<path fill-rule="evenodd" clip-rule="evenodd" d="M534.685 154.703C529.191 164.944 529.844 190.923 536.945 192.753C539.777 193.483 545.809 191.695 551.949 187.994L548.096 215.26H570.852L563.019 178.745C567.387 173.616 570.344 167.331 569.85 160.289C568.426 139.998 540.18 144.461 534.685 154.703Z" fill="#57331F"/>
<path fill-rule="evenodd" clip-rule="evenodd" d="M532.537 159.301C532.762 157.974 533.313 156.5 533.758 155.244C534.331 153.625 535.198 152.165 536.153 150.789C537.949 148.199 540.105 145.86 542.485 143.918C546.832 140.372 552.366 138.327 557.808 138.991C560.555 139.327 563.223 140.375 565.493 142.119C567.544 143.695 569.517 146.015 572.173 146.182C575.062 146.363 577.711 143.813 580.029 142.237C582.642 140.461 585.422 139.167 588.476 138.664C593.592 137.822 598.399 139.55 601.925 143.748C605.677 148.215 608.405 154.766 605.941 160.685C605.483 161.785 604.893 162.712 604.048 163.481C603.272 164.186 602.088 164.936 601.773 166.062C601.439 167.26 602.437 168.804 602.824 169.885C603.378 171.433 603.833 173.057 603.671 174.74C603.406 177.503 601.669 180.14 599.836 181.956C597.97 183.804 595.674 184.864 593.221 185.352C591.583 185.679 589.91 185.859 588.245 185.736C587.419 185.675 586.69 185.446 585.889 185.263C585.111 185.086 584.676 185.292 584.015 185.719C580.947 187.703 577.648 188.47 574.105 188.176C571.114 187.926 567.668 187.202 565.229 185.153C562.52 182.878 562.574 179.74 563.211 176.388C562.536 176.722 560.667 176.93 561.784 175.595C562.226 175.067 563.062 174.852 563.629 174.541C564.29 174.179 564.961 173.712 565.474 173.121C567.546 170.738 565.454 165.888 562.849 165.089C558.98 163.901 558.114 169.373 555.352 170.788C553.764 171.602 552.103 170.49 550.913 169.354C549.319 167.832 548.233 165.817 547.295 163.766C546.523 162.076 545.804 160.363 545.016 158.683C544.649 157.898 543.376 155.679 544.015 154.791C541.244 154.239 538.157 155.39 535.771 156.901C534.784 157.525 534.032 158.213 533.506 159.315C533.393 159.552 533.148 160.254 532.84 160.282C532.266 160.336 532.48 159.635 532.537 159.301Z" fill="#2C1B18"/>
<path fill-rule="evenodd" clip-rule="evenodd" d="M578.438 293.959L543.705 413.646L527.369 503.509H510.972L527.339 293.959H578.438Z" fill="#57331F"/>
<path fill-rule="evenodd" clip-rule="evenodd" d="M578.438 293.959L543.705 413.646L527.369 503.509H510.972L527.339 293.959H578.438Z" fill="black" fill-opacity="0.1"/>
<path fill-rule="evenodd" clip-rule="evenodd" d="M594.047 293.959C591.623 356.136 592.579 390.049 593.122 395.698C593.664 401.347 596.744 439.18 617.727 505.405H600.673C572.883 441.874 563.183 404.04 559.996 395.698C556.808 387.355 547.395 353.442 533.652 293.959H594.047Z" fill="#57331F"/>
<path fill-rule="evenodd" clip-rule="evenodd" d="M579.183 293.959C570.149 335.144 554.523 400.884 532.306 491.182H508.323C506.552 398.501 514.087 337.501 527.136 293.959H579.183Z" fill="#2C5AA0"/>
<path fill-rule="evenodd" clip-rule="evenodd" d="M594.168 293.959C591.795 356.136 597.946 417.391 617 492.15H591.412C563.571 429.567 543.618 368.613 529.98 293.959H594.168Z" fill="#4186EC"/>
<path fill-rule="evenodd" clip-rule="evenodd" d="M620.158 517.731L619.291 503.745C619.253 503.138 618.662 502.723 618.068 502.849C609.85 504.595 598.515 500.664 598.515 500.664C587.107 508.744 570.662 512.453 564.871 513.563C563.751 513.778 563.032 514.909 563.343 516.006L564.639 520.576H598.515H618.276L620.158 517.731Z" fill="#FECE2D"/>
<path fill-rule="evenodd" clip-rule="evenodd" d="M531.029 517.731L530.161 503.745C530.123 503.138 529.533 502.723 528.938 502.849C520.72 504.595 509.385 500.664 509.385 500.664C497.978 508.744 481.532 512.453 475.742 513.563C474.621 513.778 473.902 514.909 474.213 516.006L475.509 520.576H509.385H529.146L531.029 517.731Z" fill="#FECE2D"/>
<path fill-rule="evenodd" clip-rule="evenodd" d="M456.847 252.907L491.205 267.995L480.234 282.049L454.503 262.321C441.651 259.96 435.689 257.932 436.622 256.237C437.407 254.807 438.868 254.727 440.213 254.653C441.262 254.595 442.24 254.541 442.775 253.856C443.996 252.292 440.983 247.461 437.928 242.999C434.873 238.537 437.737 238.698 439.412 239.232C445.018 242.351 450.829 246.909 456.847 252.907ZM610.676 276.006L630.106 272.151C643.284 306.883 651.14 325.915 653.674 329.249C655.533 331.693 666.996 337.99 674.755 341.353C677.869 342.703 677.201 345.335 676.287 346.177C670.526 351.488 665.169 349.626 659.339 347.6C657.651 347.013 655.923 346.413 654.134 345.968C649.504 344.819 648.095 347.2 646.764 349.45C645.585 351.442 644.467 353.331 641.228 352.577C641.375 351.942 641.556 351.23 641.751 350.461C643.014 345.492 644.876 338.164 642.113 333.906C640.696 331.722 630.216 312.421 610.676 276.006Z" fill="#57331F"/>
<path fill-rule="evenodd" clip-rule="evenodd" d="M557.867 199.456L549.668 198.049C531.81 215.373 524.522 256.992 512.621 262.501C501.368 267.709 485.417 262.669 466.457 255.864L460.651 268.837C477.878 287.474 514.579 303.22 529.455 294.232C553.239 279.86 558.729 228.529 557.867 199.456Z" fill="#E2B727"/>
<path fill-rule="evenodd" clip-rule="evenodd" d="M593.609 302.493C593.609 302.493 544.296 302.493 521.062 302.493C517.746 302.493 518.371 297.707 518.851 295.291C524.381 267.414 545.971 237.364 545.971 197.681L566.897 194.4C584.205 222.237 590.191 256.51 593.609 302.493Z" fill="#0CB9FB"/>
<path fill-rule="evenodd" clip-rule="evenodd" d="M568.008 194.4H568.247C615.183 223.324 643.549 268.16 653.345 328.909L638.138 331.887C628.065 320.151 615.634 300.946 600.845 274.269C605.382 290.338 608.695 306.82 609.728 322.405H544.425C531.782 290.456 559.962 194.4 559.962 194.4H564.47H568.008Z" fill="#FECE2D"/>
<path fill-rule="evenodd" clip-rule="evenodd" d="M330.487 211.467C319.228 211.467 310.101 220.594 310.101 231.853V251.765C310.101 262.258 318.028 270.899 328.22 272.026C328.222 272.075 328.225 272.124 328.228 272.172H355.725C360.072 267.926 355.812 240.854 352.544 228.81C351.075 218.994 342.608 211.467 332.384 211.467H330.487Z" fill="#4A312C"/>
<path fill-rule="evenodd" clip-rule="evenodd" d="M331.848 257.212C337.988 260.913 344.021 262.701 346.853 261.971C353.954 260.14 354.607 234.162 349.113 223.921C343.618 213.679 315.372 209.215 313.948 229.507C313.454 236.549 316.411 242.834 320.78 247.963L312.946 284.477H335.702L331.848 257.212Z" fill="#DCAE92"/>
<path fill-rule="evenodd" clip-rule="evenodd" d="M310.937 229.625C311.597 228.972 312.237 228.34 312.871 227.774L312.84 227.037C312.84 227.037 319.983 212.415 330.963 212.415C341.933 212.415 345.402 217.515 348.351 221.851L348.359 221.862C346.817 227.155 342.168 229.297 336.91 231.718C334.647 232.761 332.27 233.855 329.981 235.276C329.084 234.547 327.94 234.11 326.695 234.11C323.814 234.11 321.479 236.445 321.479 239.325C321.479 242.205 323.814 244.54 326.695 244.54C326.774 244.54 326.853 244.538 326.932 244.535C327.98 255.798 327.56 268.659 324.435 271.712H296.938C296.148 257.998 299.696 254.085 303.322 250.087C306.733 246.326 310.212 242.489 310.212 230.339C310.457 230.1 310.698 229.861 310.937 229.625V229.625Z" fill="#4A312C"/>
<path fill-rule="evenodd" clip-rule="evenodd" d="M271.816 403.001H345.067L354.666 520.576H245.625L271.816 403.001Z" fill="#2C5AA0"/>
<path fill-rule="evenodd" clip-rule="evenodd" d="M271.816 403.001H294.345L307.829 520.576H245.625L271.816 403.001Z" fill="black" fill-opacity="0.1"/>
<path fill-rule="evenodd" clip-rule="evenodd" d="M385.314 426.294C377.083 443.752 364.221 486.13 364.221 486.13L375.14 491.12C375.14 491.12 402.847 446.572 419.78 416.12C418.991 422.976 418.188 430.694 417.443 438.807C415.679 458.027 417.443 499.552 418.392 511.546C418.988 519.085 429.231 517.506 430.187 511.527C430.349 510.515 431.009 506.959 431.994 501.655C436.823 475.644 449.463 407.569 449.485 390.9C449.494 384.193 436.39 378.168 428.58 382.858C423.216 377.134 413.063 373.834 407.23 383.29C403.521 389.301 394.711 406.367 385.314 426.294Z" fill="#DCAE92"/>
<path fill-rule="evenodd" clip-rule="evenodd" d="M365.001 470.441L402.48 381.655C411.46 367.211 436.633 384.594 433.571 392.971C426.619 411.989 391.266 473.559 389.194 479.226L365.001 470.441Z" fill="#E2B727"/>
<path fill-rule="evenodd" clip-rule="evenodd" d="M365.726 480.928C365.068 480.032 363.797 479.82 362.947 480.535C361.397 481.839 359.168 483.847 358.363 485.241C357.081 487.462 355.361 492.15 355.361 492.15C357.937 493.638 401.675 518.89 401.675 518.89C401.675 518.89 406.926 513.964 403.312 511.243C399.696 508.521 397.346 506.652 397.346 506.652L381.359 484.627C381.045 484.195 380.437 484.107 380.014 484.433L376.692 486.99C376.692 486.99 372.121 486.592 369.87 485.292C368.499 484.5 366.825 482.428 365.726 480.928Z" fill="#0CB9FB"/>
<path fill-rule="evenodd" clip-rule="evenodd" d="M418.621 505.674C417.605 505.228 416.397 505.68 416.018 506.724C415.328 508.627 414.402 511.482 414.402 513.091C414.402 515.656 415.256 520.576 415.256 520.576C418.231 520.576 468.736 520.576 468.736 520.576C468.736 520.576 470.821 513.685 466.329 513.135C461.838 512.586 458.867 512.143 458.867 512.143L434.01 501.061C433.522 500.843 432.951 501.072 432.747 501.566L431.15 505.442C431.15 505.442 426.992 507.382 424.393 507.382C422.81 507.382 420.324 506.423 418.621 505.674Z" fill="#0CB9FB"/>
<path fill-rule="evenodd" clip-rule="evenodd" d="M452.111 397.722C452.111 422.913 440.149 481.672 440.141 487.219L414.402 487.239C414.402 487.239 420.053 408.593 418.41 407.746C416.765 406.899 351.04 414.308 331.327 414.308C302.902 414.308 291.143 396.383 290.189 363.177H346.498C357.964 364.404 417.767 376.466 439.976 380.613C449.485 382.388 452.111 390.783 452.111 397.722Z" fill="#FECE2D"/>
<path fill-rule="evenodd" clip-rule="evenodd" d="M426.951 322.124L392.593 337.213L403.564 351.267L429.295 331.539C442.148 329.178 448.109 327.15 447.177 325.455C446.392 324.025 444.93 323.945 443.585 323.87C442.536 323.812 441.558 323.759 441.023 323.074C439.803 321.51 442.815 316.679 445.87 312.217C448.925 307.755 446.062 307.916 444.386 308.45C438.781 311.569 432.969 316.127 426.951 322.124ZM273.122 345.224L253.692 341.369C240.515 376.101 232.659 395.133 230.124 398.467C228.265 400.911 216.802 407.208 209.043 410.571C205.929 411.92 206.598 414.553 207.511 415.395C213.273 420.705 218.629 418.844 224.459 416.818C226.147 416.231 227.875 415.631 229.664 415.186C234.294 414.037 235.703 416.418 237.034 418.668C238.213 420.66 239.331 422.549 242.571 421.795C242.423 421.16 242.242 420.447 242.047 419.678C240.784 414.71 238.922 407.381 241.685 403.124C243.103 400.939 253.582 381.639 273.122 345.224Z" fill="#DCAE92"/>
<path fill-rule="evenodd" clip-rule="evenodd" d="M325.931 268.673L334.13 267.267C351.988 284.59 359.276 326.21 371.178 331.719C382.43 336.927 398.381 331.887 417.341 325.081L423.147 338.054C405.92 356.692 369.22 372.438 354.344 363.449C330.559 349.077 325.069 297.746 325.931 268.673Z" fill="#2C5AA0"/>
<path fill-rule="evenodd" clip-rule="evenodd" d="M290.189 371.711C290.189 371.711 339.502 371.711 362.736 371.711C366.052 371.711 365.427 366.924 364.947 364.508C359.417 336.631 337.827 306.581 337.827 266.899L316.902 263.617C299.593 291.455 293.607 325.728 290.189 371.711Z" fill="#0CB9FB"/>
<path fill-rule="evenodd" clip-rule="evenodd" d="M315.79 263.617H315.551C268.615 292.541 240.249 337.378 230.453 398.126L245.66 401.104C255.733 389.369 268.164 370.163 282.953 343.486C278.416 359.556 275.103 376.037 274.07 391.623H339.374C352.016 359.673 323.837 263.617 323.837 263.617H319.328H315.79Z" fill="#4186EC"/>
<path fill-rule="evenodd" clip-rule="evenodd" d="M176.346 187.994C182.486 191.695 188.519 193.483 191.351 192.753C198.452 190.923 199.105 164.944 193.61 154.703C188.116 144.461 159.869 139.998 158.445 160.289C157.951 167.332 160.908 173.617 165.278 178.745L157.443 215.26H180.2L176.346 187.994Z" fill="#B28B67"/>
<path fill-rule="evenodd" clip-rule="evenodd" d="M174.245 165.046C174.021 165.02 173.793 165.006 173.562 165.006C170.42 165.006 167.873 167.553 167.873 170.695C167.873 172.29 168.53 173.732 169.587 174.765C168.271 176.623 166.796 178.564 165.105 180.567C158.754 176.757 153.093 164.654 159.302 153.939C161.018 148.69 165.852 146.834 170.44 145.532C174.157 143.977 178.016 143.802 181.273 144.734C187.658 145.282 193.36 147.229 194.976 148.385C194.976 154.43 193.804 156.224 183.8 156.065C181.342 157.364 179.452 159.599 177.484 162.53C177.5 162.755 178.825 180.731 184.396 180.731C187.769 180.731 190.834 179.443 193.276 178.417C194.894 177.737 196.239 177.172 197.219 177.172C199.013 177.172 198.612 179.416 197.424 181.08C197.047 181.607 196.11 182.128 195.099 182.689C193.478 183.588 191.667 184.593 191.667 185.904C191.667 187.106 192.871 187.104 193.919 187.102C194.726 187.1 195.44 187.099 195.44 187.648C195.44 187.911 195.451 188.203 195.462 188.512C195.539 190.662 195.647 193.661 192.48 193.661C188.813 193.661 178.298 192.325 176.497 186.882C174.968 182.265 174.386 168.975 174.245 165.046Z" fill="#2C1B18"/>
<path fill-rule="evenodd" clip-rule="evenodd" d="M149.858 293.959L184.591 413.646L200.927 503.509H217.324L200.956 293.959H149.858Z" fill="#B28B67"/>
<path fill-rule="evenodd" clip-rule="evenodd" d="M149.858 293.959L184.591 413.646L200.927 503.509H217.324L200.956 293.959H149.858Z" fill="#B28B67"/>
<path fill-rule="evenodd" clip-rule="evenodd" d="M134.249 293.959C136.672 356.136 135.716 390.049 135.174 395.698C134.632 401.347 131.552 439.18 110.568 505.405H127.623C155.412 441.874 165.113 404.04 168.3 395.698C171.488 387.355 180.9 353.443 194.643 293.959H134.249Z" fill="#B28B67"/>
<path fill-rule="evenodd" clip-rule="evenodd" d="M149.112 293.959C158.147 335.144 173.773 400.884 195.99 491.182H219.972C221.743 398.501 214.208 337.501 201.159 293.959H149.112Z" fill="#2C5AA0"/>
<path fill-rule="evenodd" clip-rule="evenodd" d="M134.127 293.959C136.501 356.136 130.35 417.391 111.296 492.15H136.884C164.724 429.567 184.678 368.614 198.316 293.959H134.127Z" fill="#4186EC"/>
<path fill-rule="evenodd" clip-rule="evenodd" d="M108.137 517.731L109.005 503.745C109.043 503.138 109.633 502.723 110.228 502.849C118.446 504.595 129.781 500.664 129.781 500.664C141.188 508.744 157.634 512.453 163.424 513.563C164.545 513.778 165.264 514.909 164.953 516.006L163.657 520.576H129.781H110.019L108.137 517.731Z" fill="#15294A"/>
<path fill-rule="evenodd" clip-rule="evenodd" d="M197.267 517.731L198.135 503.745C198.173 503.138 198.762 502.723 199.358 502.849C207.576 504.595 218.91 500.664 218.91 500.664C230.318 508.744 246.763 512.453 252.554 513.563C253.675 513.778 254.393 514.909 254.082 516.006L252.786 520.576H218.91H199.149L197.267 517.731Z" fill="#15294A"/>
<path fill-rule="evenodd" clip-rule="evenodd" d="M232.68 216.862L199.768 234.888L211.922 247.932L235.836 226.036C248.434 222.564 254.195 220.025 253.119 218.417C252.213 217.061 250.749 217.108 249.403 217.152C248.353 217.185 247.374 217.217 246.781 216.581C245.429 215.13 248.009 210.055 250.664 205.343C253.318 200.632 250.48 201.042 248.857 201.72C243.545 205.316 238.153 210.363 232.68 216.862ZM265.77 242.155L251.314 250.096L252.137 264.604C252.137 264.604 261.5 257.846 269.555 255.6C279.826 252.736 283.981 250.549 289 244.154C291.686 240.733 293.965 233.854 291.409 231.614C290.428 230.755 286.775 232.785 283.048 234.856C280.207 236.435 277.322 238.037 275.545 238.403C273.154 238.896 273.434 235.795 273.658 233.318C273.818 231.54 273.95 230.083 273.044 230.504C268.812 230.577 265.77 242.155 265.77 242.155Z" fill="#B28B67"/>
<path fill-rule="evenodd" clip-rule="evenodd" d="M183.74 230.872C195.268 230.75 210.64 228.316 227.043 217.904L233.484 232.269C222.17 243.497 206.262 252.722 192.352 252.332C181.39 252.024 175.788 238.765 183.74 230.872Z" fill="#0A9AD1"/>
<mask id="mask0_522_1704" style="mask-type:alpha" maskUnits="userSpaceOnUse" x="180" y="217" width="54" height="36">
<path fill-rule="evenodd" clip-rule="evenodd" d="M183.74 230.872C195.268 230.75 210.64 228.316 227.043 217.904L233.484 232.269C222.17 243.497 206.262 252.722 192.352 252.332C181.39 252.024 175.788 238.765 183.74 230.872Z" fill="white"/>
</mask>
<g mask="url(#mask0_522_1704)">
</g>
<path fill-rule="evenodd" clip-rule="evenodd" d="M152.65 329.288C141.691 327.859 131.621 326.546 125.653 327.721C118.958 305.976 124.517 292.285 129.65 279.646C132.743 272.029 135.681 264.794 135.687 256.408C135.706 231.988 155.314 194.4 158.199 194.4H159.027H181.89H184.508C185.684 209.511 190.705 225.873 195.757 242.34C196.937 246.185 198.118 250.036 199.253 253.879C218.374 258.219 260.83 243.111 260.83 243.111C260.83 243.111 271.548 265.285 270.739 274.727C246.027 287.636 224.847 293.391 207.396 293.772C207.951 304.125 206.691 313.978 202.457 322.98C196.784 335.042 173.16 331.962 152.65 329.288Z" fill="#0CB9FB"/>
<mask id="mask1_522_1704" style="mask-type:alpha" maskUnits="userSpaceOnUse" x="122" y="194" width="149" height="138">
<path fill-rule="evenodd" clip-rule="evenodd" d="M152.65 329.288C141.691 327.859 131.621 326.546 125.653 327.721C118.958 305.976 124.517 292.285 129.65 279.646C132.743 272.029 135.681 264.794 135.687 256.408C135.706 231.988 155.314 194.4 158.199 194.4H159.027H181.89H184.508C185.684 209.511 190.705 225.873 195.757 242.34C196.937 246.185 198.118 250.036 199.253 253.879C218.374 258.219 260.83 243.111 260.83 243.111C260.83 243.111 271.548 265.285 270.739 274.727C246.027 287.636 224.847 293.391 207.396 293.772C207.951 304.125 206.691 313.978 202.457 322.98C196.784 335.042 173.16 331.962 152.65 329.288Z" fill="white"/>
</mask>
<g mask="url(#mask1_522_1704)">
</g>
</svg>
