<svg width="631" height="488" viewBox="0 0 631 488" fill="none" xmlns="http://www.w3.org/2000/svg">
<g opacity="0.2">
<path d="M167.446 410.114C75.3487 410.114 0.689301 335.455 0.689301 243.358C0.689301 151.261 75.3487 76.6018 167.446 76.6018C259.543 76.6018 334.202 151.261 334.202 243.358C334.202 335.455 259.543 410.114 167.446 410.114Z" fill="#0CB9FB"/>
<path d="M341.401 435.909C324.984 435.909 311.675 422.6 311.675 406.183C311.675 389.765 324.984 376.456 341.401 376.456C357.818 376.456 371.127 389.765 371.127 406.183C371.127 422.6 357.818 435.909 341.401 435.909Z" fill="#0CB9FB"/>
<path fill-rule="evenodd" clip-rule="evenodd" d="M69.8921 13.649L34.355 49.1861L69.8921 84.7232L105.429 49.1861L69.8921 13.649Z" fill="#FECE2D"/>
<path fill-rule="evenodd" clip-rule="evenodd" d="M246.648 423.971L229.248 441.373L246.648 458.773L264.049 441.373L246.648 423.971Z" fill="#FECE2D"/>
<path fill-rule="evenodd" clip-rule="evenodd" d="M369.846 324.632L361.146 333.332L369.846 342.033L378.546 333.332L369.846 324.632Z" fill="#FECE2D"/>
</g>
<path fill-rule="evenodd" clip-rule="evenodd" d="M184.21 14.0803L185.293 51.0809L191.099 249.594C191.357 258.425 197.379 266.041 205.914 268.328L538.862 357.541C551.799 361.007 564.421 351.026 564.029 337.638L558.574 151.101L557.455 112.87C557.347 109.177 554.83 105.991 551.26 105.035L191.195 8.55555C187.605 7.59373 184.101 10.366 184.21 14.0803Z" fill="#15294A"/>
<path fill-rule="evenodd" clip-rule="evenodd" d="M184.21 14.0802L184.857 36.2005C185.116 45.0318 191.138 52.6471 199.672 54.9338L532.62 144.147C545.558 147.613 558.18 137.631 557.788 124.243L557.455 112.87C557.347 109.177 554.83 105.991 551.26 105.035L191.195 8.55551C187.605 7.59368 184.101 10.3659 184.21 14.0802Z" fill="#FECE2D"/>
<path fill-rule="evenodd" clip-rule="evenodd" d="M205.285 29.3358C202.665 33.8738 203.442 40.4533 207.021 44.0323C210.6 47.6113 215.626 46.8343 218.246 42.2963C220.866 37.7583 220.088 31.1782 216.509 27.5994C212.93 24.0204 207.905 24.7978 205.285 29.3358Z" fill="#0D182E"/>
<path fill-rule="evenodd" clip-rule="evenodd" d="M238.413 38.1198C235.793 42.6578 236.571 49.2373 240.15 52.8163C243.729 56.3955 248.754 55.6183 251.374 51.0803C253.994 46.5423 253.216 39.9622 249.637 36.3834C246.058 32.8044 241.033 33.5818 238.413 38.1198Z" fill="#0CB9FB"/>
<path fill-rule="evenodd" clip-rule="evenodd" d="M513.298 126.548C513.39 126.573 513.491 126.561 513.58 126.508L533.079 114.814C533.252 114.711 533.307 114.488 533.204 114.315C533.1 114.144 532.878 114.087 532.705 114.19L513.205 125.884C513.033 125.987 512.977 126.211 513.08 126.384C513.131 126.468 513.21 126.524 513.298 126.548Z" fill="#0D182E"/>
<path fill-rule="evenodd" clip-rule="evenodd" d="M532.797 131.773C532.911 131.803 533.037 131.778 533.132 131.694C533.283 131.562 533.298 131.332 533.165 131.181L513.665 109.037C513.533 108.886 513.303 108.871 513.152 109.005C513.001 109.137 512.986 109.367 513.119 109.518L532.619 131.662C532.668 131.718 532.73 131.755 532.797 131.773Z" fill="#0D182E"/>
<path fill-rule="evenodd" clip-rule="evenodd" d="M366.208 205.679L366.906 255.706C367.036 261.856 361.229 266.41 355.288 264.818L297.045 249.212C290.393 247.43 285.717 241.468 285.571 234.582L284.936 187.503C284.781 180.159 291.716 174.721 298.81 176.622L355.288 191.755C361.619 193.451 366.069 199.126 366.208 205.679Z" fill="#0D182E"/>
<rect width="1.89094" height="42.2603" rx="0.94547" transform="matrix(0.883293 0.46882 -0.677792 0.735254 320.436 206.323)" fill="#FECE2D"/>
<rect width="1.73051" height="21.2411" rx="0.865257" transform="matrix(-0.976689 0.214659 -0.569941 -0.821686 333.367 223.975)" fill="#FECE2D"/>
<rect width="1.92496" height="19.4211" rx="0.962481" transform="matrix(0.91805 0.396465 -0.552088 0.833786 341.598 207.424)" fill="#FECE2D"/>
<rect width="1.82135" height="4.92325" rx="0.910673" transform="matrix(-0.996447 0.0842198 -0.413362 -0.910567 344.807 212.269)" fill="#FECE2D"/>
<rect width="1.93737" height="15.0011" rx="0.968686" transform="matrix(-0.860391 -0.509634 0.616923 -0.787023 344.07 212.764)" fill="#FECE2D"/>
<path fill-rule="evenodd" clip-rule="evenodd" d="M365.561 122.479L366.258 172.506C366.388 178.656 360.581 183.21 354.64 181.618L296.397 166.012C289.745 164.23 285.069 158.268 284.924 151.382L284.289 104.303C284.134 96.9594 291.068 91.5208 298.163 93.4218L354.64 108.555C360.972 110.251 365.422 115.926 365.561 122.479Z" fill="#0D182E"/>
<rect x="302.964" y="107.038" width="2.34693" height="45.7243" rx="1.17347" transform="rotate(-1 302.964 107.038)" fill="#0CB9FB"/>
<rect x="309.14" y="126.659" width="2.34693" height="28.033" rx="1.17347" transform="rotate(-1 309.14 126.659)" fill="#0CB9FB"/>
<rect x="315.52" y="137.449" width="2.34693" height="19.0359" rx="1.17347" transform="rotate(-1 315.52 137.449)" fill="#0CB9FB"/>
<rect x="321.478" y="123.914" width="2.34693" height="34.1606" rx="1.17347" transform="rotate(-1 321.478 123.914)" fill="#0CB9FB"/>
<rect x="328.096" y="148.2" width="2.34693" height="11.5279" rx="1.17347" transform="rotate(-1 328.096 148.2)" fill="#0CB9FB"/>
<rect x="334.106" y="137.716" width="2.34693" height="23.7388" rx="1.17347" transform="rotate(-1 334.106 137.716)" fill="#0CB9FB"/>
<rect x="340.628" y="156.479" width="2.34693" height="6.56071" rx="1.17347" transform="rotate(-1 340.628 156.479)" fill="#0CB9FB"/>
<path fill-rule="evenodd" clip-rule="evenodd" d="M455.08 144.075L458.623 311.514C458.753 317.663 452.946 322.218 447.005 320.626L388.762 305.02C382.11 303.237 377.435 297.275 377.289 290.39L373.808 125.899C373.652 118.556 380.587 113.117 387.682 115.018L444.159 130.151C450.491 131.848 454.941 137.522 455.08 144.075Z" fill="#0D182E"/>
<path fill-rule="evenodd" clip-rule="evenodd" d="M381.101 145.583C381.101 149.547 384.098 153.563 387.796 154.553C391.494 155.544 394.491 153.135 394.491 149.171C394.491 145.208 391.494 141.192 387.796 140.201C384.098 139.211 381.101 141.62 381.101 145.583Z" fill="#FECE2D"/>
<mask id="mask0_552_1190" style="mask-type:alpha" maskUnits="userSpaceOnUse" x="381" y="139" width="14" height="16">
<path d="M394.491 149.171C394.491 153.135 391.494 155.544 387.796 154.553C384.098 153.563 381.1 149.547 381.101 145.583C381.101 141.62 384.098 139.211 387.796 140.202C391.494 141.192 394.491 145.208 394.491 149.171Z" fill="white"/>
</mask>
<g mask="url(#mask0_552_1190)">
<path fill-rule="evenodd" clip-rule="evenodd" d="M386.13 148.881L386.131 148.882C385.312 148.039 384.73 146.898 384.631 145.763C384.462 143.833 385.751 142.65 387.51 143.121C389.269 143.593 390.831 145.54 391 147.47C391.1 148.605 390.695 149.481 389.987 149.915L389.987 149.915C391.795 150.928 393.241 153.048 393.425 155.152L393.63 157.491L383.671 154.822L383.466 152.483C383.282 150.379 384.417 148.951 386.13 148.881Z" fill="#2C5AA0"/>
</g>
<path fill-rule="evenodd" clip-rule="evenodd" d="M400.139 151.718L416.218 156.027C416.585 156.125 416.803 156.502 416.705 156.87C416.606 157.237 416.229 157.455 415.862 157.356L399.783 153.048C399.416 152.949 399.198 152.572 399.297 152.205C399.395 151.838 399.772 151.62 400.139 151.718Z" fill="#FECE2D"/>
<path fill-rule="evenodd" clip-rule="evenodd" d="M400.852 147.919L428.36 155.29C428.988 155.458 429.403 155.947 429.286 156.381C429.17 156.815 428.566 157.031 427.938 156.863L400.431 149.492C399.803 149.324 399.388 148.835 399.505 148.401C399.621 147.967 400.224 147.751 400.852 147.919Z" fill="#FECE2D"/>
<path fill-rule="evenodd" clip-rule="evenodd" d="M381.629 177.086C381.629 181.049 384.626 185.065 388.324 186.056C392.022 187.047 395.019 184.637 395.019 180.674C395.019 176.711 392.022 172.695 388.324 171.704C384.626 170.713 381.629 173.123 381.629 177.086Z" fill="#FECE2D"/>
<mask id="mask1_552_1190" style="mask-type:alpha" maskUnits="userSpaceOnUse" x="381" y="171" width="15" height="16">
<path d="M395.019 180.674C395.019 184.637 392.022 187.047 388.324 186.056C384.626 185.065 381.628 181.049 381.629 177.086C381.629 173.123 384.626 170.713 388.324 171.704C392.022 172.695 395.019 176.711 395.019 180.674Z" fill="white"/>
</mask>
<g mask="url(#mask1_552_1190)">
<path fill-rule="evenodd" clip-rule="evenodd" d="M386.658 180.384L386.659 180.384C385.839 179.541 385.258 178.401 385.159 177.266C384.99 175.335 386.279 174.153 388.038 174.624C389.796 175.095 391.359 177.042 391.528 178.972C391.628 180.107 391.223 180.983 390.515 181.417L390.515 181.417C392.323 182.43 393.769 184.55 393.953 186.654L394.158 188.993L384.199 186.325L383.994 183.986C383.81 181.881 384.945 180.453 386.658 180.384Z" fill="#2C5AA0"/>
</g>
<path fill-rule="evenodd" clip-rule="evenodd" d="M400.667 183.221L416.746 187.529C417.113 187.628 417.331 188.005 417.233 188.372C417.134 188.739 416.757 188.957 416.39 188.859L400.311 184.55C399.944 184.452 399.726 184.075 399.824 183.707C399.923 183.34 400.3 183.122 400.667 183.221Z" fill="#FECE2D"/>
<path fill-rule="evenodd" clip-rule="evenodd" d="M401.38 179.422L428.888 186.792C429.516 186.961 429.93 187.449 429.814 187.883C429.697 188.318 429.094 188.533 428.466 188.365L400.959 180.995C400.331 180.826 399.916 180.338 400.032 179.903C400.149 179.469 400.752 179.253 401.38 179.422Z" fill="#FECE2D"/>
<path fill-rule="evenodd" clip-rule="evenodd" d="M382.156 208.588C382.156 212.551 385.154 216.567 388.852 217.558C392.55 218.549 395.547 216.139 395.547 212.176C395.547 208.213 392.549 204.197 388.852 203.206C385.154 202.215 382.156 204.625 382.156 208.588Z" fill="#FECE2D"/>
<mask id="mask2_552_1190" style="mask-type:alpha" maskUnits="userSpaceOnUse" x="382" y="202" width="14" height="16">
<path d="M395.547 212.176C395.547 216.139 392.549 218.549 388.851 217.558C385.154 216.567 382.156 212.551 382.156 208.588C382.156 204.625 385.154 202.216 388.852 203.206C392.549 204.197 395.547 208.213 395.547 212.176Z" fill="white"/>
</mask>
<g mask="url(#mask2_552_1190)">
<path fill-rule="evenodd" clip-rule="evenodd" d="M387.186 211.886L387.187 211.886C386.367 211.043 385.786 209.903 385.686 208.768C385.518 206.838 386.806 205.655 388.565 206.126C390.324 206.597 391.887 208.544 392.056 210.475C392.155 211.61 391.75 212.486 391.042 212.92L391.043 212.92C392.851 213.933 394.297 216.052 394.481 218.157L394.686 220.496L384.726 217.827L384.522 215.488C384.337 213.384 385.473 211.956 387.186 211.886Z" fill="#2C5AA0"/>
</g>
<path fill-rule="evenodd" clip-rule="evenodd" d="M401.195 214.723L417.274 219.031C417.641 219.13 417.859 219.507 417.76 219.874C417.662 220.241 417.285 220.459 416.917 220.361L400.838 216.053C400.471 215.954 400.254 215.577 400.352 215.21C400.45 214.843 400.827 214.625 401.195 214.723Z" fill="#FECE2D"/>
<path fill-rule="evenodd" clip-rule="evenodd" d="M401.908 210.924L429.415 218.295C430.043 218.463 430.458 218.951 430.342 219.386C430.225 219.82 429.622 220.036 428.994 219.867L401.486 212.497C400.858 212.329 400.444 211.84 400.56 211.406C400.676 210.971 401.28 210.756 401.908 210.924Z" fill="#FECE2D"/>
<path fill-rule="evenodd" clip-rule="evenodd" d="M382.684 240.091C382.684 244.054 385.682 248.07 389.38 249.061C393.077 250.051 396.075 247.642 396.075 243.679C396.075 239.715 393.077 235.699 389.38 234.709C385.682 233.718 382.684 236.127 382.684 240.091Z" fill="#FECE2D"/>
<mask id="mask3_552_1190" style="mask-type:alpha" maskUnits="userSpaceOnUse" x="382" y="234" width="15" height="16">
<path d="M396.075 243.679C396.075 247.642 393.077 250.051 389.379 249.061C385.682 248.07 382.684 244.054 382.684 240.091C382.684 236.127 385.682 233.718 389.38 234.709C393.077 235.7 396.075 239.715 396.075 243.679Z" fill="white"/>
</mask>
<g mask="url(#mask3_552_1190)">
<path fill-rule="evenodd" clip-rule="evenodd" d="M387.714 243.389L387.715 243.389C386.895 242.546 386.314 241.405 386.214 240.27C386.046 238.34 387.335 237.157 389.094 237.629C390.852 238.1 392.415 240.047 392.584 241.977C392.683 243.112 392.278 243.988 391.57 244.422L391.571 244.422C393.379 245.435 394.825 247.555 395.009 249.659L395.214 251.998L385.254 249.329L385.05 246.99C384.866 244.886 386.001 243.458 387.714 243.389Z" fill="#2C5AA0"/>
</g>
<path fill-rule="evenodd" clip-rule="evenodd" d="M401.723 246.226L417.802 250.534C418.169 250.632 418.387 251.01 418.288 251.377C418.19 251.744 417.813 251.962 417.445 251.863L401.367 247.555C400.999 247.457 400.782 247.079 400.88 246.712C400.978 246.345 401.356 246.127 401.723 246.226Z" fill="#FECE2D"/>
<path fill-rule="evenodd" clip-rule="evenodd" d="M402.436 242.426L429.943 249.797C430.571 249.965 430.986 250.454 430.87 250.888C430.753 251.322 430.15 251.538 429.522 251.37L402.014 243.999C401.386 243.831 400.972 243.342 401.088 242.908C401.204 242.474 401.808 242.258 402.436 242.426Z" fill="#FECE2D"/>
<path fill-rule="evenodd" clip-rule="evenodd" d="M383.212 271.593C383.212 275.556 386.21 279.572 389.907 280.563C393.605 281.554 396.603 279.144 396.603 275.181C396.603 271.218 393.605 267.202 389.907 266.211C386.209 265.22 383.212 267.63 383.212 271.593Z" fill="#FECE2D"/>
<mask id="mask4_552_1190" style="mask-type:alpha" maskUnits="userSpaceOnUse" x="383" y="265" width="14" height="16">
<path d="M396.602 275.181C396.603 279.144 393.605 281.554 389.907 280.563C386.21 279.572 383.212 275.556 383.212 271.593C383.212 267.63 386.209 265.22 389.907 266.211C393.605 267.202 396.602 271.218 396.602 275.181Z" fill="white"/>
</mask>
<g mask="url(#mask4_552_1190)">
<path fill-rule="evenodd" clip-rule="evenodd" d="M388.241 274.891L388.242 274.891C387.423 274.048 386.841 272.908 386.742 271.773C386.573 269.842 387.862 268.66 389.621 269.131C391.38 269.602 392.942 271.549 393.111 273.479C393.211 274.614 392.806 275.49 392.098 275.924L392.098 275.924C393.907 276.937 395.352 279.057 395.537 281.161L395.741 283.5L385.782 280.832L385.577 278.493C385.393 276.388 386.528 274.96 388.241 274.891Z" fill="#2C5AA0"/>
</g>
<path fill-rule="evenodd" clip-rule="evenodd" d="M402.25 277.728L418.329 282.036C418.697 282.134 418.914 282.512 418.816 282.879C418.718 283.246 418.34 283.464 417.973 283.366L401.894 279.057C401.527 278.959 401.309 278.582 401.408 278.214C401.506 277.847 401.883 277.629 402.25 277.728Z" fill="#FECE2D"/>
<path fill-rule="evenodd" clip-rule="evenodd" d="M402.963 273.929L430.471 281.299C431.099 281.467 431.514 281.956 431.397 282.39C431.281 282.825 430.677 283.04 430.049 282.872L402.542 275.502C401.914 275.333 401.499 274.845 401.616 274.41C401.732 273.976 402.335 273.76 402.963 273.929Z" fill="#FECE2D"/>
<path fill-rule="evenodd" clip-rule="evenodd" d="M276.701 97.3122L280.245 264.751C280.375 270.9 274.568 275.455 268.627 273.863L210.384 258.257C203.732 256.474 199.056 250.512 198.911 243.627L195.429 79.136C195.274 71.7925 202.209 66.3538 209.303 68.2549L265.781 83.3879C272.112 85.0845 276.562 90.7588 276.701 97.3122Z" fill="#0D182E"/>
<path fill-rule="evenodd" clip-rule="evenodd" d="M208.705 172.11C207.139 174.821 207.604 178.752 209.742 180.89C211.88 183.028 214.883 182.564 216.448 179.853C218.013 177.142 217.549 173.21 215.411 171.072C213.272 168.934 210.27 169.398 208.705 172.11Z" fill="#FECE2D"/>
<path fill-rule="evenodd" clip-rule="evenodd" d="M207.594 118.366C206.028 121.078 206.493 125.009 208.631 127.147C210.769 129.285 213.772 128.821 215.337 126.11C216.902 123.399 216.438 119.467 214.3 117.329C212.161 115.191 209.159 115.655 207.594 118.366Z" fill="#FECE2D"/>
<path fill-rule="evenodd" clip-rule="evenodd" d="M209.26 198.981C207.695 201.692 208.159 205.623 210.297 207.762C212.436 209.9 215.438 209.436 217.003 206.725C218.569 204.013 218.104 200.082 215.966 197.944C213.828 195.805 210.825 196.27 209.26 198.981Z" fill="#FECE2D"/>
<path fill-rule="evenodd" clip-rule="evenodd" d="M208.149 145.238C206.583 147.949 207.048 151.88 209.186 154.019C211.324 156.157 214.327 155.693 215.892 152.982C217.457 150.27 216.993 146.339 214.855 144.201C212.716 142.062 209.714 142.527 208.149 145.238Z" fill="#FECE2D"/>
<path fill-rule="evenodd" clip-rule="evenodd" d="M209.815 225.853C208.25 228.564 208.714 232.495 210.853 234.633C212.991 236.772 215.993 236.307 217.559 233.596C219.124 230.885 218.66 226.953 216.521 224.815C214.383 222.677 211.381 223.141 209.815 225.853Z" fill="#FECE2D"/>
<path fill-rule="evenodd" clip-rule="evenodd" d="M207.038 91.4949C205.473 94.2062 205.937 98.1373 208.076 100.276C210.214 102.414 213.216 101.95 214.782 99.2384C216.347 96.5271 215.882 92.5957 213.744 90.4575C211.606 88.3192 208.604 88.7837 207.038 91.4949Z" fill="#FECE2D"/>
<g clip-path="url(#clip0_552_1190)">
<path d="M208.846 95.0609L210.374 97.2829L212.919 92.839" stroke="#0D182E" stroke-width="2.08333" stroke-linecap="round" stroke-linejoin="round"/>
</g>
<g clip-path="url(#clip1_552_1190)">
<path d="M209.401 122.28L210.929 124.501L213.475 120.058" stroke="#0D182E" stroke-width="2.08333" stroke-linecap="round" stroke-linejoin="round"/>
</g>
<g clip-path="url(#clip2_552_1190)">
<path d="M209.957 149.498L211.484 151.72L214.03 147.276" stroke="#0D182E" stroke-width="2.08333" stroke-linecap="round" stroke-linejoin="round"/>
</g>
<g clip-path="url(#clip3_552_1190)">
<path d="M210.512 176.161L212.04 178.383L214.586 173.939" stroke="#0D182E" stroke-width="2.08333" stroke-linecap="round" stroke-linejoin="round"/>
</g>
<g clip-path="url(#clip4_552_1190)">
<path d="M211.068 203.38L212.595 205.602L215.141 201.158" stroke="#0D182E" stroke-width="2.08333" stroke-linecap="round" stroke-linejoin="round"/>
</g>
<g clip-path="url(#clip5_552_1190)">
<path d="M211.623 230.043L213.151 232.265L215.697 227.821" stroke="#0D182E" stroke-width="2.08333" stroke-linecap="round" stroke-linejoin="round"/>
</g>
<path fill-rule="evenodd" clip-rule="evenodd" d="M224.297 97.258L251.194 104.465C251.809 104.63 252.173 105.261 252.008 105.875C251.844 106.489 251.213 106.854 250.599 106.689L223.701 99.4819C223.087 99.3173 222.723 98.6861 222.887 98.0719C223.052 97.4579 223.683 97.0934 224.297 97.258Z" fill="#FECE2D"/>
<path fill-rule="evenodd" clip-rule="evenodd" d="M224.853 123.949L251.75 131.156C252.364 131.321 252.728 131.952 252.564 132.566C252.399 133.18 251.768 133.545 251.154 133.38L224.257 126.173C223.643 126.009 223.278 125.377 223.443 124.763C223.607 124.149 224.238 123.785 224.853 123.949Z" fill="#FECE2D"/>
<path fill-rule="evenodd" clip-rule="evenodd" d="M225.408 150.641L252.306 157.848C252.92 158.012 253.284 158.643 253.12 159.257C252.955 159.872 252.324 160.236 251.71 160.072L224.812 152.864C224.198 152.7 223.834 152.069 223.999 151.454C224.163 150.84 224.794 150.476 225.408 150.641Z" fill="#FECE2D"/>
<path fill-rule="evenodd" clip-rule="evenodd" d="M225.964 177.332L252.861 184.539C253.475 184.704 253.839 185.335 253.675 185.949C253.51 186.563 252.879 186.928 252.265 186.763L225.368 179.556C224.754 179.391 224.389 178.76 224.554 178.146C224.718 177.532 225.35 177.167 225.964 177.332Z" fill="#FECE2D"/>
<path fill-rule="evenodd" clip-rule="evenodd" d="M226.519 204.023L253.416 211.23C254.031 211.395 254.395 212.026 254.23 212.64C254.066 213.254 253.435 213.619 252.82 213.454L225.923 206.247C225.309 206.083 224.945 205.451 225.109 204.837C225.274 204.223 225.905 203.859 226.519 204.023Z" fill="#FECE2D"/>
<path fill-rule="evenodd" clip-rule="evenodd" d="M227.075 230.714L253.972 237.922C254.586 238.086 254.951 238.717 254.786 239.331C254.621 239.946 253.99 240.31 253.376 240.145L226.479 232.938C225.865 232.774 225.5 232.143 225.665 231.528C225.83 230.914 226.461 230.55 227.075 230.714Z" fill="#FECE2D"/>
<path fill-rule="evenodd" clip-rule="evenodd" d="M546.407 167.185L549.95 334.624C550.08 340.773 544.273 345.327 538.332 343.735L480.09 328.129C473.437 326.347 468.762 320.385 468.616 313.499L465.135 149.008C464.98 141.665 471.914 136.226 479.009 138.127L535.486 153.26C541.818 154.957 546.268 160.631 546.407 167.185Z" fill="#0D182E"/>
<path fill-rule="evenodd" clip-rule="evenodd" d="M477.765 245.906C476.2 248.617 476.664 252.548 478.803 254.687C480.941 256.825 483.943 256.361 485.509 253.65C487.074 250.938 486.61 247.007 484.471 244.869C482.333 242.73 479.331 243.195 477.765 245.906Z" fill="#FECE2D"/>
<path fill-rule="evenodd" clip-rule="evenodd" d="M476.655 192.163C475.089 194.874 475.554 198.805 477.692 200.944C479.83 203.082 482.833 202.618 484.398 199.906C485.963 197.195 485.499 193.264 483.361 191.126C481.222 188.987 478.22 189.452 476.655 192.163Z" fill="#FECE2D"/>
<path fill-rule="evenodd" clip-rule="evenodd" d="M478.321 272.778C476.756 275.489 477.22 279.42 479.359 281.558C481.497 283.697 484.499 283.232 486.065 280.521C487.63 277.81 487.165 273.878 485.027 271.74C482.889 269.602 479.886 270.066 478.321 272.778Z" fill="#FECE2D"/>
<path fill-rule="evenodd" clip-rule="evenodd" d="M477.209 219.035C475.644 221.746 476.109 225.677 478.247 227.815C480.385 229.953 483.388 229.489 484.953 226.778C486.518 224.067 486.054 220.135 483.915 217.997C481.777 215.859 478.775 216.323 477.209 219.035Z" fill="#FECE2D"/>
<path fill-rule="evenodd" clip-rule="evenodd" d="M478.877 299.649C477.311 302.36 477.776 306.291 479.914 308.43C482.052 310.568 485.055 310.104 486.62 307.393C488.185 304.681 487.721 300.75 485.583 298.612C483.444 296.473 480.442 296.938 478.877 299.649Z" fill="#FECE2D"/>
<path fill-rule="evenodd" clip-rule="evenodd" d="M476.099 165.291C474.534 168.003 474.998 171.934 477.136 174.072C479.275 176.21 482.277 175.746 483.843 173.035C485.408 170.324 484.943 166.392 482.805 164.254C480.667 162.116 477.664 162.58 476.099 165.291Z" fill="#FECE2D"/>
<g clip-path="url(#clip6_552_1190)">
<path d="M477.907 168.857L479.435 171.079L481.981 166.636" stroke="#0D182E" stroke-width="2.08333" stroke-linecap="round" stroke-linejoin="round"/>
</g>
<g clip-path="url(#clip7_552_1190)">
<path d="M478.462 196.076L479.99 198.298L482.536 193.854" stroke="#0D182E" stroke-width="2.08333" stroke-linecap="round" stroke-linejoin="round"/>
</g>
<g clip-path="url(#clip8_552_1190)">
<path d="M479.018 223.295L480.546 225.517L483.091 221.073" stroke="#0D182E" stroke-width="2.08333" stroke-linecap="round" stroke-linejoin="round"/>
</g>
<g clip-path="url(#clip9_552_1190)">
<path d="M479.573 249.958L481.101 252.18L483.647 247.736" stroke="#0D182E" stroke-width="2.08333" stroke-linecap="round" stroke-linejoin="round"/>
</g>
<g clip-path="url(#clip10_552_1190)">
<path d="M480.129 277.176L481.656 279.398L484.202 274.954" stroke="#0D182E" stroke-width="2.08333" stroke-linecap="round" stroke-linejoin="round"/>
</g>
<g clip-path="url(#clip11_552_1190)">
<path d="M480.684 303.839L482.212 306.061L484.758 301.617" stroke="#0D182E" stroke-width="2.08333" stroke-linecap="round" stroke-linejoin="round"/>
</g>
<path fill-rule="evenodd" clip-rule="evenodd" d="M493.358 171.055L520.255 178.262C520.87 178.426 521.234 179.057 521.069 179.671C520.905 180.286 520.274 180.65 519.659 180.486L492.762 173.278C492.148 173.114 491.784 172.483 491.948 171.868C492.113 171.254 492.744 170.89 493.358 171.055Z" fill="#FECE2D"/>
<path fill-rule="evenodd" clip-rule="evenodd" d="M493.914 197.746L520.811 204.953C521.425 205.117 521.789 205.749 521.625 206.363C521.46 206.977 520.829 207.341 520.215 207.177L493.318 199.97C492.704 199.805 492.339 199.174 492.504 198.56C492.668 197.946 493.299 197.581 493.914 197.746Z" fill="#FECE2D"/>
<path fill-rule="evenodd" clip-rule="evenodd" d="M494.469 224.437L521.366 231.644C521.981 231.809 522.345 232.44 522.18 233.054C522.016 233.668 521.385 234.033 520.771 233.868L493.873 226.661C493.259 226.496 492.895 225.865 493.059 225.251C493.224 224.637 493.855 224.273 494.469 224.437Z" fill="#FECE2D"/>
<path fill-rule="evenodd" clip-rule="evenodd" d="M495.025 251.128L521.922 258.335C522.536 258.5 522.9 259.131 522.736 259.745C522.571 260.359 521.94 260.724 521.326 260.559L494.429 253.352C493.815 253.188 493.45 252.557 493.615 251.942C493.779 251.328 494.41 250.964 495.025 251.128Z" fill="#FECE2D"/>
<path fill-rule="evenodd" clip-rule="evenodd" d="M495.58 277.82L522.477 285.027C523.092 285.191 523.456 285.823 523.291 286.437C523.127 287.051 522.496 287.415 521.882 287.251L494.984 280.044C494.37 279.879 494.006 279.248 494.17 278.634C494.335 278.02 494.966 277.655 495.58 277.82Z" fill="#FECE2D"/>
<path fill-rule="evenodd" clip-rule="evenodd" d="M496.136 304.511L523.033 311.718C523.647 311.883 524.011 312.514 523.847 313.128C523.682 313.742 523.051 314.107 522.437 313.942L495.54 306.735C494.926 306.57 494.561 305.939 494.726 305.325C494.89 304.711 495.522 304.346 496.136 304.511Z" fill="#FECE2D"/>
<rect x="300.687" y="261.761" width="53.0951" height="1.58349" rx="0.791745" transform="rotate(14.8353 300.687 261.761)" fill="#0CB9FB"/>
<rect x="308.54" y="269.679" width="33.2382" height="1.58349" rx="0.791745" transform="rotate(14.8353 308.54 269.679)" fill="#0CB9FB"/>
<rect x="314.865" y="277.596" width="18.4579" height="1.58349" rx="0.791745" transform="rotate(14.8353 314.865 277.596)" fill="#0CB9FB"/>
<path fill-rule="evenodd" clip-rule="evenodd" d="M136.645 163.845C142.616 167.444 148.483 169.183 151.237 168.473C158.143 166.693 158.777 141.43 153.434 131.47C148.091 121.511 120.622 117.17 119.237 136.903C118.757 143.751 121.633 149.863 125.881 154.851L118.263 190.36H140.393L136.645 163.845Z" fill="#B28B67"/>
<path fill-rule="evenodd" clip-rule="evenodd" d="M124.181 159.293C121.403 146.936 113.491 138.512 114.699 132.989C115.908 127.467 121.141 126.12 121.141 126.12C121.141 126.12 123.848 115.171 138.6 116.806C153.352 118.441 162.356 124.567 158.468 138.048C154.893 138.048 150.578 136.756 144.612 138.97C141.772 140.024 140.549 145.508 140.549 145.508H137.853C137.853 145.508 133.928 139 130.112 140.725C126.297 142.45 128.378 149.105 128.378 149.105L127.049 159.293H124.181Z" fill="#4A312C"/>
<path fill-rule="evenodd" clip-rule="evenodd" d="M110.886 266.892L144.663 383.284L160.55 470.672H176.495L160.578 266.892H110.886Z" fill="#B28B67"/>
<path fill-rule="evenodd" clip-rule="evenodd" d="M110.886 266.892L144.663 383.284L160.55 470.672H176.495L160.578 266.892H110.886Z" fill="black" fill-opacity="0.1"/>
<path fill-rule="evenodd" clip-rule="evenodd" d="M95.707 266.892C98.0639 327.357 97.1344 360.336 96.607 365.83C96.0795 371.324 93.0846 408.115 72.6787 472.516H89.2635C116.288 410.734 125.722 373.942 128.821 365.83C131.921 357.717 141.074 324.738 154.439 266.892H95.707Z" fill="#B28B67"/>
<path fill-rule="evenodd" clip-rule="evenodd" d="M110.161 266.892C118.947 306.943 134.143 370.874 155.748 458.685H179.07C180.793 368.555 173.465 309.235 160.775 266.892H110.161Z" fill="#E2B727"/>
<path fill-rule="evenodd" clip-rule="evenodd" d="M95.5891 266.892C97.8971 327.357 91.9156 386.926 73.386 459.627H98.2696C125.344 398.766 144.748 339.491 158.01 266.892H95.5891Z" fill="#FECE2D"/>
<path fill-rule="evenodd" clip-rule="evenodd" d="M70.3149 484.503L71.1586 470.902C71.1952 470.312 71.7694 469.908 72.3478 470.03C80.3397 471.729 91.3623 467.906 91.3623 467.906C102.456 475.764 118.448 479.37 124.08 480.45C125.169 480.659 125.868 481.758 125.566 482.825L124.306 487.27H91.3623H72.1451L70.3149 484.503Z" fill="#E2E2E2"/>
<path fill-rule="evenodd" clip-rule="evenodd" d="M156.99 484.503L157.834 470.902C157.871 470.312 158.444 469.908 159.023 470.03C167.015 471.729 178.038 467.906 178.038 467.906C189.131 475.764 205.124 479.37 210.755 480.45C211.845 480.659 212.544 481.758 212.241 482.825L210.981 487.27H178.038H158.821L156.99 484.503Z" fill="#E2E2E2"/>
<path fill-rule="evenodd" clip-rule="evenodd" d="M224.634 161.741L189.683 172.232L198.607 187.098L225.782 171.105C238.467 170.35 244.46 169.099 243.762 167.352C243.173 165.879 241.772 165.628 240.482 165.397C239.477 165.217 238.54 165.049 238.104 164.325C237.111 162.671 240.592 158.365 244.069 154.42C247.547 150.475 244.764 150.291 243.084 150.608C237.304 152.954 231.154 156.665 224.634 161.741ZM216.008 255.451L186.595 233.853L180.093 249.925L209.219 262.003C217.457 271.68 222.063 275.713 223.037 274.105C223.86 272.749 223.217 271.479 222.625 270.309C222.164 269.398 221.734 268.548 222.051 267.765C222.775 265.976 228.308 266.164 233.551 266.568C238.794 266.971 237.266 264.638 236.002 263.485C230.65 260.282 223.985 257.604 216.008 255.451Z" fill="#B28B67"/>
<path fill-rule="evenodd" clip-rule="evenodd" d="M140.91 175.687C156.926 205.552 180.088 228.447 213.666 252.246L200.952 266.582C163.461 252.649 143.674 244.243 133.957 216.026C131.518 208.944 129.814 186.368 128.352 174.49L140.91 175.687Z" fill="#2C5AA0"/>
<path fill-rule="evenodd" clip-rule="evenodd" d="M96.1328 275.191H167.133C167.133 275.191 143.009 201.617 142.486 174.197C142.468 173.265 140.747 171.623 139.986 171.838C131.633 174.197 122.11 170.074 122.11 170.074C105.278 197.145 99.4567 230.474 96.1328 275.191Z" fill="#E2E2E2"/>
<path fill-rule="evenodd" clip-rule="evenodd" d="M139.918 211.375C151.007 258.942 150.497 297.88 126.014 297.88H88.1576C82.145 257.473 97.9473 201.447 112.597 173.188C113.157 172.108 114.347 170.074 117.153 170.074H128.154C128.158 170.089 128.163 170.103 128.168 170.118C131.478 170.145 135.124 170.266 139.071 170.397C159.395 171.072 187.733 172.012 219.62 161.775L223.38 180.561C194.599 199.072 165.456 213.411 139.918 211.375Z" fill="#4186EC"/>
<defs>
<clipPath id="clip0_552_1190">
<rect width="6.11029" height="8.88769" fill="white" transform="translate(207.828 90.6171)"/>
</clipPath>
<clipPath id="clip1_552_1190">
<rect width="6.11029" height="8.88769" fill="white" transform="translate(208.383 117.836)"/>
</clipPath>
<clipPath id="clip2_552_1190">
<rect width="6.11029" height="8.88769" fill="white" transform="translate(208.938 145.054)"/>
</clipPath>
<clipPath id="clip3_552_1190">
<rect width="6.11029" height="8.88769" fill="white" transform="translate(209.494 171.717)"/>
</clipPath>
<clipPath id="clip4_552_1190">
<rect width="6.11029" height="8.88769" fill="white" transform="translate(210.05 198.936)"/>
</clipPath>
<clipPath id="clip5_552_1190">
<rect width="6.11029" height="8.88769" fill="white" transform="translate(210.605 225.599)"/>
</clipPath>
<clipPath id="clip6_552_1190">
<rect width="6.11029" height="8.88769" fill="white" transform="translate(476.889 164.414)"/>
</clipPath>
<clipPath id="clip7_552_1190">
<rect width="6.11029" height="8.88769" fill="white" transform="translate(477.444 191.632)"/>
</clipPath>
<clipPath id="clip8_552_1190">
<rect width="6.11029" height="8.88769" fill="white" transform="translate(478 218.851)"/>
</clipPath>
<clipPath id="clip9_552_1190">
<rect width="6.11029" height="8.88769" fill="white" transform="translate(478.555 245.514)"/>
</clipPath>
<clipPath id="clip10_552_1190">
<rect width="6.11029" height="8.88769" fill="white" transform="translate(479.11 272.732)"/>
</clipPath>
<clipPath id="clip11_552_1190">
<rect width="6.11029" height="8.88769" fill="white" transform="translate(479.666 299.395)"/>
</clipPath>
</defs>
</svg>
