<svg width="727" height="521" viewBox="0 0 727 521" fill="none" xmlns="http://www.w3.org/2000/svg">
<path fill-rule="evenodd" clip-rule="evenodd" d="M594.608 426.66H46.2165C34.384 426.66 24.7926 417.07 24.7926 405.238V57.1028C24.7926 45.2718 34.384 35.6804 46.2165 35.6804H594.608C606.44 35.6804 616.03 45.2718 616.03 57.1028V405.238C616.03 417.07 606.44 426.66 594.608 426.66Z" fill="#4186EC"/>
<path fill-rule="evenodd" clip-rule="evenodd" d="M614.457 431.954H26.2413C11.7867 431.954 0.0688477 420.235 0.0688477 405.78V397.743H640.631V405.78C640.631 420.235 628.911 431.954 614.457 431.954Z" fill="#2C5AA0"/>
<path fill-rule="evenodd" clip-rule="evenodd" d="M40.6629 381.391H598.507V51.2136H40.6629V381.391Z" fill="white"/>
<path fill-rule="evenodd" clip-rule="evenodd" d="M262.128 397.744L270.077 410.388H381.926L389.308 397.744H262.128Z" fill="#0D182E"/>
<path fill-rule="evenodd" clip-rule="evenodd" d="M491.999 371.649L115.26 371.079C107.616 371.063 101.426 364.869 101.438 357.224L101.865 75.6403C101.877 67.9955 108.083 61.8172 115.728 61.8291L492.468 62.394C500.112 62.4105 506.301 68.6086 506.29 76.2442L505.862 357.837C505.851 365.478 499.645 371.656 491.999 371.649Z" fill="white"/>
<path fill-rule="evenodd" clip-rule="evenodd" d="M115.729 59.6786L492.47 60.2432C501.301 60.262 508.45 67.4245 508.44 76.2472L508.012 357.841C507.997 366.667 500.829 373.807 491.993 373.799L115.254 373.228C106.419 373.212 99.2721 366.05 99.2859 357.221L99.7128 75.6368C99.7266 66.8052 106.896 59.6646 115.729 59.6786ZM503.712 357.834L504.141 76.2416C504.147 69.7943 498.919 64.5579 492.461 64.5441L115.722 63.9793C109.263 63.9691 104.024 69.188 104.014 75.6431L103.587 357.227C103.577 363.681 108.801 368.915 115.262 368.929L492.002 369.498C498.461 369.504 503.701 364.285 503.712 357.834Z" fill="#15294A"/>
<path fill-rule="evenodd" clip-rule="evenodd" d="M312.998 112.481L119.588 112.193L119.601 103.751L313.01 104.044L312.998 112.481Z" fill="#15294A"/>
<path fill-rule="evenodd" clip-rule="evenodd" d="M232.681 128.061L119.564 127.891L119.579 118.61L232.692 118.778L232.681 128.061Z" fill="#15294A"/>
<path fill-rule="evenodd" clip-rule="evenodd" d="M101.849 88.5769C101.849 88.5769 97.9042 65.1705 115.725 61.8287L492.472 62.3948C500.112 62.4106 503.32 67.4805 503.32 68.183L506.27 89.1943C506.267 89.8822 101.841 89.2686 101.849 88.5769Z" fill="#15294A"/>
<path fill-rule="evenodd" clip-rule="evenodd" d="M433.305 75.5901C433.295 78.916 430.591 81.6234 427.259 81.6225C423.918 81.6202 421.228 78.8996 421.233 75.5684C421.239 72.2326 423.942 69.5345 427.273 69.54C430.605 69.5408 433.31 72.2589 433.305 75.5901Z" fill="#FFF4E3"/>
<path fill-rule="evenodd" clip-rule="evenodd" d="M453.583 75.6132C453.578 78.9444 450.873 81.6565 447.542 81.651C444.21 81.6455 441.511 78.9235 441.515 75.5969C441.522 72.261 444.228 69.5683 447.559 69.5738C450.891 69.5793 453.587 72.2913 453.583 75.6132Z" fill="#FFF4E3"/>
<path fill-rule="evenodd" clip-rule="evenodd" d="M473.859 75.6519C473.854 78.9831 471.145 81.6897 467.814 81.6796C464.484 81.6695 461.787 78.9575 461.797 75.6316C461.794 72.2943 464.502 69.5923 467.838 69.5939C471.168 69.6086 473.865 72.3206 473.859 75.6519Z" fill="#FFF4E3"/>
<mask id="mask0_537_350" style="mask-type:alpha" maskUnits="userSpaceOnUse" x="108" y="178" width="162" height="123">
<path fill-rule="evenodd" clip-rule="evenodd" d="M108.354 178.829L108.177 300.322L269.453 300.57L269.634 179.075" fill="white"/>
</mask>
<g mask="url(#mask0_537_350)">
<path fill-rule="evenodd" clip-rule="evenodd" d="M156.598 228.356C155.743 244.481 179.091 269.779 179.091 269.779C179.091 269.779 201.675 247.054 201.702 228.42C201.718 215.971 191.637 205.862 179.189 205.842C166.731 205.821 157.267 215.919 156.598 228.356Z" fill="#15294A"/>
</g>
<mask id="mask1_537_350" style="mask-type:alpha" maskUnits="userSpaceOnUse" x="108" y="178" width="162" height="123">
<path fill-rule="evenodd" clip-rule="evenodd" d="M108.354 178.829L108.177 300.322L269.453 300.57L269.634 179.075" fill="white"/>
</mask>
<g mask="url(#mask1_537_350)">
<path fill-rule="evenodd" clip-rule="evenodd" d="M169.733 228.371C169.724 233.578 173.932 237.802 179.14 237.808C184.338 237.815 188.563 233.603 188.57 228.402C188.579 223.195 184.366 218.977 179.168 218.973C173.965 218.959 169.74 223.173 169.733 228.371Z" fill="white"/>
</g>
<path fill-rule="evenodd" clip-rule="evenodd" d="M131.494 235.539C131.456 262.362 153.246 284.196 180.059 284.236C206.879 284.274 228.722 262.508 228.766 235.69C228.807 208.874 207.021 187.01 180.205 186.97C153.392 186.933 131.537 208.727 131.494 235.539ZM109.142 235.499C109.201 196.368 141.094 164.562 180.238 164.624C219.382 164.682 251.178 196.573 251.12 235.717C251.061 274.865 219.166 306.647 180.025 306.59C140.881 306.525 109.083 274.649 109.142 235.499Z" fill="#FECE2D"/>
<path fill-rule="evenodd" clip-rule="evenodd" d="M120.322 306.74L141.315 285.827L129.955 274.434L108.97 295.361L120.322 306.74Z" fill="#FECE2D"/>
<mask id="mask2_537_350" style="mask-type:alpha" maskUnits="userSpaceOnUse" x="50" y="282" width="80" height="88">
<path fill-rule="evenodd" clip-rule="evenodd" d="M62.4789 282.126L129.403 292.536L117.487 369.152L50.5623 358.743L62.4789 282.126Z" fill="white"/>
</mask>
<g mask="url(#mask2_537_350)">
<path fill-rule="evenodd" clip-rule="evenodd" d="M98.1934 292.336L56.6557 333.75C52.2498 338.14 52.2426 345.271 56.6321 349.68L65.8443 358.913C70.2408 363.32 77.3648 363.329 81.7749 358.933L123.31 317.535C127.714 313.135 127.724 306.011 123.334 301.602L114.123 292.366C109.726 287.959 102.599 287.946 98.1934 292.336Z" fill="#15294A"/>
</g>
<path fill-rule="evenodd" clip-rule="evenodd" d="M573.775 177.874C567.457 181.682 561.249 183.522 558.335 182.771C551.029 180.887 550.357 154.157 556.011 143.619C561.664 133.081 590.728 128.488 592.193 149.367C592.702 156.613 589.659 163.08 585.163 168.357L593.224 205.929H569.809L573.775 177.874Z" fill="#B28B67"/>
<path fill-rule="evenodd" clip-rule="evenodd" d="M569.357 131.474C572.443 130.968 580.752 130.62 582.284 130.62C583.264 130.62 584.325 130.844 584.905 129.944C585.38 129.208 585.206 127.963 585.348 127.108C585.512 126.116 585.746 125.136 585.982 124.158C586.655 121.377 587.673 118.732 589.097 116.247C591.768 111.587 595.682 107.936 600.623 105.812C606.079 103.467 612.253 102.929 618.122 103.405C624.403 103.914 630.088 105.987 636.018 107.939C641.668 109.798 647.587 110.53 653.497 109.622C659.452 108.707 663.951 105.48 668.974 102.416C674.116 99.2804 679.992 97.2294 686.07 97.7009C691.744 98.1411 696.974 100.484 701.666 103.614C706.056 106.542 709.678 110.065 711.723 115.023C713.923 120.357 713.921 126.212 710.303 130.925C705.059 137.758 695.325 139.525 687.226 139.349C682.541 139.248 677.94 138.393 673.518 136.837C667.62 134.763 662.523 131.246 657.005 128.393C654.415 127.055 651.738 125.955 648.933 125.163C646.21 124.394 643.528 124.042 641.063 125.686C638.455 127.426 636.119 129.135 633.135 130.224C630.274 131.269 627.242 131.854 624.193 131.83C618.261 131.785 612.412 129.936 606.651 128.698C601.952 127.689 596.925 126.682 592.134 127.653C590.136 128.058 587.216 128.894 586.494 130.971C598.645 133.173 603.417 148.201 599.992 159.232C598.143 165.186 587.029 172.147 582.708 169.017C579.971 167.034 581.633 164.43 582.708 162.712C584.768 159.42 585.473 155.193 581.661 152.901C578.374 150.925 574.917 155.618 574.852 155.613C573.948 155.542 566.14 151.126 560.761 144.683C555.454 144.997 554.649 141.498 555.916 138.636C557.183 135.775 565.093 132.173 569.357 131.474Z" fill="#4A312C"/>
<path fill-rule="evenodd" clip-rule="evenodd" d="M599.078 286.906L526.583 408.107L472.231 510.571H460.525L551.59 286.906H599.078Z" fill="#997659"/>
<path fill-rule="evenodd" clip-rule="evenodd" d="M476.685 504.75C477.731 504.29 478.974 504.756 479.363 505.83C480.073 507.788 481.027 510.726 481.027 512.381C481.027 515.02 480.147 520.083 480.147 520.083C477.086 520.083 425.12 520.083 425.12 520.083C425.12 520.083 422.974 512.992 427.596 512.426C432.217 511.861 435.274 511.406 435.274 511.406L460.85 500.003C461.353 499.779 461.94 500.014 462.15 500.522L463.794 504.511C463.794 504.511 468.072 506.507 470.746 506.507C472.375 506.507 474.933 505.521 476.685 504.75Z" fill="#FECE2D"/>
<path fill-rule="evenodd" clip-rule="evenodd" d="M487.326 494.163L464.75 487.334C464.75 487.334 479.587 442.98 501.12 389.713C522.652 336.447 547.37 286.906 547.37 286.906H611.133C611.133 286.906 583.653 349.573 552.866 400.787C522.08 452.002 487.326 494.163 487.326 494.163Z" fill="#0A9AD1"/>
<path fill-rule="evenodd" clip-rule="evenodd" d="M603.842 286.906C610.684 329.497 623.882 383.911 625.127 385.591C625.957 386.71 655.848 396.726 714.798 415.638L712.27 425.962C641.971 415.819 604.93 407.949 601.146 402.354C595.469 393.961 567.127 327.652 556.15 286.906H603.842Z" fill="#B28B67"/>
<path fill-rule="evenodd" clip-rule="evenodd" d="M694.076 406.714L689.622 423.341C637.043 427.953 604.827 424.62 592.973 413.345C581.12 402.069 567.61 359.923 552.444 286.906H613.246C622.855 346.697 628.227 377.847 629.362 380.357C630.497 382.867 652.068 391.653 694.076 406.714Z" fill="#0CB9FB"/>
<path fill-rule="evenodd" clip-rule="evenodd" d="M710.368 413.811C710.096 412.702 710.771 411.558 711.896 411.361C713.948 411.002 717.006 410.574 718.637 410.861C721.236 411.319 726.069 413.065 726.069 413.065C725.537 416.079 716.513 467.256 716.513 467.256C716.513 467.256 709.158 468.137 709.403 463.487C709.649 458.839 709.731 455.749 709.731 455.749L702.943 428.581C702.81 428.049 703.144 427.51 703.68 427.392L707.893 426.465C707.893 426.465 710.602 422.599 711.066 419.964C711.349 418.361 710.823 415.671 710.368 413.811Z" fill="#FECE2D"/>
<path fill-rule="evenodd" clip-rule="evenodd" d="M478.604 242.93L517.125 248.184L510.214 265.442L478.957 253.051C465.485 254.38 458.97 254.06 459.413 252.091C459.787 250.431 461.219 249.929 462.538 249.468C463.566 249.108 464.525 248.772 464.861 247.931C465.631 246.011 461.251 242.03 456.935 238.432C452.619 234.834 455.516 234.172 457.337 234.225C463.81 235.742 470.899 238.644 478.604 242.93ZM666.009 337.55C663.15 331.749 638.133 257.101 638.133 257.101L616.769 257.181C616.769 257.181 651.908 336.257 653.413 339.987C655.368 344.832 652.047 351.871 649.795 356.645C649.447 357.383 649.124 358.067 648.851 358.681C651.975 360.079 653.476 358.389 655.059 356.608C656.846 354.595 658.737 352.466 663.189 354.536C664.909 355.337 666.537 356.283 668.127 357.208C673.62 360.4 678.666 363.334 685.53 359.097C686.618 358.426 687.811 355.898 684.929 353.923C677.751 349.001 667.406 340.386 666.009 337.55Z" fill="#B28B67"/>
<path fill-rule="evenodd" clip-rule="evenodd" d="M579.615 189.343L562.888 190.457C558.768 227.728 536.329 251.269 486.089 243.299L479.415 291.296C526.371 297.364 567.553 278.565 575.993 227.664C578.177 214.488 579.902 200.775 579.615 189.343Z" fill="#E2B727"/>
<path fill-rule="evenodd" clip-rule="evenodd" d="M663.078 327.883C651.465 266.09 626.952 218.284 589.54 184.465H587.936H587.881L587.867 184.48L562.523 190.285C562.523 220.728 555.75 243.476 549.239 265.345C546.427 274.789 543.664 284.07 541.516 293.736H609.963C610.927 304.81 611.519 316.193 611.828 327.883H663.078Z" fill="#FECE2D"/>
<path fill-rule="evenodd" clip-rule="evenodd" d="M609.963 293.736C608 271.19 604.494 249.92 598.7 229.928C599.97 251.308 600.322 277.831 596.051 293.736H609.963Z" fill="#E2B727"/>
<path fill-rule="evenodd" clip-rule="evenodd" d="M242.21 323.171H230.398V370.416H242.21V323.171ZM229.501 322.274V371.313H243.107V322.274H229.501Z" fill="#15294A"/>
<path fill-rule="evenodd" clip-rule="evenodd" d="M262.244 336.328H250.432V370.416H262.244V336.328ZM249.535 335.431V371.313H263.141V335.431H249.535Z" fill="#15294A"/>
<path fill-rule="evenodd" clip-rule="evenodd" d="M282.278 285.346H270.467V370.416H282.278V285.346ZM269.57 284.449V371.313H283.175V284.449H269.57Z" fill="#15294A"/>
<path fill-rule="evenodd" clip-rule="evenodd" d="M302.312 256.79H290.501V370.416H302.312V256.79ZM289.604 255.893V371.313H303.209V255.893H289.604Z" fill="#15294A"/>
<path fill-rule="evenodd" clip-rule="evenodd" d="M243.107 371.313V322.274H229.501V371.313H243.107ZM230.398 323.171H242.21V370.416H230.398V323.171Z" fill="#15294A"/>
<path fill-rule="evenodd" clip-rule="evenodd" d="M263.141 371.313V335.431H249.535V371.313H263.141ZM250.432 336.328H262.244V370.416H250.432V336.328Z" fill="#15294A"/>
<path fill-rule="evenodd" clip-rule="evenodd" d="M283.175 371.313V284.449H269.57V371.313H283.175ZM270.467 285.346H282.278V370.416H270.467V285.346Z" fill="#15294A"/>
<path fill-rule="evenodd" clip-rule="evenodd" d="M303.209 371.313V255.893H289.604V371.313H303.209ZM290.501 256.79H302.312V370.416H290.501V256.79Z" fill="#15294A"/>
<path fill-rule="evenodd" clip-rule="evenodd" d="M223.436 371.239H308.07V372.136H223.436V371.239Z" fill="#15294A"/>
<path d="M308.07 370.865V371.762H223.436V370.865H308.07Z" fill="#15294A"/>
<path fill-rule="evenodd" clip-rule="evenodd" d="M320.625 206.058C320.219 205.591 320.268 204.882 320.734 204.474L384.059 149.222C384.481 148.855 385.108 148.854 385.53 149.222L411.032 171.454L438.732 146.078C438.967 145.862 439.282 145.757 439.599 145.789C439.916 145.821 440.205 145.987 440.392 146.244L443.915 151.079L462.318 130.973C462.639 130.444 463.329 130.277 463.856 130.6C464.384 130.923 464.552 131.613 464.229 132.142L444.954 153.681C444.759 154.001 444.418 154.202 444.044 154.217C443.676 154.233 443.315 154.061 443.094 153.758L439.321 148.579L411.806 173.786C411.386 174.171 410.744 174.178 410.316 173.804L384.795 151.556C384.795 151.556 349.392 182.446 331.691 197.891C328.529 200.65 322.205 206.167 322.205 206.167C321.993 206.352 321.731 206.443 321.47 206.443C321.157 206.443 320.847 206.312 320.625 206.058Z" fill="#0CB9FB"/>
<g clip-path="url(#clip0_537_350)">
<path fill-rule="evenodd" clip-rule="evenodd" d="M457.722 271.092C457.989 271.358 458.201 271.675 458.346 272.023C458.491 272.372 458.565 272.746 458.565 273.123C458.565 273.501 458.491 273.875 458.346 274.223C458.201 274.572 457.989 274.888 457.722 275.155L440.504 292.373C440.237 292.641 439.921 292.853 439.572 292.997C439.223 293.142 438.85 293.217 438.472 293.217C438.095 293.217 437.721 293.142 437.372 292.997C437.024 292.853 436.707 292.641 436.44 292.373L427.831 283.764C427.292 283.225 426.99 282.495 426.99 281.732C426.99 280.97 427.292 280.24 427.831 279.701C428.37 279.162 429.101 278.859 429.863 278.859C430.625 278.859 431.356 279.162 431.895 279.701L438.472 286.284L453.659 271.092C453.925 270.824 454.242 270.612 454.591 270.468C454.939 270.323 455.313 270.248 455.69 270.248C456.068 270.248 456.442 270.323 456.79 270.468C457.139 270.612 457.456 270.824 457.722 271.092V271.092Z" fill="#0D182E"/>
<path d="M372.468 321.909C372.468 321.909 366.729 321.909 366.729 316.169C366.729 310.43 372.468 293.211 401.166 293.211C429.863 293.211 435.602 310.43 435.602 316.169C435.602 321.909 429.863 321.909 429.863 321.909H372.468ZM401.166 287.472C405.732 287.472 410.112 285.658 413.341 282.429C416.57 279.2 418.384 274.82 418.384 270.254C418.384 265.687 416.57 261.307 413.341 258.078C410.112 254.849 405.732 253.035 401.166 253.035C396.599 253.035 392.219 254.849 388.99 258.078C385.761 261.307 383.947 265.687 383.947 270.254C383.947 274.82 385.761 279.2 388.99 282.429C392.219 285.658 396.599 287.472 401.166 287.472V287.472Z" fill="#0D182E"/>
</g>
<defs>
<clipPath id="clip0_537_350">
<rect width="91.8313" height="91.8313" fill="white" transform="translate(366.729 241.556)"/>
</clipPath>
</defs>
</svg>
