<svg width="682" height="601" viewBox="0 0 682 601" fill="none" xmlns="http://www.w3.org/2000/svg">
<g opacity="0.2">
<path d="M297.75 528.116C169.489 528.116 65.5134 424.14 65.5134 295.88C65.5134 167.619 169.489 63.6428 297.75 63.6428C426.011 63.6428 529.987 167.619 529.987 295.88C529.987 424.14 426.011 528.116 297.75 528.116Z" fill="#0CB9FB"/>
<path d="M41.3988 527.995C18.5348 527.995 -0.000114441 509.46 -0.000114441 486.596C-0.000114441 463.732 18.5348 445.197 41.3988 445.197C64.2628 445.197 82.7977 463.732 82.7977 486.596C82.7977 509.46 64.2628 527.995 41.3988 527.995Z" fill="#0CB9FB"/>
<path fill-rule="evenodd" clip-rule="evenodd" d="M336.104 0L286.613 49.4915L336.104 98.983L385.596 49.4915L336.104 0Z" fill="#FECE2D"/>
<path fill-rule="evenodd" clip-rule="evenodd" d="M576.261 283.089L552.027 307.324L576.261 331.557L600.494 307.324L576.261 283.089Z" fill="#FECE2D"/>
<path fill-rule="evenodd" clip-rule="evenodd" d="M123.066 63.6426L110.95 75.7594L123.066 87.8761L135.182 75.7594L123.066 63.6426Z" fill="#FECE2D"/>
</g>
<path d="M290.258 192.385L291.1 194.679H293.543H312.226C316.288 194.679 321.374 196.032 325.366 199.155C329.231 202.178 332.226 206.962 332.226 214.345V220.137C332.226 227.52 329.231 232.304 325.366 235.327C321.374 238.45 316.288 239.804 312.226 239.804H252.418H249.975L249.133 242.097C247.15 247.496 241.959 251.387 235.851 251.387C232.088 251.387 228.49 249.913 225.845 247.305C223.201 244.699 221.726 241.176 221.726 237.512C221.726 233.848 223.201 230.325 225.845 227.718C228.49 225.111 232.088 223.637 235.851 223.637C241.959 223.637 247.15 227.528 249.133 232.927L249.975 235.22H252.418H312.226C313.865 235.22 317.541 234.943 320.924 232.899C324.578 230.691 327.476 226.656 327.476 220.137V214.345C327.476 207.544 324.31 203.501 320.547 201.379C317.075 199.42 313.419 199.262 312.226 199.262H293.543H291.1L290.258 201.555C288.275 206.954 283.084 210.845 276.976 210.845C270.867 210.845 265.676 206.954 263.694 201.555L262.851 199.262H260.408H241.726C237.657 199.262 232.571 197.919 228.582 194.805C224.723 191.792 221.726 187.01 221.726 179.595V173.804C221.726 166.389 224.723 161.607 228.582 158.594C232.571 155.48 237.657 154.137 241.726 154.137H301.533H303.976L304.819 151.844C306.801 146.445 311.992 142.554 318.101 142.554C321.863 142.554 325.461 144.027 328.106 146.635C330.75 149.241 332.226 152.765 332.226 156.429C332.226 160.092 330.75 163.616 328.106 166.222C325.461 168.83 321.863 170.304 318.101 170.304C311.992 170.304 306.801 166.412 304.819 161.014L303.976 158.72H301.533H241.726C240.087 158.72 236.41 158.998 233.027 161.042C229.373 163.25 226.476 167.285 226.476 173.804V179.595C226.476 186.397 229.641 190.439 233.404 192.562C236.876 194.521 240.532 194.679 241.726 194.679H260.408H262.851L263.694 192.385C265.676 186.987 270.867 183.095 276.976 183.095C283.084 183.095 288.275 186.987 290.258 192.385ZM242.462 244.1L240.005 241.607L242.462 244.1C244.226 242.361 245.226 239.993 245.226 237.512C245.226 235.031 244.226 232.663 242.462 230.924L240.005 233.417L242.462 230.924C240.7 229.187 238.321 228.22 235.851 228.22C233.38 228.22 231.001 229.187 229.239 230.924C227.476 232.663 226.476 235.031 226.476 237.512C226.476 239.993 227.476 242.361 229.239 244.1C231.001 245.837 233.38 246.804 235.851 246.804C238.321 246.804 240.7 245.837 242.462 244.1ZM324.712 149.841C322.95 148.104 320.571 147.137 318.101 147.137C315.63 147.137 313.251 148.104 311.489 149.841C309.726 151.579 308.726 153.948 308.726 156.429C308.726 158.909 309.726 161.278 311.489 163.016C313.251 164.753 315.63 165.72 318.101 165.72C320.571 165.72 322.95 164.753 324.712 163.016C326.476 161.278 327.476 158.909 327.476 156.429C327.476 153.948 326.476 151.579 324.712 149.841Z" stroke="#FECE2D" stroke-width="7"/>
<path fill-rule="evenodd" clip-rule="evenodd" d="M301.743 196.97C301.743 210.455 290.655 221.386 276.976 221.386C263.296 221.386 252.208 210.455 252.208 196.97C252.208 183.485 263.296 172.554 276.976 172.554C290.655 172.554 301.743 183.485 301.743 196.97Z" fill="#0CB9FB"/>
<path fill-rule="evenodd" clip-rule="evenodd" d="M296.993 196.97C296.993 207.869 288.031 216.704 276.976 216.704C265.92 216.704 256.957 207.869 256.957 196.97C256.957 186.071 265.92 177.236 276.976 177.236C288.031 177.236 296.993 186.071 296.993 196.97Z" fill="#FECE2D"/>
<path fill-rule="evenodd" clip-rule="evenodd" d="M276.976 172.177C277.187 172.177 277.358 172.345 277.358 172.554C277.358 172.762 277.187 172.931 276.976 172.931C263.53 172.931 252.59 183.715 252.59 196.971C252.59 210.226 263.53 221.009 276.976 221.009C290.421 221.009 301.361 210.226 301.361 196.971C301.361 196.762 301.532 196.594 301.743 196.594C301.955 196.594 302.126 196.762 302.126 196.971C302.126 210.641 290.844 221.763 276.976 221.763C263.108 221.763 251.825 210.641 251.825 196.971C251.825 183.299 263.108 172.177 276.976 172.177ZM276.976 184.322C277.187 184.322 277.358 184.49 277.358 184.699V196.799L289.138 206.917C289.298 207.054 289.315 207.292 289.175 207.45C289.1 207.535 288.994 207.579 288.887 207.579C288.797 207.579 288.709 207.548 288.636 207.486L276.725 197.255C276.641 197.183 276.593 197.08 276.593 196.97V184.699C276.593 184.49 276.764 184.322 276.976 184.322Z" fill="#FECE2D"/>
<line x1="277.66" y1="186.425" x2="277.66" y2="200.328" stroke="black" stroke-linecap="round"/>
<line x1="0.5" y1="-0.5" x2="10.4165" y2="-0.5" transform="matrix(0.712139 0.702038 -0.712139 0.702038 276.975 200.351)" stroke="black" stroke-linecap="round"/>
<path fill-rule="evenodd" clip-rule="evenodd" d="M183.558 245.65C191.173 246.193 197.762 244.973 200.096 242.912C205.949 237.742 194.009 212.777 183.844 205.716C173.679 198.655 144.72 208.075 153.179 228.017C156.115 234.938 161.959 239.472 168.584 242.226L178.804 280.659L200.396 269.658L183.558 245.65Z" fill="#DCAE92"/>
<path fill-rule="evenodd" clip-rule="evenodd" d="M186.546 187.37C185.298 186.026 183.41 185.294 181.585 185.72C181.143 185.824 180.717 185.991 180.321 186.214C180.179 186.294 180.16 186.356 180.04 186.289C179.951 186.24 179.857 186.056 179.791 185.979C179.587 185.737 179.368 185.506 179.134 185.292C178.335 184.563 177.358 184.056 176.329 183.733C174.403 183.13 172.224 183.147 170.34 183.909C169.309 184.326 168.411 184.986 167.641 185.783C167.243 186.195 166.879 186.641 166.54 187.103C166.437 187.242 166.163 187.806 166.014 187.854C165.85 187.908 165.351 187.685 165.179 187.654C163.05 187.259 160.924 187.761 159.025 188.746C156.881 189.858 154.863 191.022 153.737 193.248C153.498 193.72 153.292 194.208 153.11 194.704C153.015 194.965 152.928 195.229 152.853 195.497C152.808 195.658 152.767 195.821 152.731 195.984C152.67 196.262 152.729 196.313 152.434 196.292C151.303 196.207 150.177 196.471 149.232 197.109C148.67 197.488 148.179 197.964 147.747 198.482C147.6 198.659 147.327 199.202 147.128 199.308C146.931 199.412 146.349 199.333 146.106 199.362C144.79 199.518 143.544 200.025 142.476 200.807C141.375 201.614 140.439 202.695 139.759 203.875C139.432 204.443 139.185 205.014 139.083 205.662C139.039 205.942 139.015 206.226 138.944 206.502C138.902 206.663 138.766 206.876 138.785 207.043C138.773 206.943 137.164 207.11 137.02 207.141C136.254 207.309 135.584 207.696 135.033 208.251C133.996 209.295 133.394 210.76 132.994 212.15C132.788 212.864 132.665 213.601 132.62 214.342C132.598 214.697 132.594 215.052 132.606 215.408C132.611 215.58 132.656 215.776 132.634 215.944C132.606 216.162 132.533 216.203 132.368 216.376C131.531 217.252 130.91 218.329 130.619 219.506C130.324 220.697 130.378 221.951 130.729 223.121C130.75 223.19 130.876 223.455 130.857 223.508C130.83 223.581 130.614 223.665 130.542 223.713C130.289 223.881 130.047 224.064 129.815 224.26C129.389 224.622 129.003 225.031 128.669 225.48C127.368 227.227 126.946 229.475 127.262 231.601C127.595 233.833 128.718 236.011 130.435 237.492C130.712 237.731 131.009 237.95 131.322 238.139C131.515 238.256 131.549 238.239 131.572 238.452C131.596 238.69 131.555 238.955 131.563 239.195C131.589 239.98 131.724 240.758 131.943 241.511C132.301 242.747 132.798 243.985 133.588 245.012C133.955 245.488 134.389 245.916 134.89 246.252C135.146 246.423 135.417 246.57 135.701 246.69C135.848 246.753 135.998 246.807 136.151 246.855C136.238 246.883 136.34 246.894 136.422 246.932C136.621 247.026 136.582 246.885 136.635 247.145C136.711 247.508 136.673 247.922 136.711 248.294C136.749 248.677 136.801 249.058 136.865 249.437C136.994 250.206 137.161 250.97 137.4 251.711C137.859 253.136 138.611 254.52 139.849 255.41C140.379 255.792 140.991 256.05 141.634 256.167C141.949 256.224 142.27 256.248 142.59 256.238C142.755 256.234 142.937 256.175 143.063 256.272C143.198 256.376 143.241 256.699 143.297 256.864C143.788 258.301 144.409 259.755 145.475 260.865C146.457 261.887 147.808 262.542 149.216 262.715C151.947 263.049 154.648 261.576 156.225 259.39C156.636 258.821 156.976 258.2 157.228 257.545C159.223 258.535 161.632 257.243 163.13 255.908C164.996 254.245 165.962 251.866 165.955 249.39C168.162 250.354 170.746 248.36 170.774 246.08C170.781 245.522 170.671 244.967 170.488 244.441C170.392 244.165 170.237 243.916 170.133 243.646C170.001 243.303 170.057 242.874 170.022 242.495C169.953 241.756 169.781 241.044 169.45 240.378C169.277 240.03 169.061 239.715 168.853 239.389C168.666 239.095 168.605 238.763 168.498 238.433C167.992 238.806 167.243 239 166.641 239.105C166.05 239.208 165.36 239.038 164.807 238.843C163.522 238.392 162.424 237.501 161.491 236.534C159.441 234.41 158.219 231.233 160.045 228.563C160.896 227.32 164.427 225.524 165.992 225.126C167.638 224.708 170.97 227.112 171.209 227.376C171.356 227.54 171.45 227.787 171.688 227.825C172.212 227.907 172.597 227.104 172.758 226.723C173.036 226.065 173.105 225.342 173.124 224.636C173.165 223.096 173.035 221.535 172.735 220.025C172.505 218.861 172.154 217.719 172.025 216.536C171.897 215.359 172.037 214.176 172.669 213.15C173.357 212.034 174.337 211.131 175.238 210.191C176.13 209.26 176.961 208.253 177.393 207.021C177.488 206.751 177.572 206.471 177.615 206.187C177.649 205.963 177.605 205.59 177.731 205.394C177.927 205.091 178.548 205.305 178.867 205.335C180.439 205.484 181.967 206.031 183.352 206.774C184.729 207.512 185.942 208.28 187.122 209.286C187.998 210.032 188.861 211.12 189.948 211.544C190.433 211.733 192.835 210.773 193.424 210.092C194.013 209.411 194.446 208.201 194.444 207.582C194.443 206.948 194.222 206.363 193.832 205.867C193.602 205.576 193.317 205.339 193.083 205.057C192.886 204.82 192.702 204.595 192.447 204.416C191.964 204.077 191.371 203.958 190.791 204.078C191.072 203.32 191.213 202.512 191.184 201.704C191.154 200.866 191.001 199.904 190.698 199.121C190.451 198.485 190.037 197.907 189.441 197.556C188.816 197.188 188.02 197.146 187.314 197.077C187.803 196.027 188.105 194.898 188.24 193.751C188.504 191.518 188.123 189.068 186.546 187.37Z" fill="#2C1B18"/>
<path fill-rule="evenodd" clip-rule="evenodd" d="M198.093 355.175L247.653 480.61L280.892 586.655H294.017L241.182 355.175H198.093Z" fill="#DCAE92"/>
<path fill-rule="evenodd" clip-rule="evenodd" d="M188.114 355.175C187.586 399.254 179.89 458.598 178.66 461.347C177.43 464.094 93.7641 531.229 93.7641 531.229L102.804 540.903C102.804 540.903 201.523 483.344 206.091 475.667C210.659 467.99 225.532 397.344 237.473 355.175H188.114Z" fill="#DCAE92"/>
<path fill-rule="evenodd" clip-rule="evenodd" d="M95.2182 529.418C94.8874 528.283 93.6915 527.607 92.581 528.013C90.5554 528.753 87.5929 529.951 86.2803 531.052C84.188 532.808 80.759 536.873 80.759 536.873C82.7956 539.301 117.366 580.5 117.366 580.5C117.366 580.5 124.415 577.483 121.789 573.443C119.163 569.403 117.491 566.676 117.491 566.676L109.516 538.814C109.359 538.267 108.782 537.958 108.24 538.129L103.984 539.479C103.984 539.479 99.5556 537.416 97.7763 535.294C96.693 534.004 95.7726 531.32 95.2182 529.418Z" fill="#0CB9FB"/>
<path fill-rule="evenodd" clip-rule="evenodd" d="M278.316 580.631C277.234 580.155 275.947 580.637 275.545 581.749C274.809 583.775 273.823 586.815 273.823 588.529C273.823 591.26 274.733 596.5 274.733 596.5C277.901 596.5 331.683 596.5 331.683 596.5C331.683 596.5 333.904 589.161 329.121 588.575C324.338 587.991 321.174 587.519 321.174 587.519L294.704 575.719C294.184 575.486 293.576 575.73 293.359 576.256L291.658 580.384C291.658 580.384 287.23 582.449 284.462 582.449C282.777 582.449 280.13 581.429 278.316 580.631Z" fill="#0CB9FB"/>
<path fill-rule="evenodd" clip-rule="evenodd" d="M231.414 575.733L293.82 568.959L243.531 355.175H191.676L231.414 575.733Z" fill="#E2B727"/>
<path fill-rule="evenodd" clip-rule="evenodd" d="M106.673 515.621L147.607 564.073C147.607 564.073 212.28 493.439 223.017 471.895C233.752 450.352 242.319 355.175 242.319 355.175H179.391C179.391 355.175 174.712 438.907 173.083 442.804C171.454 446.7 106.673 515.621 106.673 515.621Z" fill="#FECE2D"/>
<path fill-rule="evenodd" clip-rule="evenodd" d="M300.758 290.694L269.145 315.136L284.101 326.832L305.605 299.818C318.277 294.068 323.915 290.436 322.515 288.925C321.335 287.65 319.805 287.943 318.395 288.213C317.297 288.423 316.272 288.62 315.543 288.05C313.879 286.748 315.747 280.981 317.754 275.583C319.761 270.185 316.844 271.09 315.25 272.073C310.262 276.74 305.431 282.947 300.758 290.694ZM147.762 354.192L126.692 355.215C122.024 394.497 118.81 416.186 117.05 420.284C115.759 423.289 105.537 432.748 98.3861 438.222C95.5157 440.419 96.8848 442.966 98.0455 443.601C105.367 447.604 110.422 444.301 115.924 440.705C117.517 439.664 119.148 438.598 120.882 437.678C125.37 435.298 127.439 437.395 129.394 439.377C131.126 441.132 132.768 442.795 135.92 441.182C135.605 440.563 135.234 439.874 134.834 439.13C132.249 434.321 128.437 427.229 130.195 422.118C131.097 419.495 136.953 396.853 147.762 354.192Z" fill="#DCAE92"/>
<path fill-rule="evenodd" clip-rule="evenodd" d="M182.607 261.49L190.716 257.924C213.632 271.223 231.884 312.35 245.601 314.976C258.569 317.459 273.753 308.142 291.59 296.225L300.931 308.134C287.933 331.83 254.068 357.555 236.381 352.099C208.103 343.377 189.206 291.752 182.607 261.49Z" fill="#2C5AA0"/>
<path fill-rule="evenodd" clip-rule="evenodd" d="M172.221 377.163C172.221 377.163 223.175 364.459 247.181 358.474C250.607 357.619 248.728 352.835 247.61 350.462C234.715 323.082 204.665 297.594 194.441 256.592L171.974 258.592C161.261 291.814 163.906 328.77 172.221 377.163Z" fill="#E2E2E2"/>
<path fill-rule="evenodd" clip-rule="evenodd" d="M170.826 258.878L170.579 258.94C129.532 300.918 111.773 354.554 117.302 419.847L133.782 419.007C141.167 404.286 149.064 381.239 157.473 349.864C156.924 367.637 157.747 385.52 160.695 401.891L228.171 385.067C233.003 348.798 179.14 256.805 179.14 256.805L174.481 257.967L170.826 258.878Z" fill="#4186EC"/>
<path fill-rule="evenodd" clip-rule="evenodd" d="M477.193 159.332C469.935 163.707 462.805 165.82 459.457 164.958C451.064 162.794 450.292 132.088 456.786 119.983C463.281 107.877 496.668 102.601 498.351 126.586C498.935 134.91 495.44 142.339 490.275 148.4L499.535 191.56H472.638L477.193 159.332Z" fill="#B28B67"/>
<path fill-rule="evenodd" clip-rule="evenodd" d="M467.411 106.798C486.087 99.8195 500.733 113.304 502.675 115.524C504.733 117.877 506.104 120.817 507.117 123.808C508.218 127.056 508.899 130.431 509.151 133.87C509.39 137.137 509.412 140.593 508.646 143.79C507.929 146.781 506.397 149.234 503.838 150.79C502.667 151.503 501.406 152.039 500.138 152.528C498.888 153.01 497.634 153.48 496.325 153.75C493.848 154.262 490.993 154.174 489.085 152.202C488.397 151.491 487.64 150.598 487.139 149.729C486.958 149.417 486.849 149.213 487.068 148.908C487.331 148.542 487.756 148.262 488.093 147.976C490.017 146.345 491.208 144.168 491.508 141.581C491.813 138.955 491.108 135.567 488.555 134.421C485.405 133.007 481.935 134.63 479.135 136.144C477.945 131.943 475.501 128.161 471.67 126.235C467.432 124.103 462.568 123.854 458.212 122.025C457.077 121.548 455.921 121.007 455.086 120.036C454.736 119.631 454.327 119.104 454.187 118.567C454.004 117.862 454.459 117.271 454.81 116.721C456.673 113.807 460.298 109.456 467.411 106.798Z" fill="#4A312C"/>
<path d="M498.415 119.833C489.13 119.833 481.604 112.306 481.604 103.021C481.604 93.7368 489.13 86.2101 498.415 86.2101C507.699 86.2101 515.226 93.7368 515.226 103.021C515.226 112.306 507.699 119.833 498.415 119.833Z" fill="#4A312C"/>
<path fill-rule="evenodd" clip-rule="evenodd" d="M501.852 149.117C501.852 149.117 510.931 170.595 518.585 177.68C515.226 184.798 497.4 183.941 497.4 183.941L490.679 152.492L501.852 149.117Z" fill="#4A312C"/>
<path fill-rule="evenodd" clip-rule="evenodd" d="M410.607 193.454L449.508 214.76L435.142 230.179L406.876 204.298C391.985 200.194 385.176 197.192 386.448 195.292C387.519 193.689 389.248 193.745 390.84 193.796C392.081 193.836 393.238 193.873 393.939 193.122C395.537 191.407 392.487 185.408 389.349 179.839C386.212 174.27 389.567 174.755 391.485 175.556C397.764 179.806 404.138 185.772 410.607 193.454Z" fill="#997659"/>
<path d="M388.582 232.736L371.495 223.35C371.495 223.35 367.898 209.665 362.896 209.579C361.827 209.081 361.982 210.801 362.171 212.901L362.171 212.905C362.436 215.833 361.12 219.488 358.293 218.906L363.846 229.453L366.622 234.726L369.398 239.999C378.29 243.159 387.609 249.884 387.609 249.884L388.582 232.736Z" fill="#997659"/>
<path fill-rule="evenodd" clip-rule="evenodd" d="M468.453 210.014C454.827 209.87 436.657 206.992 417.269 194.686L409.656 211.665C423.029 224.937 441.833 235.841 458.274 235.379C471.231 235.015 477.852 219.343 468.453 210.014Z" fill="#E2B727"/>
<mask id="mask0_549_388" style="mask-type:alpha" maskUnits="userSpaceOnUse" x="409" y="194" width="64" height="42">
<path fill-rule="evenodd" clip-rule="evenodd" d="M468.453 210.014C454.827 209.87 436.657 206.992 417.269 194.686L409.656 211.665C423.029 224.937 441.833 235.841 458.274 235.379C471.231 235.015 477.852 219.343 468.453 210.014Z" fill="white"/>
</mask>
<g mask="url(#mask0_549_388)">
</g>
<path d="M501.798 170.91C505.238 170.91 528.613 214.595 528.634 242.975C528.637 246.642 529.135 250.12 529.951 253.503C510.655 271.633 496.713 275.426 471.299 281.078C426.43 278.717 404.849 270.449 372.513 243.509C375.773 234.939 379.45 227.522 379.45 227.522C379.45 227.522 430.063 245.08 452.856 240.036C454.209 235.57 455.618 231.095 457.025 226.625L457.03 226.609C463.051 207.477 469.033 188.467 470.434 170.91H473.555H500.811H501.798Z" fill="#FECE2D"/>
<path fill-rule="evenodd" clip-rule="evenodd" d="M495.081 140.215C495.081 146.086 490.321 150.844 484.452 150.844C478.582 150.844 473.823 146.086 473.823 140.215C473.823 134.346 478.582 129.588 484.452 129.588C490.321 129.588 495.081 134.346 495.081 140.215Z" fill="#0CB9FB"/>
<path fill-rule="evenodd" clip-rule="evenodd" d="M459.551 158.794C459.081 158.794 458.691 158.426 458.668 157.952C458.645 157.463 459.021 157.047 459.509 157.024C459.681 157.016 476.692 156.01 483.651 141.484C483.862 141.042 484.39 140.856 484.833 141.067C485.272 141.278 485.46 141.806 485.249 142.247C477.826 157.744 459.776 158.785 459.593 158.793C459.581 158.794 459.567 158.794 459.551 158.794Z" fill="#0CB9FB"/>
<path d="M487.562 136.041V128.192C487.562 118.183 481.025 109.528 471.602 105.522L468.779 106.349C478.698 109.626 485.791 118.181 485.791 128.192V136.041C485.791 136.53 486.186 136.926 486.677 136.926C487.165 136.926 487.562 136.53 487.562 136.041Z" fill="#0CB9FB"/>
<circle cx="456.545" cy="173.545" r="107.045" stroke="#0CB9FB" stroke-width="5"/>
<path fill-rule="evenodd" clip-rule="evenodd" d="M335.655 328.978L336.495 357.659L340.897 508.185C341.155 517.017 347.178 524.632 355.712 526.919L604.719 593.64C617.657 597.107 630.279 587.125 629.887 573.737L625.835 435.187L624.968 405.553C624.884 402.69 622.933 400.221 620.166 399.48L341.07 324.696C338.287 323.951 335.571 326.099 335.655 328.978Z" fill="#15294A"/>
<path fill-rule="evenodd" clip-rule="evenodd" d="M335.655 328.978L336.059 342.778C336.318 351.61 342.34 359.225 350.874 361.512L599.881 428.233C612.819 431.699 625.441 421.717 625.049 408.329L624.968 405.553C624.884 402.69 622.933 400.221 620.166 399.48L341.07 324.696C338.287 323.951 335.571 326.099 335.655 328.978Z" fill="#FECE2D"/>
<path fill-rule="evenodd" clip-rule="evenodd" d="M351.991 340.804C349.961 344.321 350.563 349.421 353.337 352.195C356.111 354.969 360.007 354.367 362.037 350.85C364.068 347.332 363.465 342.232 360.691 339.458C357.917 336.683 354.022 337.286 351.991 340.804Z" fill="#0D182E"/>
<path fill-rule="evenodd" clip-rule="evenodd" d="M377.67 347.612C375.639 351.13 376.242 356.23 379.016 359.004C381.79 361.778 385.685 361.176 387.716 357.658C389.747 354.141 389.144 349.04 386.37 346.266C383.596 343.492 379.701 344.095 377.67 347.612Z" fill="#2C5AA0"/>
<path fill-rule="evenodd" clip-rule="evenodd" d="M590.74 416.155C590.812 416.174 590.89 416.165 590.959 416.125L606.073 407.06C606.207 406.98 606.25 406.807 606.17 406.673C606.09 406.54 605.917 406.496 605.783 406.577L590.668 415.641C590.535 415.721 590.491 415.894 590.572 416.028C590.611 416.093 590.672 416.137 590.74 416.155Z" fill="white"/>
<path fill-rule="evenodd" clip-rule="evenodd" d="M605.855 420.205C605.943 420.229 606.041 420.209 606.114 420.144C606.232 420.041 606.243 419.863 606.14 419.746L591.025 402.582C590.922 402.465 590.744 402.454 590.627 402.557C590.51 402.66 590.499 402.838 590.602 402.955L605.717 420.119C605.755 420.162 605.803 420.191 605.855 420.205Z" fill="white"/>
<path fill-rule="evenodd" clip-rule="evenodd" d="M425.128 399.603L427.457 509.579L427.83 527.178C427.949 532.816 431.777 537.696 437.222 539.155L596.966 581.958C601.62 583.205 606.168 579.638 606.067 574.821L603.332 445.566C603.219 440.231 599.596 435.612 594.443 434.231L435.334 391.598C430.115 390.199 425.015 394.201 425.128 399.603Z" fill="#0D182E"/>
<path fill-rule="evenodd" clip-rule="evenodd" d="M445.964 414.368L558.812 444.605C559.654 444.831 560.52 444.331 560.746 443.488C560.972 442.645 560.472 441.779 559.629 441.553L446.781 411.316C445.939 411.09 445.073 411.59 444.847 412.433C444.621 413.276 445.121 414.142 445.964 414.368Z" fill="#FECE2D"/>
<path fill-rule="evenodd" clip-rule="evenodd" d="M472.057 459.579L555.838 482.028C556.681 482.254 557.547 481.754 557.773 480.911C557.998 480.068 557.498 479.202 556.656 478.976L472.874 456.527C472.032 456.301 471.166 456.802 470.94 457.644C470.714 458.487 471.214 459.353 472.057 459.579Z" fill="#FECE2D"/>
<path fill-rule="evenodd" clip-rule="evenodd" d="M509.899 441.308L558.776 454.404C559.619 454.63 560.485 454.13 560.711 453.288C560.937 452.445 560.436 451.579 559.594 451.353L510.717 438.256C509.874 438.03 509.008 438.531 508.782 439.373C508.556 440.216 509.056 441.082 509.899 441.308Z" fill="#FECE2D"/>
<path fill-rule="evenodd" clip-rule="evenodd" d="M444.773 480.753L557.621 510.991C558.464 511.216 559.33 510.716 559.556 509.874C559.781 509.031 559.282 508.165 558.439 507.939L445.591 477.701C444.748 477.475 443.882 477.976 443.656 478.818C443.43 479.661 443.93 480.527 444.773 480.753Z" fill="#FECE2D"/>
<path fill-rule="evenodd" clip-rule="evenodd" d="M508.709 507.693L557.585 520.79C558.428 521.016 559.294 520.516 559.52 519.673C559.746 518.83 559.246 517.964 558.403 517.738L509.526 504.642C508.684 504.416 507.818 504.916 507.592 505.759C507.366 506.601 507.866 507.468 508.709 507.693Z" fill="#FECE2D"/>
<path fill-rule="evenodd" clip-rule="evenodd" d="M427.383 509.852L605.624 557.611C605.775 557.651 605.929 557.562 605.97 557.412C606.01 557.261 605.921 557.106 605.77 557.066L427.529 509.307C427.379 509.266 427.224 509.355 427.184 509.506C427.144 509.657 427.233 509.811 427.383 509.852Z" fill="#2C5AA0"/>
<path fill-rule="evenodd" clip-rule="evenodd" d="M441.839 521.287L547.364 549.562C549.419 550.113 550.871 551.945 550.937 554.072C551.038 557.305 547.991 559.72 544.866 558.883L439.341 530.608C437.286 530.057 435.834 528.225 435.768 526.098C435.667 522.865 438.714 520.45 441.839 521.287Z" fill="white"/>
<path d="M572.544 575.411L572.015 548.628L605.719 557.617L606.058 575.663C606.129 582.068 604.19 583.421 597.365 582.07L572.544 575.411Z" fill="#FECE2D"/>
<path fill-rule="evenodd" clip-rule="evenodd" d="M584.886 571.613C584.776 571.608 584.674 571.538 584.634 571.428C584.58 571.281 584.656 571.119 584.802 571.066L594.431 567.547L586.747 561.989C586.621 561.898 586.593 561.721 586.684 561.595C586.775 561.469 586.952 561.441 587.078 561.532L595.192 567.401C595.276 567.462 595.32 567.565 595.306 567.668C595.291 567.772 595.221 567.859 595.123 567.895L584.996 571.596C584.96 571.609 584.922 571.614 584.886 571.613Z" fill="#0D182E"/>
<path fill-rule="evenodd" clip-rule="evenodd" d="M568.839 516.55C568.839 521.967 572.937 527.456 577.991 528.811C583.045 530.165 587.143 526.871 587.143 521.454C587.143 516.037 583.046 510.547 577.991 509.193C572.937 507.839 568.839 511.132 568.839 516.55Z" fill="#2C5AA0"/>
<path fill-rule="evenodd" clip-rule="evenodd" d="M570.03 462.128C570.03 467.545 574.127 473.035 579.182 474.389C584.236 475.743 588.334 472.45 588.334 467.032C588.334 461.615 584.236 456.125 579.182 454.771C574.128 453.417 570.03 456.711 570.03 462.128Z" fill="#2C5AA0"/>
<path fill-rule="evenodd" clip-rule="evenodd" d="M440.691 461.503C440.691 466.92 444.788 472.41 449.842 473.764C454.897 475.118 458.995 471.824 458.995 466.407C458.994 460.99 454.897 455.5 449.843 454.146C444.788 452.792 440.691 456.086 440.691 461.503Z" fill="#FECE2D"/>
<mask id="mask1_549_388" style="mask-type:alpha" maskUnits="userSpaceOnUse" x="570" y="454" width="19" height="21">
<path d="M588.334 467.032C588.334 472.45 584.236 475.743 579.182 474.389C574.127 473.035 570.03 467.545 570.03 462.128C570.03 456.711 574.128 453.417 579.182 454.771C584.236 456.125 588.334 461.615 588.334 467.032Z" fill="#E2B727"/>
</mask>
<g mask="url(#mask1_549_388)">
<path fill-rule="evenodd" clip-rule="evenodd" d="M576.768 466.513L576.769 466.514C575.649 465.361 574.854 463.803 574.719 462.251C574.488 459.613 576.249 457.996 578.654 458.64C581.058 459.284 583.194 461.945 583.425 464.584C583.561 466.135 583.007 467.333 582.04 467.926L582.04 467.926C584.512 469.311 586.488 472.208 586.74 475.085L587.02 478.282L573.406 474.634L573.126 471.437C572.875 468.56 574.427 466.609 576.768 466.513Z" fill="#FECE2D"/>
</g>
<mask id="mask2_549_388" style="mask-type:alpha" maskUnits="userSpaceOnUse" x="440" y="453" width="19" height="22">
<path d="M458.994 466.407C458.995 471.825 454.897 475.118 449.842 473.764C444.788 472.41 440.691 466.92 440.691 461.503C440.691 456.086 444.788 452.792 449.843 454.146C454.897 455.501 458.994 460.99 458.994 466.407Z" fill="white"/>
</mask>
<g mask="url(#mask2_549_388)">
<path fill-rule="evenodd" clip-rule="evenodd" d="M447.565 466.011L447.567 466.011C446.447 464.859 445.652 463.3 445.516 461.748C445.285 459.11 447.047 457.493 449.451 458.138C451.855 458.782 453.992 461.443 454.223 464.081C454.358 465.633 453.805 466.83 452.837 467.423L452.838 467.423C455.31 468.808 457.286 471.706 457.538 474.582L457.817 477.779L444.204 474.131L443.924 470.934C443.672 468.058 445.224 466.106 447.565 466.011Z" fill="#2C5AA0"/>
</g>
<mask id="mask3_549_388" style="mask-type:alpha" maskUnits="userSpaceOnUse" x="568" y="508" width="20" height="21">
<path d="M587.143 521.158C587.143 526.575 583.046 529.869 577.991 528.514C572.937 527.16 568.839 521.67 568.839 516.253C568.84 510.836 572.937 507.542 577.991 508.896C583.046 510.251 587.143 515.74 587.143 521.158Z" fill="#E2B727"/>
</mask>
<g mask="url(#mask3_549_388)">
<path fill-rule="evenodd" clip-rule="evenodd" d="M575.577 520.639L575.579 520.639C574.458 519.487 573.664 517.928 573.528 516.377C573.297 513.738 575.059 512.121 577.463 512.765C579.867 513.41 582.004 516.071 582.234 518.709C582.37 520.261 581.817 521.458 580.849 522.051L580.85 522.052C583.321 523.436 585.298 526.334 585.549 529.21L585.829 532.407L572.215 528.759L571.936 525.562C571.684 522.686 573.236 520.734 575.577 520.639Z" fill="#FECE2D"/>
</g>
<path fill-rule="evenodd" clip-rule="evenodd" d="M416.911 397.432L419.658 527.218C419.759 531.984 415.258 535.515 410.653 534.281L365.507 522.184C360.351 520.802 356.727 516.181 356.614 510.844L353.915 383.343C353.795 377.651 359.17 373.435 364.669 374.909L408.446 386.639C413.354 387.954 416.804 392.352 416.911 397.432Z" fill="#0D182E"/>
<path fill-rule="evenodd" clip-rule="evenodd" d="M367.847 433.901L404.757 443.791C405.6 444.017 406.466 443.516 406.691 442.674C406.917 441.831 406.417 440.965 405.575 440.739L368.665 430.849C367.822 430.623 366.956 431.123 366.73 431.966C366.504 432.809 367.004 433.675 367.847 433.901Z" fill="#FECE2D"/>
<path fill-rule="evenodd" clip-rule="evenodd" d="M377.427 460.136L397.932 465.631C398.083 465.671 398.238 465.582 398.278 465.431C398.318 465.28 398.229 465.126 398.078 465.086L377.573 459.591C377.423 459.551 377.268 459.64 377.228 459.791C377.187 459.941 377.277 460.096 377.427 460.136Z" fill="#FECE2D"/>
<path fill-rule="evenodd" clip-rule="evenodd" d="M377.869 473.841L398.374 479.335C398.525 479.376 398.679 479.287 398.719 479.136C398.76 478.985 398.671 478.831 398.52 478.79L378.015 473.296C377.864 473.256 377.71 473.345 377.669 473.496C377.629 473.646 377.718 473.801 377.869 473.841Z" fill="#FECE2D"/>
<path fill-rule="evenodd" clip-rule="evenodd" d="M377.551 487.342L398.057 492.837C398.207 492.877 398.362 492.788 398.402 492.637C398.443 492.486 398.353 492.332 398.203 492.292L377.697 486.797C377.547 486.757 377.392 486.846 377.352 486.997C377.312 487.147 377.401 487.302 377.551 487.342Z" fill="#FECE2D"/>
<path fill-rule="evenodd" clip-rule="evenodd" d="M370.628 509.063L407.538 518.953C407.689 518.994 407.843 518.904 407.884 518.754C407.924 518.603 407.835 518.449 407.684 518.408L370.774 508.518C370.624 508.478 370.469 508.567 370.429 508.718C370.389 508.868 370.478 509.023 370.628 509.063Z" fill="#FECE2D"/>
<path fill-rule="evenodd" clip-rule="evenodd" d="M370.498 404.845C370.497 414.243 377.606 423.767 386.375 426.116C395.143 428.466 402.251 422.752 402.251 413.354C402.252 403.955 395.143 394.432 386.375 392.082C377.606 389.733 370.498 395.447 370.498 404.845Z" fill="white"/>
<path fill-rule="evenodd" clip-rule="evenodd" d="M370.498 404.845C370.497 414.243 377.606 423.767 386.375 426.116C395.143 428.466 402.251 422.752 402.251 413.354C402.252 403.955 395.143 394.432 386.375 392.082C377.606 389.733 370.498 395.447 370.498 404.845Z" fill="#FECE2D"/>
<mask id="mask4_549_388" style="mask-type:alpha" maskUnits="userSpaceOnUse" x="370" y="391" width="33" height="36">
<path d="M402.252 413.544C402.252 422.942 395.144 428.656 386.375 426.307C377.606 423.957 370.498 414.434 370.498 405.036C370.498 395.638 377.606 389.924 386.375 392.273C395.144 394.623 402.252 404.146 402.252 413.544Z" fill="white"/>
</mask>
<g mask="url(#mask4_549_388)">
<path fill-rule="evenodd" clip-rule="evenodd" d="M382.407 411.244L382.409 411.244C380.52 409.3 379.179 406.672 378.95 404.055C378.561 399.604 381.533 396.877 385.588 397.964C389.643 399.05 393.246 403.539 393.635 407.99C393.864 410.606 392.93 412.626 391.298 413.626L391.3 413.627C395.469 415.962 398.802 420.849 399.226 425.701L399.698 431.093L376.736 424.94L376.265 419.548C375.84 414.697 378.458 411.404 382.407 411.244Z" fill="#2C5AA0"/>
</g>
</svg>
