<svg width="692" height="484" viewBox="0 0 692 484" fill="none" xmlns="http://www.w3.org/2000/svg">
<g opacity="0.2">
<path d="M339.469 337.213C421.283 337.213 487.607 270.889 487.607 189.074C487.607 107.26 421.283 40.9362 339.469 40.9362C257.654 40.9362 191.331 107.26 191.331 189.074C191.331 270.889 257.654 337.213 339.469 337.213Z" fill="#0CB9FB"/>
<path d="M503.593 409.473C518.177 409.473 530 397.65 530 383.065C530 368.481 518.177 356.658 503.593 356.658C489.009 356.658 477.186 368.481 477.186 383.065C477.186 397.65 489.009 409.473 503.593 409.473Z" fill="#0CB9FB"/>
<path fill-rule="evenodd" clip-rule="evenodd" d="M315.004 0.340027L346.573 31.9095L315.004 63.4789L283.434 31.9095L315.004 0.340027Z" fill="#FECE2D"/>
<path fill-rule="evenodd" clip-rule="evenodd" d="M227.4 444.775L242.858 460.233L227.4 475.691L211.942 460.233L227.4 444.775Z" fill="#FECE2D"/>
<path fill-rule="evenodd" clip-rule="evenodd" d="M450.896 40.9362L458.624 48.6652L450.896 56.3942L443.167 48.6652L450.896 40.9362Z" fill="#FECE2D"/>
</g>
<path fill-rule="evenodd" clip-rule="evenodd" d="M200.434 76.1239L315.075 72.1205C328.033 71.668 338.904 81.8057 339.356 94.7636L349.316 379.983C349.769 392.94 339.631 403.812 326.673 404.264L212.032 408.267C199.074 408.719 188.203 398.582 187.751 385.624L177.79 100.405C177.338 87.4476 187.476 76.5764 200.434 76.1239Z" fill="#15294A"/>
<path fill-rule="evenodd" clip-rule="evenodd" d="M218.505 85.1928C218.673 90.0021 222.64 93.7831 227.421 93.7522L227.678 93.7468L289.101 91.6019C293.91 91.434 297.692 87.4669 297.66 82.6857L297.656 82.4288L297.565 79.8212L315.595 79.1916C324.233 78.8899 331.481 85.6483 331.782 94.287L341.778 380.548C342.081 389.187 335.322 396.434 326.683 396.735L211.029 400.774C202.39 401.076 195.143 394.317 194.841 385.678L184.845 99.4182C184.543 90.7795 191.301 83.532 199.94 83.2303L218.414 82.5852L218.505 85.1928Z" fill="white"/>
<path d="M210.598 400.817C221.392 400.817 246.579 399.508 246.579 399.508L303.822 79.6033L297.567 79.824C297.702 84.4553 296.512 90.5015 290.543 91.3582C284.575 92.2149 253.772 92.4181 253.448 92.6873L210.598 319.041C210.598 319.041 195.878 385.116 195.224 388.06C194.57 391.004 199.803 400.817 210.598 400.817Z" fill="#D1D1D1" fill-opacity="0.3"/>
<path d="M281.471 398.315L265.321 398.877L317.742 79.2584C323.684 79.6655 330.629 84.5812 331.701 93.0683L281.471 398.315Z" fill="#D1D1D1" fill-opacity="0.3"/>
<path d="M153.472 287.204L148.892 291.784L161.019 303.911L165.599 299.331L153.472 287.204Z" fill="#0CB9FB"/>
<path opacity="0.25" d="M150.596 290.08L148.892 291.784L161.019 303.911L162.723 302.207L150.596 290.08Z" fill="#0CB9FB"/>
<path d="M153.472 287.204L148.892 291.784L161.019 303.911L165.599 299.331L153.472 287.204Z" stroke="#0D182E" stroke-width="2" stroke-miterlimit="10" stroke-linecap="round" stroke-linejoin="round"/>
<path d="M164.392 300.609L162.297 302.704L168.165 308.572L170.26 306.477L164.392 300.609Z" fill="#FECE2D"/>
<path d="M164.392 300.609L162.297 302.704L168.165 308.572L170.26 306.477L164.392 300.609Z" stroke="#0D182E" stroke-width="2" stroke-miterlimit="10" stroke-linecap="round" stroke-linejoin="round"/>
<path d="M170.908 316.284L202.115 368.792L177.014 311.315L170.908 316.284Z" fill="#FECE2D"/>
<path d="M170.908 316.284L202.115 368.792L177.014 311.315L170.908 316.284Z" stroke="#0D182E" stroke-width="2" stroke-miterlimit="10" stroke-linecap="round" stroke-linejoin="round"/>
<path d="M178.008 309.185L230.515 340.392L173.074 315.256L178.008 309.185Z" fill="#FECE2D"/>
<path d="M178.008 309.185L230.515 340.392L173.074 315.256L178.008 309.185Z" stroke="#0D182E" stroke-width="2" stroke-miterlimit="10" stroke-linecap="round" stroke-linejoin="round"/>
<path d="M182.673 320.949C186.594 317.028 186.589 310.665 182.66 306.737C178.732 302.809 172.369 302.803 168.448 306.724C164.527 310.645 164.533 317.009 168.461 320.937C172.389 324.865 178.752 324.871 182.673 320.949Z" fill="#0CB9FB"/>
<path opacity="0.4" d="M170.449 318.949C166.857 315.357 166.568 309.743 169.513 305.801C169.158 306.085 168.803 306.369 168.448 306.724C164.543 310.629 164.549 317.025 168.461 320.937C172.373 324.849 178.768 324.854 182.673 320.949C182.993 320.63 183.312 320.239 183.596 319.884C179.655 322.83 174.041 322.541 170.449 318.949Z" fill="#0CB9FB"/>
<path d="M182.673 320.949C186.594 317.028 186.589 310.665 182.66 306.737C178.732 302.809 172.369 302.803 168.448 306.724C164.527 310.645 164.533 317.009 168.461 320.937C172.389 324.865 178.752 324.871 182.673 320.949Z" stroke="#0D182E" stroke-width="2" stroke-miterlimit="10" stroke-linecap="round" stroke-linejoin="round"/>
<path d="M177.979 316.255C179.311 314.922 179.31 312.759 177.974 311.423C176.639 310.088 174.475 310.086 173.142 311.419C171.809 312.752 171.811 314.915 173.146 316.251C174.482 317.587 176.645 317.589 177.979 316.255Z" fill="#0D182E"/>
<path d="M177.979 316.255C179.311 314.922 179.31 312.759 177.974 311.423C176.639 310.088 174.475 310.086 173.142 311.419C171.809 312.752 171.811 314.915 173.146 316.251C174.482 317.587 176.645 317.589 177.979 316.255Z" stroke="#0D182E" stroke-width="2" stroke-miterlimit="10" stroke-linecap="round" stroke-linejoin="round"/>
<path d="M309.026 242.532L293.381 251.565L359.43 365.966L375.075 356.933L309.026 242.532Z" fill="#0CB9FB"/>
<path d="M309.026 242.532L293.381 251.565L359.43 365.966L375.075 356.933L309.026 242.532Z" fill="#0CB9FB"/>
<path opacity="0.29" d="M309.026 242.533L302.22 246.462L368.269 360.863L375.076 356.934L309.026 242.533Z" fill="#0CB9FB"/>
<path d="M309.026 242.532L293.381 251.565L359.43 365.966L375.075 356.933L309.026 242.532Z" fill="#0CB9FB" stroke="#0D182E" stroke-width="2" stroke-miterlimit="10" stroke-linecap="round" stroke-linejoin="round"/>
<path d="M358.196 351.275L352.76 354.413Z" fill="#0CB9FB"/>
<path d="M358.196 351.275L352.76 354.413" stroke="#0D182E" stroke-width="2" stroke-miterlimit="10" stroke-linecap="round" stroke-linejoin="round"/>
<path d="M359.26 357.921L355.904 359.858Z" fill="#0CB9FB"/>
<path d="M359.26 357.921L355.904 359.858" stroke="#0D182E" stroke-width="2" stroke-miterlimit="10" stroke-linecap="round" stroke-linejoin="round"/>
<path d="M351.908 340.384L346.472 343.522Z" fill="#0CB9FB"/>
<path d="M351.908 340.384L346.472 343.522" stroke="#0D182E" stroke-width="2" stroke-miterlimit="10" stroke-linecap="round" stroke-linejoin="round"/>
<path d="M352.972 347.03L349.616 348.968Z" fill="#0CB9FB"/>
<path d="M352.972 347.03L349.616 348.968" stroke="#0D182E" stroke-width="2" stroke-miterlimit="10" stroke-linecap="round" stroke-linejoin="round"/>
<path d="M345.62 329.493L340.184 332.631Z" fill="#0CB9FB"/>
<path d="M345.62 329.493L340.184 332.631" stroke="#0D182E" stroke-width="2" stroke-miterlimit="10" stroke-linecap="round" stroke-linejoin="round"/>
<path d="M346.684 336.139L343.328 338.077Z" fill="#0CB9FB"/>
<path d="M346.684 336.139L343.328 338.077" stroke="#0D182E" stroke-width="2" stroke-miterlimit="10" stroke-linecap="round" stroke-linejoin="round"/>
<path d="M339.304 318.554L333.869 321.693Z" fill="#0CB9FB"/>
<path d="M339.304 318.554L333.869 321.693" stroke="#0D182E" stroke-width="2" stroke-miterlimit="10" stroke-linecap="round" stroke-linejoin="round"/>
<path d="M340.369 325.201L337.013 327.138Z" fill="#0CB9FB"/>
<path d="M340.369 325.201L337.013 327.138" stroke="#0D182E" stroke-width="2" stroke-miterlimit="10" stroke-linecap="round" stroke-linejoin="round"/>
<path d="M333.017 307.664L327.581 310.802Z" fill="#0CB9FB"/>
<path d="M333.017 307.664L327.581 310.802" stroke="#0D182E" stroke-width="2" stroke-miterlimit="10" stroke-linecap="round" stroke-linejoin="round"/>
<path d="M334.081 314.31L330.725 316.247Z" fill="#0CB9FB"/>
<path d="M334.081 314.31L330.725 316.247" stroke="#0D182E" stroke-width="2" stroke-miterlimit="10" stroke-linecap="round" stroke-linejoin="round"/>
<path d="M326.729 296.773L321.293 299.911Z" fill="#0CB9FB"/>
<path d="M326.729 296.773L321.293 299.911" stroke="#0D182E" stroke-width="2" stroke-miterlimit="10" stroke-linecap="round" stroke-linejoin="round"/>
<path d="M327.793 303.419L324.437 305.357Z" fill="#0CB9FB"/>
<path d="M327.793 303.419L324.437 305.357" stroke="#0D182E" stroke-width="2" stroke-miterlimit="10" stroke-linecap="round" stroke-linejoin="round"/>
<path d="M320.441 285.882L315.006 289.02Z" fill="#0CB9FB"/>
<path d="M320.441 285.882L315.006 289.02" stroke="#0D182E" stroke-width="2" stroke-miterlimit="10" stroke-linecap="round" stroke-linejoin="round"/>
<path d="M321.505 292.528L318.149 294.466Z" fill="#0CB9FB"/>
<path d="M321.505 292.528L318.149 294.466" stroke="#0D182E" stroke-width="2" stroke-miterlimit="10" stroke-linecap="round" stroke-linejoin="round"/>
<path d="M314.153 274.991L308.718 278.129Z" fill="#0CB9FB"/>
<path d="M314.153 274.991L308.718 278.129" stroke="#0D182E" stroke-width="2" stroke-miterlimit="10" stroke-linecap="round" stroke-linejoin="round"/>
<path d="M315.217 281.637L311.861 283.575Z" fill="#0CB9FB"/>
<path d="M315.217 281.637L311.861 283.575" stroke="#0D182E" stroke-width="2" stroke-miterlimit="10" stroke-linecap="round" stroke-linejoin="round"/>
<path d="M307.865 264.1L302.43 267.239Z" fill="#0CB9FB"/>
<path d="M307.865 264.1L302.43 267.239" stroke="#0D182E" stroke-width="2" stroke-miterlimit="10" stroke-linecap="round" stroke-linejoin="round"/>
<path d="M308.929 270.747L305.573 272.684Z" fill="#0CB9FB"/>
<path d="M308.929 270.747L305.573 272.684" stroke="#0D182E" stroke-width="2" stroke-miterlimit="10" stroke-linecap="round" stroke-linejoin="round"/>
<path d="M301.578 253.21L296.142 256.348Z" fill="#0CB9FB"/>
<path d="M301.578 253.21L296.142 256.348" stroke="#0D182E" stroke-width="2" stroke-miterlimit="10" stroke-linecap="round" stroke-linejoin="round"/>
<path d="M302.641 259.856L299.285 261.793Z" fill="#0CB9FB"/>
<path d="M302.641 259.856L299.285 261.793" stroke="#0D182E" stroke-width="2" stroke-miterlimit="10" stroke-linecap="round" stroke-linejoin="round"/>
<path d="M305.166 161.063L315.334 166.934L349.791 107.254L339.622 101.383L305.166 161.063Z" fill="#D6364D"/>
<path d="M305.166 161.063L315.334 166.934L349.791 107.254L339.622 101.383L305.166 161.063Z" stroke="#0D182E" stroke-width="2" stroke-miterlimit="10" stroke-linecap="round" stroke-linejoin="round"/>
<path d="M308.482 162.979L312.017 165.019L346.473 105.339L342.938 103.298L308.482 162.979Z" stroke="#0D182E" stroke-width="2" stroke-miterlimit="10" stroke-linecap="round" stroke-linejoin="round"/>
<path d="M338.228 100.611L351.132 108.061L355.326 100.798L342.421 93.3474L338.228 100.611Z" fill="#0CB9FB"/>
<path opacity="0.5" d="M338.228 100.611L342.029 102.805L346.222 95.542L342.421 93.3474L338.228 100.611Z" fill="#0CB9FB"/>
<path d="M347.67 106.062L351.132 108.061L355.326 100.798L351.863 98.7989L347.67 106.062Z" fill="#0CB9FB"/>
<path d="M338.228 100.611L351.132 108.061L355.326 100.798L342.421 93.3474L338.228 100.611Z" stroke="#0D182E" stroke-width="2" stroke-miterlimit="10" stroke-linecap="round" stroke-linejoin="round"/>
<path d="M349.49 89.0998L355.47 92.5524C356.632 93.2234 357.031 94.7127 356.36 95.8749L353.956 100.039L343.787 94.1683L346.192 90.004C346.863 88.8419 348.328 88.4288 349.49 89.0998Z" fill="white"/>
<path d="M349.49 89.0998L355.47 92.5524C356.632 93.2234 357.031 94.7127 356.36 95.8749L353.956 100.039L343.787 94.1683L346.192 90.004C346.863 88.8419 348.328 88.4288 349.49 89.0998Z" stroke="#0D182E" stroke-width="2" stroke-miterlimit="10" stroke-linecap="round" stroke-linejoin="round"/>
<path d="M305.165 161.064L315.334 166.934L300.954 180.099L305.165 161.064Z" fill="#FFD1B5"/>
<path d="M305.165 161.064L315.334 166.934L300.954 180.099L305.165 161.064Z" stroke="#0D182E" stroke-width="2" stroke-miterlimit="10" stroke-linecap="round" stroke-linejoin="round"/>
<path d="M300.954 180.099L307.051 174.516L302.741 172.028L300.954 180.099Z" fill="#0D182E"/>
<path d="M287.979 281.676L278.085 281.999C275.364 282.088 273.066 279.934 272.977 277.214L272.654 267.32C272.565 264.599 274.718 262.3 277.439 262.212L287.333 261.889C290.053 261.8 292.352 263.953 292.441 266.674L292.764 276.568C292.853 279.288 290.699 281.587 287.979 281.676Z" fill="#F73E59"/>
<path opacity="0.52" d="M287.332 261.889L277.439 262.212C275.46 262.276 273.767 263.508 273.079 265.201L292.485 268.034L292.441 266.674C292.352 263.953 290.053 261.8 287.332 261.889Z" fill="#B72E42"/>
<path d="M221.926 247.238L212.033 247.561C209.312 247.65 207.013 245.497 206.924 242.776L206.601 232.882C206.512 230.162 208.666 227.863 211.387 227.774L221.28 227.451C224.001 227.362 226.3 229.516 226.389 232.236L226.712 242.13C226.8 244.851 224.647 247.15 221.926 247.238Z" fill="#F73E59"/>
<path opacity="0.52" d="M221.28 227.451L211.386 227.774C209.408 227.839 207.715 229.07 207.027 230.764L226.433 233.597L226.388 232.236C226.3 229.516 224.001 227.362 221.28 227.451Z" fill="#B72E42"/>
<path d="M288.543 316.678L278.65 317.001C275.929 317.09 273.63 314.937 273.541 312.216L273.218 302.322C273.129 299.601 275.283 297.303 278.003 297.214L287.897 296.891C290.618 296.802 292.917 298.955 293.005 301.676L293.329 311.57C293.417 314.291 291.264 316.589 288.543 316.678Z" fill="#B3B8FF"/>
<path opacity="0.52" d="M287.897 296.891L278.004 297.214C276.025 297.278 274.332 298.51 273.644 300.204L293.05 303.036L293.006 301.676C292.917 298.955 290.618 296.802 287.897 296.891Z" fill="#9498D8"/>
<path d="M323.403 385.923L313.51 386.246C310.789 386.335 308.49 384.182 308.401 381.461L308.078 371.567C307.989 368.846 310.143 366.548 312.864 366.459L322.757 366.136C325.478 366.047 327.777 368.2 327.866 370.921L328.189 380.815C328.277 383.536 326.124 385.834 323.403 385.923Z" fill="#F73E59"/>
<path opacity="0.52" d="M322.757 366.136L312.864 366.459C310.885 366.523 309.192 367.755 308.504 369.449L327.91 372.281L327.866 370.921C327.777 368.2 325.478 366.047 322.757 366.136Z" fill="#B72E42"/>
<path d="M222.491 320.63L212.597 320.953C209.877 321.042 207.578 318.888 207.489 316.168L207.166 306.274C207.077 303.553 209.23 301.254 211.951 301.166L221.845 300.843C224.566 300.754 226.864 302.907 226.953 305.628L227.276 315.522C227.365 318.242 225.212 320.541 222.491 320.63Z" fill="#0CB9FB"/>
<path opacity="0.52" d="M221.845 300.843L211.951 301.166C209.972 301.23 208.279 302.462 207.592 304.155L226.998 306.988L226.953 305.628C226.864 302.907 224.566 300.754 221.845 300.843Z" fill="#4186EC"/>
<path d="M287.979 245.545L278.085 245.868C275.364 245.957 273.066 243.803 272.977 241.082L272.654 231.189C272.565 228.468 274.718 226.169 277.439 226.08L287.333 225.757C290.053 225.669 292.352 227.822 292.441 230.543L292.764 240.436C292.853 243.157 290.699 245.456 287.979 245.545Z" fill="#0CB9FB"/>
<path opacity="0.52" d="M287.333 225.757L277.439 226.08C275.46 226.145 273.767 227.376 273.08 229.07L292.486 231.903L292.441 230.543C292.352 227.822 290.054 225.669 287.333 225.757Z" fill="#4186EC"/>
<path d="M255.235 282.805L245.341 283.128C242.62 283.217 240.321 281.063 240.233 278.343L239.91 268.449C239.821 265.728 241.974 263.43 244.695 263.341L254.589 263.018C257.309 262.929 259.608 265.082 259.697 267.803L260.02 277.697C260.109 280.417 257.955 282.716 255.235 282.805Z" fill="#4186EC"/>
<path opacity="0.52" d="M254.589 263.018L244.695 263.341C242.717 263.405 241.024 264.637 240.336 266.33L259.742 269.163L259.697 267.803C259.608 265.082 257.31 262.929 254.589 263.018Z" fill="#2C5AA0"/>
<path d="M221.926 283.934L212.033 284.257C209.312 284.346 207.013 282.193 206.924 279.472L206.601 269.578C206.512 266.857 208.666 264.559 211.387 264.47L221.28 264.147C224.001 264.058 226.3 266.211 226.389 268.932L226.712 278.826C226.8 281.547 224.647 283.845 221.926 283.934Z" fill="#777BB4"/>
<path opacity="0.52" d="M221.28 264.147L211.387 264.47C209.408 264.534 207.715 265.766 207.027 267.46L226.433 270.292L226.389 268.932C226.3 266.211 224.001 264.058 221.28 264.147Z" fill="#656999"/>
<path d="M290.868 387.472L280.975 387.795C278.254 387.884 275.955 385.731 275.866 383.01L275.543 373.116C275.455 370.396 277.608 368.097 280.329 368.008L290.222 367.685C292.943 367.596 295.242 369.75 295.331 372.47L295.654 382.364C295.743 385.085 293.589 387.384 290.868 387.472Z" fill="#4186EC"/>
<path opacity="0.52" d="M281.029 367.685L290.923 368.008C292.902 368.073 294.595 369.304 295.282 370.998L275.876 373.831L275.921 372.47C276.01 369.75 278.308 367.596 281.029 367.685Z" fill="#2C5AA0"/>
<path d="M254.67 247.238L244.777 247.561C242.056 247.65 239.757 245.497 239.668 242.776L239.345 232.882C239.257 230.162 241.41 227.863 244.131 227.774L254.024 227.451C256.745 227.362 259.044 229.516 259.133 232.236L259.456 242.13C259.545 244.851 257.391 247.15 254.67 247.238Z" fill="#B3B8FF"/>
<path opacity="0.52" d="M254.024 227.451L244.13 227.774C242.152 227.839 240.459 229.07 239.771 230.764L259.177 233.597L259.132 232.236C259.044 229.516 256.745 227.362 254.024 227.451Z" fill="#777BB4"/>
<path d="M226.829 389.538L216.936 389.86C214.215 389.949 211.916 387.795 211.828 385.074L211.505 375.181C211.417 372.46 213.57 370.161 216.291 370.073L226.185 369.75C228.906 369.662 231.204 371.815 231.293 374.536L231.615 384.43C231.704 387.151 229.55 389.449 226.829 389.538Z" fill="#777BB4"/>
<path opacity="0.52" d="M216.991 369.75L226.885 370.073C228.864 370.137 230.557 371.368 231.244 373.062L211.839 375.897L211.883 374.536C211.972 371.815 214.27 369.662 216.991 369.75Z" fill="#555881"/>
<path d="M255.799 318.372L245.905 318.695C243.185 318.784 240.886 316.63 240.797 313.909L240.474 304.016C240.385 301.295 242.539 298.996 245.259 298.907L255.153 298.584C257.874 298.496 260.173 300.649 260.261 303.37L260.584 313.263C260.673 315.984 258.52 318.283 255.799 318.372Z" fill="#E25050"/>
<path opacity="0.52" d="M255.153 298.584L245.26 298.907C243.281 298.972 241.588 300.203 240.9 301.897L260.306 304.73L260.262 303.37C260.173 300.649 257.874 298.496 255.153 298.584Z" fill="#622E3C"/>
<path d="M258.849 388.505L248.955 388.828C246.235 388.917 243.936 386.764 243.847 384.043L243.524 374.149C243.435 371.428 245.589 369.13 248.309 369.041L258.203 368.718C260.924 368.629 263.223 370.782 263.311 373.503L263.634 383.397C263.723 386.118 261.57 388.416 258.849 388.505Z" fill="#E25050"/>
<path opacity="0.52" d="M258.203 368.718L248.31 369.041C246.331 369.106 244.638 370.337 243.951 372.031L263.356 374.864L263.312 373.503C263.223 370.782 260.924 368.629 258.203 368.718Z" fill="#622E3C"/>
<path d="M251.281 144.51L207.22 145.949C204.515 146.037 202.302 143.905 202.216 141.253L201.517 119.86C201.429 117.15 203.556 114.933 206.204 114.847L250.266 113.408C252.971 113.32 255.184 115.452 255.27 118.105L255.967 139.441C256.055 142.15 253.986 144.422 251.281 144.51Z" fill="#606060" fill-opacity="0.4"/>
<path opacity="0.56" d="M228.508 122.482L247.552 121.86" stroke="#0D182E" stroke-width="2" stroke-miterlimit="10" stroke-linecap="round" stroke-linejoin="round"/>
<path opacity="0.56" d="M228.709 128.634L241.33 128.222" stroke="#0D182E" stroke-width="2" stroke-miterlimit="10" stroke-linecap="round" stroke-linejoin="round"/>
<g opacity="0.56">
<path opacity="0.56" d="M238.588 137.522L230.925 137.773C229.911 137.806 229.038 136.987 229.005 135.971C228.972 134.954 229.789 134.08 230.803 134.047L238.466 133.797C239.481 133.764 240.353 134.583 240.387 135.599C240.42 136.615 239.659 137.487 238.588 137.522Z" fill="#0D182E"/>
<path opacity="0.56" d="M238.588 137.522L230.925 137.773C229.911 137.806 229.038 136.987 229.005 135.971C228.972 134.954 229.789 134.08 230.803 134.047L238.466 133.797C239.481 133.764 240.353 134.583 240.387 135.599C240.42 136.615 239.659 137.487 238.588 137.522Z" stroke="#0D182E" stroke-width="2" stroke-miterlimit="10" stroke-linecap="round" stroke-linejoin="round"/>
</g>
<path d="M221.074 138.377L210.988 138.706C209.523 138.754 208.358 137.605 208.312 136.194L207.927 124.397C207.879 122.929 209.025 121.762 210.434 121.716L220.519 121.387C221.984 121.339 223.15 122.487 223.196 123.898L223.581 135.696C223.627 137.107 222.539 138.329 221.074 138.377Z" stroke="#0D182E" stroke-width="2" stroke-miterlimit="10" stroke-linecap="round" stroke-linejoin="round"/>
<path d="M215.807 130.807C217.301 130.758 218.472 129.506 218.423 128.009C218.374 126.513 217.124 125.34 215.63 125.388C214.136 125.437 212.965 126.69 213.014 128.186C213.063 129.682 214.313 130.856 215.807 130.807Z" stroke="#0D182E" stroke-width="2" stroke-miterlimit="10" stroke-linecap="round" stroke-linejoin="round"/>
<path d="M210.923 138.426C210.831 135.603 213.065 133.214 215.882 133.122C218.7 133.03 221.085 135.268 221.178 138.091" stroke="#0D182E" stroke-width="2" stroke-miterlimit="10" stroke-linecap="round" stroke-linejoin="round"/>
<path opacity="0.3" d="M166.577 225.145L154.214 218.006C152.174 216.829 151.468 214.196 152.646 212.156L185.006 156.107C186.184 154.067 188.816 153.361 190.856 154.539L203.22 161.677C205.26 162.855 205.966 165.488 204.788 167.528L172.428 223.577C171.238 225.638 168.638 226.334 166.577 225.145Z" fill="#0D182E" stroke="#0D182E" stroke-miterlimit="10" stroke-linecap="round" stroke-linejoin="round"/>
<path d="M165.405 223.369L153.041 216.231C151.001 215.053 150.295 212.42 151.473 210.38L183.833 154.331C185.011 152.291 187.644 151.586 189.684 152.763L202.047 159.902C204.087 161.079 204.793 163.712 203.615 165.752L171.255 221.801C170.066 223.862 167.465 224.558 165.405 223.369Z" fill="white"/>
<path d="M165.405 223.369L153.041 216.231C151.001 215.053 150.295 212.42 151.473 210.38L183.833 154.331C185.011 152.291 187.644 151.586 189.684 152.763L202.047 159.902C204.087 161.079 204.793 163.712 203.615 165.752L171.255 221.801C170.066 223.862 167.465 224.558 165.405 223.369Z" stroke="#0D182E" stroke-miterlimit="10" stroke-linecap="round" stroke-linejoin="round"/>
<path d="M182.201 202.843L162.419 191.422L183.833 154.331C185.011 152.291 187.644 151.586 189.684 152.763L202.047 159.902C204.087 161.079 204.793 163.712 203.615 165.752L182.201 202.843Z" stroke="#0D182E" stroke-miterlimit="10" stroke-linecap="round" stroke-linejoin="round"/>
<path d="M197.905 175.643L178.123 164.222L183.833 154.331C185.011 152.291 187.644 151.586 189.684 152.763L202.047 159.902C204.087 161.079 204.793 163.712 203.615 165.752L197.905 175.643Z" fill="#2C5AA0"/>
<path d="M197.905 175.643L178.123 164.222L183.833 154.331C185.011 152.291 187.644 151.586 189.684 152.763L202.047 159.902C204.087 161.079 204.793 163.712 203.615 165.752L197.905 175.643Z" stroke="#0D182E" stroke-miterlimit="10" stroke-linecap="round" stroke-linejoin="round"/>
<path d="M197.904 175.643L178.122 164.222L170.27 177.822L190.052 189.243L197.904 175.643Z" fill="#0D182E"/>
<path d="M197.904 175.643L178.122 164.222L170.27 177.822L190.052 189.243L197.904 175.643Z" fill="#4186EC" stroke="#0D182E" stroke-miterlimit="10" stroke-linecap="round" stroke-linejoin="round"/>
<path d="M190.052 189.243L170.27 177.822L162.418 191.422L182.2 202.843L190.052 189.243Z" fill="#0CB9FB"/>
<path d="M190.052 189.243L170.27 177.822L162.418 191.422L182.2 202.843L190.052 189.243Z" stroke="#0D182E" stroke-miterlimit="10" stroke-linecap="round" stroke-linejoin="round"/>
<path d="M166.45 219.984C167.36 220.51 168.524 220.198 169.05 219.287C169.576 218.377 169.264 217.213 168.353 216.687C167.443 216.161 166.279 216.473 165.753 217.384C165.227 218.294 165.539 219.458 166.45 219.984Z" stroke="#0D182E" stroke-miterlimit="10" stroke-linecap="round" stroke-linejoin="round"/>
<path opacity="0.3" d="M165.3 224.169L155.205 214.074C153.539 212.408 153.539 209.682 155.205 208.017L200.969 162.253C202.634 160.587 205.36 160.587 207.026 162.253L217.121 172.348C218.786 174.013 218.786 176.739 217.121 178.405L171.357 224.169C169.674 225.851 166.983 225.851 165.3 224.169Z" fill="#0D182E" stroke="#0D182E" stroke-miterlimit="10" stroke-linecap="round" stroke-linejoin="round"/>
<path d="M164.627 222.15L154.532 212.055C152.867 210.389 152.867 207.663 154.532 205.998L200.296 160.234C201.962 158.568 204.687 158.568 206.353 160.234L216.448 170.329C218.114 171.994 218.114 174.72 216.448 176.386L170.684 222.15C169.002 223.832 166.31 223.832 164.627 222.15Z" fill="white"/>
<path d="M164.627 222.15L154.532 212.055C152.867 210.389 152.867 207.663 154.532 205.998L200.296 160.234C201.962 158.568 204.687 158.568 206.353 160.234L216.448 170.329C218.114 171.994 218.114 174.72 216.448 176.386L170.684 222.15C169.002 223.832 166.31 223.832 164.627 222.15Z" stroke="#0D182E" stroke-miterlimit="10" stroke-linecap="round" stroke-linejoin="round"/>
<path d="M186.163 206.671L170.011 190.519L200.296 160.234C201.962 158.568 204.687 158.568 206.353 160.234L216.448 170.329C218.114 171.994 218.114 174.72 216.448 176.386L186.163 206.671Z" stroke="#0D182E" stroke-miterlimit="10" stroke-linecap="round" stroke-linejoin="round"/>
<path d="M208.372 184.462L192.22 168.31L200.296 160.234C201.962 158.568 204.687 158.568 206.353 160.234L216.448 170.329C218.114 171.994 218.114 174.72 216.448 176.386L208.372 184.462Z" fill="#672424"/>
<path d="M208.372 184.462L192.22 168.31L200.296 160.234C201.962 158.568 204.687 158.568 206.353 160.234L216.448 170.329C218.114 171.994 218.114 174.72 216.448 176.386L208.372 184.462Z" stroke="#0D182E" stroke-miterlimit="10" stroke-linecap="round" stroke-linejoin="round"/>
<path d="M208.372 184.462L192.22 168.31L181.116 179.414L197.268 195.566L208.372 184.462Z" fill="#0D182E"/>
<path d="M208.372 184.462L192.22 168.31L181.116 179.414L197.268 195.566L208.372 184.462Z" fill="#9E3636" stroke="#0D182E" stroke-miterlimit="10" stroke-linecap="round" stroke-linejoin="round"/>
<path d="M197.267 195.566L181.115 179.414L170.011 190.519L186.163 206.671L197.267 195.566Z" fill="#E25050"/>
<path d="M197.267 195.566L181.115 179.414L170.011 190.519L186.163 206.671L197.267 195.566Z" stroke="#0D182E" stroke-miterlimit="10" stroke-linecap="round" stroke-linejoin="round"/>
<path d="M166.513 219.151C167.257 219.894 168.462 219.894 169.205 219.151C169.949 218.408 169.949 217.202 169.205 216.459C168.462 215.716 167.257 215.716 166.513 216.459C165.77 217.202 165.77 218.408 166.513 219.151Z" stroke="#0D182E" stroke-miterlimit="10" stroke-linecap="round" stroke-linejoin="round"/>
<path opacity="0.3" d="M164.354 223.238L157.216 210.874C156.038 208.834 156.743 206.201 158.783 205.023L214.832 172.663C216.872 171.486 219.505 172.191 220.683 174.231L227.821 186.595C228.999 188.635 228.294 191.268 226.254 192.445L170.205 224.805C168.144 225.995 165.544 225.298 164.354 223.238Z" fill="#0D182E" stroke="#0D182E" stroke-miterlimit="10" stroke-linecap="round" stroke-linejoin="round"/>
<path d="M164.227 221.113L157.089 208.749C155.911 206.709 156.616 204.077 158.656 202.899L214.705 170.539C216.745 169.361 219.378 170.067 220.556 172.107L227.694 184.47C228.872 186.51 228.166 189.143 226.126 190.321L170.077 222.681C168.017 223.87 165.417 223.174 164.227 221.113Z" fill="white"/>
<path d="M164.227 221.113L157.089 208.749C155.911 206.709 156.616 204.077 158.656 202.899L214.705 170.539C216.745 169.361 219.378 170.067 220.556 172.107L227.694 184.47C228.872 186.51 228.166 189.143 226.126 190.321L170.077 222.681C168.017 223.87 165.417 223.174 164.227 221.113Z" stroke="#0D182E" stroke-miterlimit="10" stroke-linecap="round" stroke-linejoin="round"/>
<path d="M189.035 211.736L177.614 191.954L214.705 170.539C216.745 169.361 219.378 170.067 220.556 172.107L227.694 184.47C228.872 186.51 228.166 189.143 226.126 190.321L189.035 211.736Z" stroke="#0D182E" stroke-miterlimit="10" stroke-linecap="round" stroke-linejoin="round"/>
<path d="M216.235 196.031L204.814 176.249L214.705 170.539C216.745 169.361 219.378 170.067 220.556 172.107L227.694 184.47C228.872 186.51 228.166 189.143 226.126 190.321L216.235 196.031Z" fill="#383A56"/>
<path d="M216.235 196.031L204.814 176.249L214.705 170.539C216.745 169.361 219.378 170.067 220.556 172.107L227.694 184.47C228.872 186.51 228.166 189.143 226.126 190.321L216.235 196.031Z" stroke="#0D182E" stroke-miterlimit="10" stroke-linecap="round" stroke-linejoin="round"/>
<path d="M216.235 196.031L204.814 176.25L191.214 184.102L202.635 203.884L216.235 196.031Z" fill="#0D182E"/>
<path d="M216.235 196.031L204.814 176.25L191.214 184.102L202.635 203.884L216.235 196.031Z" fill="#555881" stroke="#0D182E" stroke-miterlimit="10" stroke-linecap="round" stroke-linejoin="round"/>
<path d="M202.635 203.883L191.213 184.102L177.613 191.954L189.034 211.736L202.635 203.883Z" fill="#777BB4"/>
<path d="M202.635 203.883L191.213 184.102L177.613 191.954L189.034 211.736L202.635 203.883Z" stroke="#0D182E" stroke-miterlimit="10" stroke-linecap="round" stroke-linejoin="round"/>
<path d="M166.825 218.705C167.35 219.615 168.515 219.927 169.425 219.402C170.335 218.876 170.647 217.712 170.122 216.801C169.596 215.891 168.432 215.579 167.521 216.105C166.611 216.63 166.299 217.795 166.825 218.705Z" stroke="#0D182E" stroke-miterlimit="10" stroke-linecap="round" stroke-linejoin="round"/>
<path d="M284.649 205.21L245.729 206.481C243.818 206.543 242.203 205.028 242.14 203.113L240.991 167.909C240.929 165.995 242.441 164.377 244.352 164.315L283.272 163.044C285.183 162.982 286.798 164.497 286.861 166.412L288.01 201.615C288.073 203.53 286.56 205.148 284.649 205.21Z" fill="#606060" fill-opacity="0.4"/>
<path d="M284.649 205.21L245.729 206.481C243.818 206.543 242.203 205.028 242.14 203.113L240.991 167.909C240.929 165.995 242.441 164.377 244.352 164.315L283.272 163.044C285.183 162.982 286.798 164.497 286.861 166.412L288.01 201.615C288.073 203.53 286.56 205.148 284.649 205.21Z" fill="#606060" fill-opacity="0.4"/>
<path d="M282.65 166.636L244.947 167.867L245.766 192.976L283.47 191.745L282.65 166.636Z" fill="#B3B8FF"/>
<path d="M282.65 166.636L244.947 167.867L245.766 192.976L283.47 191.745L282.65 166.636Z" stroke="#444E59" stroke-width="2" stroke-miterlimit="10" stroke-linecap="round" stroke-linejoin="round"/>
<path d="M245.897 196.979L269.701 196.202" stroke="#444E59" stroke-width="2" stroke-miterlimit="10" stroke-linecap="round" stroke-linejoin="round"/>
<path d="M246.028 200.982L260.101 200.523" stroke="#444E59" stroke-width="2" stroke-miterlimit="10" stroke-linecap="round" stroke-linejoin="round"/>
<path d="M249.399 188.37L257.259 180.055L265.064 187.379" stroke="#444E59" stroke-width="2" stroke-miterlimit="10" stroke-linecap="round" stroke-linejoin="round"/>
<path d="M279.24 187.396L269.004 174.879L261.429 183.926" stroke="#444E59" stroke-width="2" stroke-miterlimit="10" stroke-linecap="round" stroke-linejoin="round"/>
<path d="M279.56 199.844C280.735 199.805 281.657 198.82 281.618 197.642C281.58 196.465 280.596 195.541 279.42 195.579C278.245 195.618 277.323 196.604 277.362 197.781C277.4 198.959 278.384 199.882 279.56 199.844Z" stroke="#444E59" stroke-width="2" stroke-miterlimit="10" stroke-linecap="round" stroke-linejoin="round"/>
<path d="M259.58 177.888C261.067 177.839 262.233 176.592 262.185 175.102C262.136 173.612 260.891 172.443 259.404 172.492C257.916 172.541 256.75 173.788 256.799 175.278C256.847 176.768 258.092 177.936 259.58 177.888Z" fill="#FECE2D"/>
<path d="M259.58 177.888C261.067 177.839 262.233 176.592 262.185 175.102C262.136 173.612 260.891 172.443 259.404 172.492C257.916 172.541 256.75 173.788 256.799 175.278C256.847 176.768 258.092 177.936 259.58 177.888Z" stroke="#444E59" stroke-width="2" stroke-miterlimit="10" stroke-linecap="round" stroke-linejoin="round"/>
<path d="M295.291 131.474L295.108 127.485L292.453 127.598C292.277 127.098 292.076 126.651 291.796 126.208L293.593 124.231L290.66 121.53L288.863 123.507C288.404 123.282 287.92 123.111 287.411 122.995L287.297 120.335L283.315 120.518L283.429 123.178C282.929 123.354 282.484 123.555 282.041 123.836L280.068 122.036L277.372 124.974L279.345 126.774C279.121 127.234 278.951 127.719 278.834 128.229L276.179 128.342L276.363 132.332L279.018 132.218C279.194 132.719 279.394 133.165 279.675 133.609L277.878 135.585L280.811 138.286L282.608 136.309C283.067 136.534 283.551 136.705 284.06 136.821L284.174 139.481L288.156 139.298L288.042 136.638C288.542 136.462 288.987 136.261 289.43 135.98L291.403 137.78L294.099 134.842L292.126 133.042C292.35 132.582 292.52 132.097 292.636 131.587L295.291 131.474ZM285.903 133.006C284.177 133.089 282.751 131.75 282.668 130.022C282.585 128.293 283.921 126.864 285.647 126.781C287.372 126.698 288.798 128.037 288.881 129.765C288.938 131.495 287.602 132.924 285.903 133.006Z" fill="white"/>
<path d="M295.291 131.474L295.108 127.485L292.453 127.598C292.277 127.098 292.076 126.651 291.796 126.208L293.593 124.231L290.66 121.53L288.863 123.507C288.404 123.282 287.92 123.111 287.411 122.995L287.297 120.335L283.315 120.518L283.429 123.178C282.929 123.354 282.484 123.555 282.041 123.836L280.068 122.036L277.372 124.974L279.345 126.774C279.121 127.234 278.951 127.719 278.834 128.229L276.179 128.342L276.363 132.332L279.018 132.218C279.194 132.719 279.394 133.165 279.675 133.609L277.878 135.585L280.811 138.286L282.608 136.309C283.067 136.534 283.551 136.705 284.06 136.821L284.174 139.481L288.156 139.298L288.042 136.638C288.542 136.462 288.987 136.261 289.43 135.98L291.403 137.78L294.099 134.842L292.126 133.042C292.35 132.582 292.52 132.097 292.636 131.587L295.291 131.474ZM285.903 133.006C284.177 133.089 282.751 131.75 282.668 130.022C282.585 128.293 283.921 126.864 285.647 126.781C287.372 126.698 288.798 128.037 288.881 129.765C288.938 131.495 287.602 132.924 285.903 133.006Z" fill="#0CB9FB"/>
<path d="M295.291 131.474L295.108 127.485L292.453 127.598C292.277 127.098 292.076 126.651 291.796 126.208L293.593 124.231L290.66 121.53L288.863 123.507C288.404 123.282 287.92 123.111 287.411 122.995L287.297 120.335L283.315 120.518L283.429 123.178C282.929 123.354 282.484 123.555 282.041 123.836L280.068 122.036L277.372 124.974L279.345 126.774C279.121 127.234 278.951 127.719 278.834 128.229L276.179 128.342L276.363 132.332L279.018 132.218C279.194 132.719 279.394 133.165 279.675 133.609L277.878 135.585L280.811 138.286L282.608 136.309C283.067 136.534 283.551 136.705 284.06 136.821L284.174 139.481L288.156 139.298L288.042 136.638C288.542 136.462 288.987 136.261 289.43 135.98L291.403 137.78L294.099 134.842L292.126 133.042C292.35 132.582 292.52 132.097 292.636 131.587L295.291 131.474ZM285.903 133.006C284.177 133.089 282.751 131.75 282.668 130.022C282.585 128.293 283.921 126.864 285.647 126.781C287.372 126.698 288.798 128.037 288.881 129.765C288.938 131.495 287.602 132.924 285.903 133.006Z" fill="#0CB9FB"/>
<g opacity="0.29">
<path opacity="0.29" d="M294.153 127.542C294.153 127.542 294.154 127.569 294.153 127.542L295.136 127.51L295.135 127.484L294.153 127.542Z" fill="#0CB9FB"/>
<path opacity="0.29" d="M290.564 123.478L291.565 122.38L290.687 121.556L289.352 123.011C289.781 123.131 290.185 123.277 290.564 123.478Z" fill="#0CB9FB"/>
<path opacity="0.29" d="M287.293 126.728C287.001 126.737 286.737 126.799 286.5 126.86C287.813 127.19 288.808 128.33 288.854 129.74C288.927 131.176 287.985 132.432 286.695 132.847C286.963 132.918 287.284 132.96 287.575 132.924C289.301 132.841 290.609 131.387 290.554 129.684C290.498 127.981 289.019 126.671 287.293 126.728Z" fill="#0CB9FB"/>
<path opacity="0.29" d="M283.219 123.265L283.767 123.753C284.21 123.499 284.655 123.271 285.154 123.095L285.041 120.435L287.324 120.334L287.323 120.308L283.341 120.491L283.455 123.151C283.403 123.206 283.298 123.236 283.219 123.265Z" fill="#0CB9FB"/>
<path opacity="0.29" d="M285.732 136.74C285.224 136.623 284.739 136.453 284.28 136.228L283.819 136.749C283.899 136.773 283.98 136.797 284.06 136.821L284.174 139.481L285.846 139.4L285.732 136.74Z" fill="#0CB9FB"/>
<path opacity="0.29" d="M277.905 128.259L280.56 128.146C280.676 127.636 280.847 127.151 281.071 126.691L279.098 124.891L280.998 122.831L280.12 122.008L277.425 124.946L279.398 126.746C279.173 127.206 279.003 127.691 278.887 128.201L276.232 128.314L276.415 132.303L278.088 132.222L277.905 128.259Z" fill="#0CB9FB"/>
<path opacity="0.29" d="M291.103 135.925C290.738 136.15 290.371 136.322 289.977 136.468L291.403 137.78L292.198 136.902L291.103 135.925Z" fill="#0CB9FB"/>
<path opacity="0.29" d="M279.576 135.476L281.373 133.5C281.119 133.055 280.892 132.61 280.716 132.11L279.044 132.191C279.219 132.665 279.42 133.137 279.673 133.555L277.877 135.532L280.81 138.233L281.605 137.354L279.576 135.476Z" fill="#0CB9FB"/>
</g>
<path fill-rule="evenodd" clip-rule="evenodd" d="M446.528 253.218C441.671 253.565 437.468 252.786 435.979 251.471C432.246 248.173 439.862 232.249 446.346 227.745C452.829 223.241 471.302 229.25 465.906 241.97C464.033 246.385 460.305 249.277 456.079 251.034L449.56 275.55L435.787 268.532L446.528 253.218Z" fill="#FFD1B5"/>
<path fill-rule="evenodd" clip-rule="evenodd" d="M444.622 216.043C445.418 215.186 446.623 214.718 447.786 214.99C448.069 215.056 448.34 215.163 448.593 215.305C448.683 215.356 448.696 215.396 448.772 215.353C448.829 215.321 448.889 215.205 448.931 215.155C449.061 215.001 449.201 214.854 449.35 214.717C449.86 214.252 450.483 213.928 451.139 213.723C452.368 213.338 453.758 213.349 454.959 213.835C455.617 214.101 456.19 214.522 456.681 215.03C456.935 215.293 457.167 215.578 457.384 215.872C457.449 215.961 457.624 216.321 457.719 216.352C457.824 216.386 458.142 216.244 458.252 216.223C459.61 215.972 460.966 216.292 462.177 216.92C463.545 217.63 464.832 218.372 465.55 219.792C465.702 220.093 465.834 220.404 465.95 220.721C466.011 220.887 466.066 221.056 466.114 221.226C466.143 221.329 466.169 221.433 466.192 221.537C466.231 221.715 466.193 221.747 466.382 221.733C467.103 221.679 467.821 221.848 468.424 222.255C468.782 222.496 469.095 222.8 469.371 223.131C469.465 223.244 469.639 223.59 469.766 223.657C469.892 223.724 470.263 223.674 470.418 223.692C471.257 223.791 472.052 224.115 472.733 224.614C473.436 225.129 474.033 225.818 474.467 226.571C474.675 226.933 474.833 227.297 474.898 227.711C474.926 227.889 474.941 228.071 474.986 228.246C475.013 228.349 475.1 228.485 475.088 228.591C475.095 228.528 476.122 228.634 476.213 228.654C476.702 228.761 477.13 229.008 477.481 229.362C478.142 230.028 478.527 230.962 478.782 231.849C478.913 232.305 478.991 232.774 479.02 233.247C479.034 233.473 479.037 233.7 479.029 233.927C479.026 234.037 478.997 234.162 479.011 234.269C479.029 234.408 479.076 234.435 479.181 234.545C479.715 235.103 480.111 235.791 480.297 236.542C480.485 237.301 480.45 238.101 480.226 238.847C480.213 238.891 480.133 239.06 480.145 239.094C480.162 239.141 480.299 239.194 480.346 239.225C480.507 239.332 480.662 239.449 480.809 239.574C481.081 239.805 481.327 240.066 481.54 240.352C482.37 241.466 482.64 242.9 482.438 244.257C482.226 245.68 481.509 247.069 480.414 248.014C480.237 248.167 480.048 248.306 479.848 248.427C479.725 248.501 479.703 248.49 479.689 248.627C479.673 248.778 479.7 248.947 479.695 249.1C479.678 249.601 479.592 250.097 479.452 250.578C479.224 251.366 478.907 252.156 478.403 252.811C478.169 253.115 477.892 253.388 477.572 253.602C477.409 253.711 477.236 253.805 477.055 253.882C476.961 253.921 476.865 253.956 476.768 253.987C476.712 254.004 476.648 254.011 476.595 254.036C476.468 254.095 476.493 254.006 476.459 254.171C476.411 254.403 476.435 254.667 476.411 254.904C476.387 255.149 476.353 255.392 476.313 255.634C476.23 256.124 476.124 256.611 475.971 257.084C475.678 257.993 475.199 258.876 474.409 259.444C474.071 259.687 473.68 259.852 473.27 259.926C473.069 259.963 472.864 259.978 472.66 259.972C472.555 259.969 472.439 259.931 472.359 259.993C472.273 260.06 472.245 260.266 472.209 260.371C471.896 261.287 471.501 262.215 470.82 262.923C470.194 263.575 469.332 263.993 468.434 264.103C466.692 264.317 464.969 263.377 463.963 261.983C463.701 261.619 463.484 261.223 463.324 260.805C462.051 261.437 460.514 260.613 459.559 259.762C458.368 258.701 457.752 257.183 457.757 255.604C456.349 256.219 454.7 254.946 454.683 253.492C454.678 253.136 454.748 252.782 454.865 252.447C454.926 252.271 455.025 252.112 455.091 251.94C455.176 251.721 455.14 251.447 455.163 251.205C455.207 250.734 455.316 250.28 455.527 249.855C455.638 249.633 455.775 249.432 455.908 249.224C456.027 249.037 456.066 248.825 456.134 248.615C456.457 248.852 456.935 248.976 457.319 249.043C457.696 249.109 458.136 249 458.489 248.876C459.308 248.588 460.009 248.02 460.604 247.403C461.911 246.048 462.691 244.021 461.526 242.319C460.984 241.526 458.731 240.38 457.733 240.126C456.683 239.86 454.557 241.393 454.405 241.562C454.311 241.666 454.252 241.824 454.099 241.848C453.765 241.9 453.52 241.388 453.417 241.145C453.24 240.725 453.196 240.264 453.184 239.813C453.157 238.832 453.241 237.835 453.432 236.872C453.579 236.13 453.802 235.401 453.885 234.647C453.967 233.896 453.877 233.142 453.474 232.487C453.035 231.775 452.41 231.199 451.835 230.6C451.266 230.005 450.736 229.364 450.46 228.578C450.4 228.405 450.346 228.227 450.319 228.046C450.297 227.903 450.325 227.664 450.245 227.54C450.12 227.346 449.724 227.483 449.52 227.502C448.517 227.597 447.543 227.946 446.66 228.42C445.781 228.89 445.007 229.38 444.254 230.022C443.696 230.498 443.145 231.192 442.452 231.462C442.143 231.583 440.611 230.971 440.235 230.536C439.859 230.102 439.583 229.33 439.584 228.935C439.585 228.531 439.726 228.158 439.974 227.841C440.121 227.655 440.303 227.505 440.452 227.325C440.578 227.173 440.695 227.03 440.858 226.916C441.166 226.699 441.544 226.624 441.914 226.7C441.735 226.216 441.645 225.701 441.663 225.186C441.683 224.651 441.78 224.038 441.974 223.538C442.131 223.133 442.395 222.764 442.775 222.54C443.174 222.305 443.682 222.278 444.132 222.234C443.82 221.564 443.628 220.845 443.541 220.113C443.373 218.689 443.616 217.126 444.622 216.043Z" fill="#4A312C"/>
<path fill-rule="evenodd" clip-rule="evenodd" d="M441.121 323.081L417.527 404.382L406.43 465.423H395.292L406.41 323.081H441.121Z" fill="#FFD1B5"/>
<path fill-rule="evenodd" clip-rule="evenodd" d="M441.121 323.081L417.527 404.382L406.43 465.423H395.292L406.41 323.081H441.121Z" fill="black" fill-opacity="0.1"/>
<path fill-rule="evenodd" clip-rule="evenodd" d="M451.723 323.081C450.077 365.316 450.726 388.352 451.095 392.19C451.463 396.027 453.555 421.726 467.809 466.711H456.224C437.348 423.556 430.758 397.856 428.593 392.19C426.428 386.523 420.034 363.487 410.699 323.081H451.723Z" fill="#FFD1B5"/>
<path fill-rule="evenodd" clip-rule="evenodd" d="M441.627 323.081C435.49 351.057 424.876 395.713 409.784 457.05H393.493C392.29 394.094 397.409 352.658 406.273 323.081H441.627Z" fill="#2C5AA0"/>
<path fill-rule="evenodd" clip-rule="evenodd" d="M451.806 323.081C450.194 365.316 454.372 406.926 467.315 457.708H449.934C431.022 415.196 417.468 373.792 408.204 323.081H451.806Z" fill="#4186EC"/>
<path fill-rule="evenodd" clip-rule="evenodd" d="M469.46 475.084L468.871 465.584C468.845 465.171 468.444 464.889 468.04 464.975C462.458 466.161 454.758 463.491 454.758 463.491C447.009 468.98 435.839 471.499 431.905 472.253C431.144 472.399 430.656 473.167 430.867 473.912L431.747 477.017H454.758H468.182L469.46 475.084Z" fill="#FECE2D"/>
<path fill-rule="evenodd" clip-rule="evenodd" d="M408.916 475.084L408.327 465.584C408.301 465.171 407.901 464.889 407.496 464.975C401.914 466.161 394.215 463.491 394.215 463.491C386.466 468.98 375.295 471.499 371.361 472.253C370.6 472.399 370.112 473.167 370.323 473.912L371.203 477.017H394.215H407.638L408.916 475.084Z" fill="#FECE2D"/>
<path fill-rule="evenodd" clip-rule="evenodd" d="M403.245 264.564L421.974 281.853L411.82 288.454L399.656 270.092C391.924 265.734 388.544 263.113 389.518 262.23C390.338 261.486 391.294 261.757 392.175 262.007C392.861 262.202 393.501 262.384 393.996 262.062C395.126 261.327 394.26 257.559 393.284 254.017C392.309 250.476 394.112 251.212 395.071 251.926C397.981 255.169 400.705 259.381 403.245 264.564ZM377.279 275.797L385.502 283.407L382.575 292.834C382.575 292.834 377.514 286.841 372.574 284.037C366.276 280.461 363.896 278.337 361.639 273.297C360.431 270.601 360.059 265.693 362.112 264.636C362.9 264.231 364.974 266.169 367.09 268.147C368.703 269.654 370.341 271.185 371.452 271.718C372.947 272.435 373.272 270.346 373.532 268.676C373.718 267.478 373.871 266.496 374.399 266.923C377.176 267.666 377.279 275.797 377.279 275.797Z" fill="#FFD1B5"/>
<path fill-rule="evenodd" clip-rule="evenodd" d="M433.199 281.841C425.621 279.866 415.889 275.735 406.789 266.177L400.183 274.587C405.795 283.847 414.764 292.541 423.996 294.57C431.272 296.168 437.143 288.35 433.199 281.841Z" fill="#E2B727"/>
<mask id="mask0_520_260" style="mask-type:alpha" maskUnits="userSpaceOnUse" x="400" y="266" width="35" height="29">
<path fill-rule="evenodd" clip-rule="evenodd" d="M433.199 281.841C425.621 279.866 415.889 275.735 406.789 266.177L400.183 274.587C405.795 283.847 414.764 292.541 423.996 294.57C431.272 296.168 437.143 288.35 433.199 281.841Z" fill="white"/>
</mask>
<g mask="url(#mask0_520_260)">
</g>
<path fill-rule="evenodd" clip-rule="evenodd" d="M437.517 351.816C444.975 352.675 451.828 353.464 455.568 355.219C463.555 341.987 462.14 332.05 460.834 322.876C460.047 317.347 459.3 312.096 460.674 306.568C464.675 290.47 457.928 262.473 456.026 261.999L455.481 261.863L440.411 258.106L438.686 257.676C435.428 267.442 429.43 277.401 423.394 287.424C421.984 289.765 420.572 292.109 419.193 294.455C405.878 294.174 380.378 277.239 380.378 277.239C380.378 277.239 369.669 290.093 368.651 296.449C382.818 309.018 395.831 316.292 407.27 319.41C405.203 326.143 404.415 332.844 405.726 339.473C407.483 348.355 423.559 350.207 437.517 351.816Z" fill="#FECE2D"/>
<mask id="mask1_520_260" style="mask-type:alpha" maskUnits="userSpaceOnUse" x="368" y="257" width="94" height="99">
<path fill-rule="evenodd" clip-rule="evenodd" d="M437.517 351.816C444.975 352.675 451.828 353.464 455.568 355.219C463.555 341.987 462.14 332.05 460.834 322.876C460.047 317.347 459.3 312.096 460.674 306.568C464.675 290.47 457.928 262.473 456.026 261.999L455.481 261.863L440.411 258.106L438.686 257.676C435.428 267.442 429.43 277.401 423.394 287.424C421.984 289.765 420.572 292.109 419.193 294.455C405.878 294.174 380.378 277.239 380.378 277.239C380.378 277.239 369.669 290.093 368.651 296.449C382.818 309.018 395.831 316.292 407.27 319.41C405.203 326.143 404.415 332.844 405.726 339.473C407.483 348.355 423.559 350.207 437.517 351.816Z" fill="white"/>
</mask>
<g mask="url(#mask1_520_260)">
</g>
</svg>
