<svg width="680" height="446" viewBox="0 0 680 446" fill="none" xmlns="http://www.w3.org/2000/svg">
    <path fill-rule="evenodd" clip-rule="evenodd" d="M95.8491 181.119C101.879 184.753 107.804 186.509 110.585 185.792C117.558 183.995 118.2 158.483 112.804 148.425C107.408 138.368 79.6683 133.984 78.2702 153.911C77.7849 160.827 80.689 167 84.9796 172.036L77.2861 207.895H99.6339L95.8491 181.119Z" fill="#FFD1B5"/>
    <path fill-rule="evenodd" clip-rule="evenodd" d="M103.976 137.471C88.46 131.673 76.2916 142.876 74.6779 144.721C72.9676 146.676 71.8291 149.119 70.9871 151.603C70.0726 154.302 69.5067 157.106 69.2976 159.964C69.0991 162.678 69.0807 165.549 69.7172 168.206C70.3125 170.69 71.5857 172.728 73.7111 174.021C74.6847 174.614 75.7323 175.059 76.7858 175.465C77.8241 175.866 78.8656 176.256 79.9532 176.481C82.0117 176.906 84.3835 176.833 85.9692 175.195C86.5406 174.604 87.1691 173.862 87.586 173.14C87.7359 172.881 87.8264 172.711 87.6442 172.457C87.4261 172.154 87.0731 171.921 86.7929 171.683C85.1944 170.328 84.205 168.519 83.9556 166.37C83.7025 164.189 84.2884 161.374 86.4089 160.422C89.0265 159.247 91.9093 160.595 94.2358 161.853C95.2246 158.363 97.2548 155.221 100.438 153.62C103.959 151.849 108 151.642 111.619 150.122C112.562 149.726 113.522 149.277 114.217 148.47C114.507 148.133 114.847 147.695 114.963 147.249C115.115 146.664 114.737 146.173 114.446 145.716C112.898 143.294 109.886 139.68 103.976 137.471Z" fill="#4A312C"/>
    <path d="M78.2174 148.301C85.9313 148.301 92.1847 142.047 92.1847 134.333C92.1847 126.619 85.9313 120.366 78.2174 120.366C70.5034 120.366 64.25 126.619 64.25 134.333C64.25 142.047 70.5034 148.301 78.2174 148.301Z" fill="#4A312C"/>
    <path fill-rule="evenodd" clip-rule="evenodd" d="M75.3618 172.632C75.3618 172.632 67.8183 190.476 61.4595 196.363C64.25 202.276 79.0605 201.565 79.0605 201.565L84.6447 175.436L75.3618 172.632Z" fill="#4A312C"/>
    <path fill-rule="evenodd" clip-rule="evenodd" d="M14.8985 324.29C6.67026 324.29 0 330.96 0 339.188V424.855C0 433.083 6.67026 439.753 14.8985 439.753H121.982C130.21 439.753 136.88 433.083 136.88 424.855V339.188C136.88 330.96 130.21 324.29 121.982 324.29H14.8985ZM29.7971 350.362C27.74 350.362 26.0724 352.03 26.0724 354.087V409.956C26.0724 412.013 27.74 413.681 29.7971 413.681H107.083C109.14 413.681 110.808 412.013 110.808 409.956V354.087C110.808 352.03 109.14 350.362 107.083 350.362H29.7971Z" fill="#0CB9FB"/>
    <path fill-rule="evenodd" clip-rule="evenodd" d="M229.213 435.097C210.854 412.679 198.433 396.059 191.947 385.238C180.843 366.708 171.755 350.221 168.887 343.923C162.048 328.904 184.632 321.871 189.743 328.876C197.479 339.479 214.001 372.843 239.308 428.968L229.213 435.097Z" fill="#FFD1B5"/>
    <path fill-rule="evenodd" clip-rule="evenodd" d="M191.593 428.579L157.426 342.575C150.119 326.897 185.408 316.591 190.778 323.887C202.971 340.452 231.951 405.798 235.583 410.733L191.593 428.579Z" fill="#1F3969"/>
    <path fill-rule="evenodd" clip-rule="evenodd" d="M100.596 411.331C107.252 401.623 131.46 368.961 144.645 355.447C148.434 351.564 152.132 347.836 155.628 344.363C166.022 334.039 186.719 351.392 176.344 360.795C150.508 384.214 112.811 415.829 109.661 418.648C105.247 422.598 96.4129 417.432 100.596 411.331Z" fill="#FFD1B5"/>
    <path fill-rule="evenodd" clip-rule="evenodd" d="M104.908 407.335C104.263 406.456 103.014 406.247 102.18 406.949C100.657 408.23 98.4681 410.202 97.6775 411.571C96.4186 413.752 94.7295 418.356 94.7295 418.356C97.2594 419.817 140.212 444.616 140.212 444.616C140.212 444.616 145.369 439.778 141.819 437.106C138.269 434.433 135.96 432.597 135.96 432.597L120.261 410.968C119.953 410.544 119.355 410.457 118.94 410.777L115.678 413.289C115.678 413.289 111.189 412.898 108.978 411.621C107.632 410.844 105.988 408.808 104.908 407.335Z" fill="#E2E2E2"/>
    <path fill-rule="evenodd" clip-rule="evenodd" d="M223.897 430.706C222.899 430.267 221.713 430.712 221.341 431.737C220.663 433.606 219.753 436.409 219.753 437.99C219.753 440.508 220.592 445.34 220.592 445.34C223.514 445.34 273.112 445.34 273.112 445.34C273.112 445.34 275.159 438.572 270.748 438.032C266.337 437.493 263.42 437.058 263.42 437.058L239.01 426.176C238.53 425.962 237.97 426.186 237.769 426.671L236.2 430.478C236.2 430.478 232.117 432.383 229.565 432.383C228.011 432.383 225.569 431.442 223.897 430.706Z" fill="#E2E2E2"/>
    <path fill-rule="evenodd" clip-rule="evenodd" d="M145.132 346.87C145.132 346.87 102.536 339.931 88.0689 337.38C60.5783 332.533 52.562 317.739 57.3016 285.462H107.953C118.008 288.366 191.974 321.377 191.974 321.377C200.846 325.781 199.194 338.767 197.573 343.045C197.473 343.307 152.702 419.932 152.702 419.932L111.268 393.535L145.21 349.981C145.21 349.981 146.555 347.272 145.132 346.87Z" fill="#2C5AA0"/>
    <path fill-rule="evenodd" clip-rule="evenodd" d="M184.704 178.994L149.41 189.589L158.422 204.601L185.864 188.451C198.674 187.688 204.726 186.425 204.021 184.661C203.426 183.173 202.012 182.92 200.709 182.686C199.694 182.504 198.747 182.335 198.308 181.603C197.305 179.933 200.82 175.585 204.331 171.601C207.844 167.617 205.033 167.432 203.336 167.751C197.499 170.121 191.289 173.868 184.704 178.994ZM175.993 273.627L146.291 251.816L139.725 268.047L169.138 280.244C177.457 290.015 182.108 294.088 183.093 292.464C183.923 291.095 183.274 289.812 182.676 288.631C182.211 287.711 181.776 286.852 182.096 286.062C182.827 284.255 188.415 284.445 193.71 284.853C199.004 285.26 197.461 282.904 196.185 281.74C190.78 278.505 184.05 275.801 175.993 273.627Z" fill="#FFD1B5"/>
    <path fill-rule="evenodd" clip-rule="evenodd" d="M100.156 193.077C116.331 223.237 139.72 246.356 173.629 270.39L160.79 284.867C122.93 270.797 102.948 262.308 93.1354 233.813C90.6724 226.662 88.9517 203.864 87.4749 191.868L100.156 193.077Z" fill="#3977D2"/>
    <path fill-rule="evenodd" clip-rule="evenodd" d="M54.9385 293.561H126.638C126.638 293.561 102.276 219.262 101.748 191.573C101.73 190.632 99.9916 188.974 99.2234 189.191C90.7881 191.573 81.1711 187.409 81.1711 187.409C64.1732 214.747 58.2951 248.404 54.9385 293.561Z" fill="#E2E2E2"/>
    <path fill-rule="evenodd" clip-rule="evenodd" d="M99.1553 229.117C110.353 277.152 109.838 316.473 85.1144 316.473H46.8849C40.8131 275.668 56.771 219.091 71.5651 190.553C72.1303 189.464 73.3325 187.409 76.166 187.409H87.2747C87.2793 187.424 87.284 187.439 87.2896 187.453C90.6315 187.481 94.3133 187.603 98.2996 187.735C118.823 188.417 147.441 189.367 179.642 179.029L183.438 198C154.374 216.692 124.944 231.173 99.1553 229.117Z" fill="#4186EC"/>
    <path d="M369.632 242.632L397.689 226.326L397.603 256.829L369.545 273.134L369.632 242.632Z" fill="#777BB4"/>
    <path d="M369.632 242.632L397.689 226.326L397.603 256.829L369.545 273.134L369.632 242.632Z" stroke="#1E223B" stroke-width="2" stroke-linecap="round" stroke-linejoin="round"/>
    <path opacity="0.88" d="M343.087 227.306L371.144 211L397.689 226.326L369.632 242.632L343.087 227.306Z" fill="#FF5855" stroke="#1E223B" stroke-miterlimit="10"/>
    <path d="M369.632 242.632L369.545 273.134L343 257.808L343.087 227.306L369.632 242.632Z" fill="#0CB9FB"/>
    <path d="M343.087 227.306L371.144 211L397.689 226.326L369.632 242.632L343.087 227.306Z" stroke="#1E223B" stroke-width="2" stroke-linecap="round" stroke-linejoin="round"/>
    <path d="M369.632 242.632L369.545 273.134L343 257.808L343.087 227.306L369.632 242.632Z" stroke="#1E223B" stroke-width="2" stroke-linecap="round" stroke-linejoin="round"/>
    <path opacity="0.39" d="M394.548 104.096C423.017 104.096 446.096 81.017 446.096 52.548C446.096 24.078 423.017 1 394.548 1C366.079 1 343 24.078 343 52.548C343 81.017 366.079 104.096 394.548 104.096Z" fill="#0D182E"/>
    <path d="M393.84 53.108L421.687 36.926L421.601 67.199L393.754 83.382L393.84 53.108Z" stroke="#E2E2E2" stroke-width="2" stroke-linecap="round" stroke-linejoin="round"/>
    <path d="M367.494 37.8978L395.341 21.7148L421.687 36.9258L393.84 53.1078L367.494 37.8978Z" stroke="#E2E2E2" stroke-width="2" stroke-linecap="round" stroke-linejoin="round"/>
    <path d="M367.494 37.8978L395.341 21.7148L421.687 36.9258L393.84 53.1078L367.494 37.8978Z" fill="#E25050" stroke="#E2E2E2" stroke-width="2" stroke-linecap="round" stroke-linejoin="round"/>
    <path opacity="0.4" d="M393.84 53.108L393.754 83.382L367.408 68.171L367.494 37.8979L393.84 53.108Z" fill="#E25050" stroke="#E2E2E2" stroke-width="2" stroke-linecap="round" stroke-linejoin="round"/>
    <path d="M393.84 53.108L393.754 83.382L367.408 68.171L367.494 37.8979L393.84 53.108Z" stroke="#E2E2E2" stroke-width="2" stroke-linecap="round" stroke-linejoin="round"/>
    <path d="M394.548 104.096C423.017 104.096 446.096 81.017 446.096 52.548C446.096 24.078 423.017 1 394.548 1C366.079 1 343 24.078 343 52.548C343 81.017 366.079 104.096 394.548 104.096Z" stroke="#E2E2E2" stroke-width="2" stroke-linecap="round" stroke-linejoin="round"/>
    <path d="M356.465 72H249.79C243.831 72 239 76.831 239 82.79V113.411C239 119.37 243.831 124.201 249.79 124.201H356.465C362.424 124.201 367.255 119.37 367.255 113.411V82.79C367.255 76.831 362.424 72 356.465 72Z" fill="#E25050" stroke="#E2E2E2" stroke-width="2" stroke-miterlimit="10"/>
    <path d="M356.465 72H249.79C243.831 72 239 76.831 239 82.79V113.411C239 119.37 243.831 124.201 249.79 124.201H356.465C362.424 124.201 367.255 119.37 367.255 113.411V82.79C367.255 76.831 362.424 72 356.465 72Z" stroke="#E2E2E2" stroke-width="2" stroke-linecap="round" stroke-linejoin="round"/>
    <path d="M270.582 109.931V99.5732H258.276V109.931H254.126V86.2722H258.276V95.9192H270.582V86.2722H274.732V109.931H270.582Z" fill="#0D182E"/>
    <path d="M288.071 109.931V89.9311H280.906V86.2781H299.382V89.9311H292.217V109.931H288.071Z" fill="#0D182E"/>
    <path d="M325.988 109.931V91.6632L318.752 109.931H316.982L309.712 91.6652V109.931H305.562V86.2722H311.414L317.87 102.517L324.289 86.2722H330.141V109.931H325.988Z" fill="#0D182E"/>
    <path d="M337.552 109.931V86.2722H341.701V106.272H352.129V109.931H337.552Z" fill="#0D182E"/>
        <g clip-path="url(#clip0_448_1547)">
            <path fill-rule="evenodd" clip-rule="evenodd" d="M627 218.2V239C620.521 238.996 614.276 236.573 609.49 232.206C604.704 227.838 601.721 221.841 601.126 215.389C600.53 208.937 602.365 202.496 606.271 197.326C610.177 192.157 615.873 188.632 622.242 187.442L627 192.2H640C643.443 192.2 646.746 193.566 649.183 195.998C651.62 198.431 652.993 201.731 653 205.174V228.626C652.993 231.38 651.894 234.018 649.945 235.963C647.995 237.908 645.354 239 642.6 239V233.8C643.979 233.8 645.302 233.252 646.277 232.277C647.252 231.302 647.8 229.979 647.8 228.6C647.8 227.221 647.252 225.898 646.277 224.923C645.302 223.948 643.979 223.4 642.6 223.4H632.2L627 218.2ZM641.3 210.4C642.334 210.4 643.326 209.989 644.058 209.258C644.789 208.526 645.2 207.534 645.2 206.5C645.2 205.466 644.789 204.474 644.058 203.742C643.326 203.011 642.334 202.6 641.3 202.6C640.266 202.6 639.274 203.011 638.542 203.742C637.811 204.474 637.4 205.466 637.4 206.5C637.4 207.534 637.811 208.526 638.542 209.258C639.274 209.989 640.266 210.4 641.3 210.4Z" fill="#B3B8FF"/>
        </g>
    <path d="M626.548 264.096C655.017 264.096 678.096 241.017 678.096 212.548C678.096 184.078 655.017 161 626.548 161C598.079 161 575 184.078 575 212.548C575 241.017 598.079 264.096 626.548 264.096Z" stroke="#E2E2E2" stroke-width="2" stroke-linecap="round" stroke-linejoin="round"/>
    <path d="M590.407 233H510.593C504.743 233 500 237.742 500 243.593V275.371C500 281.221 504.743 285.964 510.593 285.964H590.407C596.257 285.964 601 281.221 601 275.371V243.593C601 237.742 596.257 233 590.407 233Z" fill="#777BB4"/>
    <path d="M590.407 233H510.593C504.743 233 500 237.742 500 243.593V275.371C500 281.221 504.743 285.964 510.593 285.964H590.407C596.257 285.964 601 281.221 601 275.371V243.593C601 237.742 596.257 233 590.407 233Z" stroke="#E2E2E2" stroke-width="2" stroke-linecap="round" stroke-linejoin="round"/>
    <path d="M515.032 271.31V247.565H525.498C530.482 247.565 533.222 250.951 533.222 255.005C533.222 259.028 530.447 262.41 525.498 262.41H519.197V271.31H515.032ZM528.951 255.005C528.951 252.727 527.278 251.233 524.928 251.233H519.197V258.744H524.928C527.278 258.744 528.949 257.248 528.949 255.005H528.951Z" fill="#0D182E"/>
    <path d="M555.893 271.31V260.915H543.54V271.31H539.374V247.565H543.539V257.248H555.893V247.565H560.058V271.31H555.893Z" fill="#0D182E"/>
    <path d="M567.777 271.31V247.565H578.242C583.226 247.565 585.967 250.951 585.967 255.005C585.967 259.028 583.191 262.41 578.242 262.41H571.941V271.31H567.777ZM581.695 255.005C581.695 252.727 580.022 251.233 577.672 251.233H571.941V258.744H577.672C580.022 258.744 581.697 257.248 581.697 255.005H581.695Z" fill="#0D182E"/>
    <path d="M535.548 439.096C564.017 439.096 587.096 416.017 587.096 387.548C587.096 359.078 564.017 336 535.548 336C507.079 336 484 359.078 484 387.548C484 416.017 507.079 439.096 535.548 439.096Z" stroke="#E2E2E2" stroke-width="2" stroke-linecap="round" stroke-linejoin="round"/>
    <path d="M522.983 386.698C527.162 388.167 531.571 388.874 536 388.786C540.429 388.873 544.838 388.166 549.016 386.696C552.278 385.424 553.435 384.01 553.435 383.196V376.975C552.295 377.739 551.071 378.37 549.788 378.858C545.367 380.441 540.696 381.213 536 381.136C531.305 381.212 526.634 380.441 522.212 378.861C520.928 378.374 519.704 377.741 518.565 376.975V383.187C518.565 384.017 519.725 385.424 522.983 386.698ZM522.983 398.432C524.46 398.995 525.982 399.429 527.533 399.728C530.323 400.268 533.159 400.534 536 400.521C538.841 400.534 541.677 400.269 544.466 399.73C546.018 399.43 547.54 398.996 549.016 398.433C552.278 397.161 553.435 395.747 553.435 394.933V389.001C552.493 389.568 551.502 390.051 550.474 390.445C545.829 392.089 540.927 392.885 536 392.795C531.073 392.883 526.17 392.084 521.526 390.436C520.499 390.042 519.508 389.559 518.565 388.992V394.93C518.565 395.745 519.725 397.154 522.983 398.432ZM536 412.5C545.625 412.5 553.435 409.448 553.435 405.685V400.721C552.578 401.238 551.679 401.684 550.749 402.054L550.474 402.164C545.83 403.814 540.927 404.615 536 404.529C531.072 404.617 526.169 403.816 521.526 402.164C521.431 402.129 521.34 402.089 521.251 402.054C520.321 401.684 519.422 401.238 518.565 400.721V405.685C518.565 409.448 526.375 412.5 536 412.5Z" fill="#B72E42"/>
    <path d="M536 377.129C545.629 377.129 553.435 374.078 553.435 370.315C553.435 366.551 545.629 363.5 536 363.5C526.371 363.5 518.565 366.551 518.565 370.315C518.565 374.078 526.371 377.129 536 377.129Z" fill="#B72E42"/>
    <path d="M494.734 336H415.266C409.596 336 405 340.596 405 346.266V377.063C405 382.733 409.596 387.329 415.266 387.329H494.734C500.404 387.329 505 382.733 505 377.063V346.266C505 340.596 500.404 336 494.734 336Z" fill="#F73E59"/>
    <path d="M494.734 336H415.266C409.596 336 405 340.596 405 346.266V377.063C405 382.733 409.596 387.329 415.266 387.329H494.734C500.404 387.329 505 382.733 505 377.063V346.266C505 340.596 500.404 336 494.734 336Z" stroke="#E2E2E2" stroke-width="2" stroke-linecap="round" stroke-linejoin="round"/>
    <path d="M417.968 370.64L420.392 367.3C421.377 368.375 422.574 369.233 423.908 369.82C425.242 370.408 426.683 370.712 428.141 370.714C431.661 370.714 433.023 368.988 433.023 367.336C433.023 362.195 418.777 365.39 418.777 356.393C418.777 352.317 422.296 349.195 427.699 349.195C429.376 349.137 431.048 349.412 432.617 350.005C434.187 350.597 435.623 351.495 436.844 352.647L434.42 355.842C433.476 354.925 432.361 354.203 431.14 353.718C429.917 353.234 428.61 352.994 427.295 353.016C424.797 353.016 423.183 354.265 423.183 356.063C423.183 360.652 437.432 357.825 437.432 366.932C437.432 371.008 434.53 374.532 427.957 374.532C426.113 374.606 424.275 374.298 422.556 373.628C420.837 372.958 419.275 371.941 417.968 370.64Z" fill="#0D182E"/>
    <path d="M443.049 361.862C443.049 354.556 448.228 349.194 455.572 349.194C462.878 349.194 468.093 354.556 468.093 361.862C468.158 365.108 466.989 368.259 464.824 370.677L466.844 372.948L463.87 375.446L461.741 373.061C459.835 374.049 457.718 374.553 455.572 374.529C448.228 374.532 443.049 369.172 443.049 361.862ZM459.023 369.979L455.975 366.526L458.986 364.029L462.034 367.479C463.152 365.822 463.73 363.859 463.687 361.86C463.687 356.794 460.492 353.012 455.572 353.012C450.614 353.012 447.455 356.794 447.455 361.86C447.455 366.892 450.614 370.716 455.572 370.716C456.762 370.727 457.941 370.476 459.023 369.98V369.979Z" fill="#0D182E"/>
    <path d="M474.673 374.093V349.601H478.97V370.312H489.764V374.094L474.673 374.093Z" fill="#0D182E"/>
    <path opacity="0.3" d="M505.918 161.197L487.138 150.354C484.039 148.565 482.968 144.566 484.757 141.468L533.91 56.3318C535.699 53.2331 539.698 52.1615 542.797 53.9505L561.577 64.7932C564.676 66.5822 565.747 70.5813 563.958 73.68L514.805 158.816C512.998 161.946 509.048 163.004 505.918 161.197Z" fill="#0D182E" stroke="#0D182E" stroke-miterlimit="10" stroke-linecap="round" stroke-linejoin="round"/>
    <path d="M504.137 158.499L485.357 147.657C482.258 145.868 481.187 141.869 482.976 138.77L532.129 53.634C533.918 50.5353 537.917 49.4638 541.016 51.2528L559.796 62.0954C562.894 63.8845 563.966 67.8835 562.177 70.9822L513.024 156.118C511.217 159.248 507.267 160.306 504.137 158.499Z" fill="white"/>
    <path d="M504.137 158.499L485.357 147.657C482.258 145.868 481.187 141.869 482.976 138.77L532.129 53.634C533.918 50.5353 537.917 49.4638 541.016 51.2528L559.796 62.0954C562.894 63.8845 563.966 67.8835 562.177 70.9822L513.024 156.118C511.217 159.248 507.267 160.306 504.137 158.499Z" stroke="#0D182E" stroke-miterlimit="10" stroke-linecap="round" stroke-linejoin="round"/>
    <path d="M529.649 127.322L499.601 109.974L532.129 53.634C533.918 50.5353 537.917 49.4638 541.016 51.2528L559.796 62.0954C562.894 63.8845 563.966 67.8835 562.177 70.9822L529.649 127.322Z" stroke="#0D182E" stroke-miterlimit="10" stroke-linecap="round" stroke-linejoin="round"/>
    <path d="M553.503 86.0062L523.455 68.658L532.129 53.634C533.918 50.5353 537.917 49.4638 541.016 51.2528L559.796 62.0954C562.894 63.8845 563.966 67.8835 562.177 70.9822L553.503 86.0062Z" fill="#2C5AA0"/>
    <path d="M553.503 86.0062L523.455 68.658L532.129 53.634C533.918 50.5353 537.917 49.4638 541.016 51.2528L559.796 62.0954C562.894 63.8845 563.966 67.8835 562.177 70.9822L553.503 86.0062Z" stroke="#0D182E" stroke-miterlimit="10" stroke-linecap="round" stroke-linejoin="round"/>
    <path d="M553.503 86.0062L523.455 68.658L511.528 89.316L541.576 106.664L553.503 86.0062Z" fill="#0D182E"/>
    <path d="M553.503 86.0062L523.455 68.658L511.528 89.3159L541.576 106.664L553.503 86.0062Z" fill="#4186EC" stroke="#0D182E" stroke-miterlimit="10" stroke-linecap="round" stroke-linejoin="round"/>
    <path d="M541.576 106.664L511.528 89.316L499.601 109.974L529.649 127.322L541.576 106.664Z" fill="#0CB9FB"/>
    <path d="M541.576 106.664L511.528 89.316L499.601 109.974L529.649 127.322L541.576 106.664Z" stroke="#0D182E" stroke-miterlimit="10" stroke-linecap="round" stroke-linejoin="round"/>
    <path d="M505.726 153.358C507.108 154.157 508.877 153.683 509.675 152.3C510.474 150.917 510 149.149 508.617 148.35C507.234 147.552 505.466 148.026 504.667 149.409C503.869 150.791 504.343 152.56 505.726 153.358Z" stroke="#0D182E" stroke-miterlimit="10" stroke-linecap="round" stroke-linejoin="round"/>
    <path opacity="0.3" d="M503.979 159.714L488.645 144.38C486.115 141.85 486.115 137.71 488.645 135.18L558.158 65.6669C560.688 63.1368 564.828 63.1368 567.358 65.6669L582.692 81.0007C585.222 83.5308 585.222 87.6709 582.692 90.201L513.179 159.714C510.623 162.27 506.534 162.27 503.979 159.714Z" fill="#0D182E" stroke="#0D182E" stroke-miterlimit="10" stroke-linecap="round" stroke-linejoin="round"/>
    <path d="M502.956 156.647L487.622 141.314C485.092 138.784 485.092 134.643 487.622 132.113L557.136 62.6001C559.666 60.0701 563.806 60.0701 566.336 62.6001L581.67 77.9339C584.2 80.464 584.2 84.6041 581.67 87.1342L512.156 156.647C509.601 159.203 505.512 159.203 502.956 156.647Z" fill="white"/>
    <path d="M502.956 156.647L487.622 141.314C485.092 138.784 485.092 134.643 487.622 132.113L557.136 62.6001C559.666 60.0701 563.806 60.0701 566.336 62.6001L581.67 77.9339C584.2 80.464 584.2 84.6041 581.67 87.1342L512.156 156.647C509.601 159.203 505.512 159.203 502.956 156.647Z" stroke="#0D182E" stroke-miterlimit="10" stroke-linecap="round" stroke-linejoin="round"/>
    <path d="M535.668 133.136L511.134 108.602L557.136 62.6001C559.666 60.0701 563.806 60.0701 566.336 62.6001L581.67 77.9339C584.2 80.464 584.2 84.6041 581.67 87.1342L535.668 133.136Z" stroke="#0D182E" stroke-miterlimit="10" stroke-linecap="round" stroke-linejoin="round"/>
    <path d="M569.403 99.4013L544.869 74.8672L557.136 62.6001C559.666 60.0701 563.806 60.0701 566.336 62.6001L581.67 77.9339C584.2 80.464 584.2 84.6041 581.67 87.1342L569.403 99.4013Z" fill="#672424"/>
    <path d="M569.403 99.4013L544.869 74.8672L557.136 62.6001C559.666 60.0701 563.806 60.0701 566.336 62.6001L581.67 77.9339C584.2 80.464 584.2 84.6041 581.67 87.1342L569.403 99.4013Z" stroke="#0D182E" stroke-miterlimit="10" stroke-linecap="round" stroke-linejoin="round"/>
    <path d="M569.403 99.4013L544.869 74.8672L528.001 91.7344L552.535 116.268L569.403 99.4013Z" fill="#0D182E"/>
    <path d="M569.403 99.4013L544.869 74.8672L528.001 91.7344L552.535 116.268L569.403 99.4013Z" fill="#9E3636" stroke="#0D182E" stroke-miterlimit="10" stroke-linecap="round" stroke-linejoin="round"/>
    <path d="M552.536 116.268L528.001 91.7344L511.134 108.602L535.668 133.136L552.536 116.268Z" fill="#E25050"/>
    <path d="M552.536 116.268L528.001 91.7344L511.134 108.602L535.668 133.136L552.536 116.268Z" stroke="#0D182E" stroke-miterlimit="10" stroke-linecap="round" stroke-linejoin="round"/>
    <path d="M505.821 152.093C506.95 153.222 508.781 153.222 509.91 152.093C511.039 150.964 511.039 149.133 509.91 148.004C508.781 146.875 506.95 146.875 505.821 148.004C504.692 149.133 504.692 150.964 505.821 152.093Z" stroke="#0D182E" stroke-miterlimit="10" stroke-linecap="round" stroke-linejoin="round"/>
    <path opacity="0.3" d="M502.541 158.3L491.698 139.52C489.909 136.421 490.981 132.422 494.08 130.633L579.216 81.4797C582.314 79.6907 586.313 80.7622 588.102 83.8609L598.945 102.641C600.734 105.74 599.663 109.739 596.564 111.528L511.428 160.681C508.298 162.488 504.348 161.43 502.541 158.3Z" fill="#0D182E" stroke="#0D182E" stroke-miterlimit="10" stroke-linecap="round" stroke-linejoin="round"/>
    <path d="M502.347 155.073L491.505 136.293C489.716 133.194 490.787 129.195 493.886 127.406L579.022 78.2528C582.121 76.4638 586.12 77.5353 587.909 80.634L598.751 99.414C600.54 102.513 599.469 106.512 596.37 108.301L511.234 157.454C508.104 159.261 504.154 158.203 502.347 155.073Z" fill="white"/>
    <path d="M502.347 155.073L491.505 136.293C489.716 133.194 490.787 129.195 493.886 127.406L579.022 78.2528C582.121 76.4638 586.12 77.5353 587.909 80.634L598.751 99.414C600.54 102.513 599.469 106.512 596.37 108.301L511.234 157.454C508.104 159.261 504.154 158.203 502.347 155.073Z" stroke="#0D182E" stroke-miterlimit="10" stroke-linecap="round" stroke-linejoin="round"/>
    <path d="M540.03 140.829L522.682 110.781L579.022 78.2528C582.121 76.4638 586.12 77.5353 587.909 80.634L598.751 99.414C600.54 102.513 599.469 106.512 596.37 108.301L540.03 140.829Z" stroke="#0D182E" stroke-miterlimit="10" stroke-linecap="round" stroke-linejoin="round"/>
    <path d="M581.346 116.975L563.998 86.9269L579.022 78.2528C582.121 76.4638 586.12 77.5353 587.909 80.634L598.751 99.414C600.54 102.513 599.469 106.512 596.37 108.301L581.346 116.975Z" fill="#383A56"/>
    <path d="M581.346 116.975L563.998 86.9269L579.022 78.2528C582.121 76.4638 586.12 77.5353 587.909 80.634L598.751 99.414C600.54 102.513 599.469 106.512 596.37 108.301L581.346 116.975Z" stroke="#0D182E" stroke-miterlimit="10" stroke-linecap="round" stroke-linejoin="round"/>
    <path d="M581.346 116.975L563.998 86.9269L543.34 98.8538L560.688 128.902L581.346 116.975Z" fill="#0D182E"/>
    <path d="M581.346 116.975L563.998 86.9269L543.34 98.8538L560.688 128.902L581.346 116.975Z" fill="#555881" stroke="#0D182E" stroke-miterlimit="10" stroke-linecap="round" stroke-linejoin="round"/>
    <path d="M560.688 128.902L543.34 98.8539L522.682 110.781L540.03 140.829L560.688 128.902Z" fill="#777BB4"/>
    <path d="M560.688 128.902L543.34 98.8539L522.682 110.781L540.03 140.829L560.688 128.902Z" stroke="#0D182E" stroke-miterlimit="10" stroke-linecap="round" stroke-linejoin="round"/>
    <path d="M506.294 151.415C507.092 152.798 508.861 153.272 510.243 152.473C511.626 151.675 512.1 149.906 511.302 148.524C510.503 147.141 508.735 146.667 507.352 147.465C505.969 148.264 505.495 150.032 506.294 151.415Z" stroke="#0D182E" stroke-miterlimit="10" stroke-linecap="round" stroke-linejoin="round"/>
    <path d="M493.837 121H415.163C409.55 121 405 125.55 405 131.163V161.652C405 167.265 409.55 171.815 415.163 171.815H493.837C499.45 171.815 504 167.265 504 161.652V131.163C504 125.55 499.45 121 493.837 121Z" fill="#0CB9FB"/>
    <path d="M493.837 121H415.163C409.55 121 405 125.55 405 131.163V161.652C405 167.265 409.55 171.815 415.163 171.815H493.837C499.45 171.815 504 167.265 504 161.652V131.163C504 125.55 499.45 121 493.837 121Z" stroke="#E2E2E2" stroke-width="2" stroke-linecap="round" stroke-linejoin="round"/>
    <path d="M420.266 146.1C420.266 138.837 425.661 133.935 432.607 133.935C434.503 133.882 436.379 134.343 438.036 135.267C439.693 136.192 441.069 137.547 442.021 139.189L438.53 141.022C437.921 139.989 437.057 139.131 436.018 138.532C434.981 137.933 433.805 137.612 432.607 137.602C427.953 137.602 424.497 141.128 424.497 146.1C424.497 151.001 427.953 154.597 432.607 154.597C433.804 154.577 434.976 154.254 436.012 153.655C437.049 153.057 437.915 152.204 438.53 151.176L442.056 152.94C441.095 154.585 439.714 155.947 438.052 156.882C436.392 157.818 434.513 158.295 432.607 158.264C425.66 158.264 420.266 153.328 420.266 146.1Z" fill="#0D182E"/>
    <path d="M446.46 154.526L448.788 151.318C449.733 152.35 450.882 153.175 452.163 153.739C453.443 154.303 454.828 154.595 456.228 154.597C459.612 154.597 460.917 152.94 460.917 151.353C460.917 146.416 447.236 149.485 447.236 140.847C447.236 136.932 450.621 133.935 455.805 133.935C457.415 133.879 459.02 134.143 460.527 134.712C462.034 135.281 463.413 136.144 464.585 137.25L462.257 140.316C461.351 139.435 460.281 138.743 459.107 138.276C457.933 137.811 456.678 137.581 455.416 137.602C453.019 137.602 451.467 138.801 451.467 140.524C451.467 144.932 465.148 142.217 465.148 150.962C465.148 154.875 462.362 158.26 456.051 158.26C454.282 158.332 452.516 158.037 450.866 157.394C449.215 156.751 447.715 155.775 446.46 154.526Z" fill="#0D182E"/>
    <path d="M470.046 154.526L472.374 151.318C473.319 152.35 474.469 153.175 475.749 153.739C477.029 154.303 478.414 154.595 479.813 154.597C483.198 154.597 484.503 152.94 484.503 151.353C484.503 146.416 470.821 149.485 470.821 140.847C470.821 136.932 474.207 133.935 479.391 133.935C481 133.879 482.606 134.143 484.113 134.712C485.62 135.281 486.999 136.144 488.17 137.25L485.843 140.316C484.937 139.435 483.867 138.743 482.693 138.276C481.519 137.811 480.264 137.581 479.002 137.602C476.604 137.602 475.053 138.801 475.053 140.524C475.053 144.932 488.734 142.217 488.734 150.962C488.734 154.875 485.948 158.26 479.637 158.26C477.868 158.332 476.102 158.037 474.451 157.394C472.801 156.751 471.301 155.775 470.046 154.526Z" fill="#0D182E"/>
    <rect x="207" y="95" width="3" height="121" rx="1.5" fill="#0CB9FB"/>
    <rect x="278.387" y="243.732" width="3" height="121" rx="1.5" transform="rotate(60 278.387 243.732)" fill="#0CB9FB"/>
    <line x1="220.563" y1="154.174" x2="330.563" y2="229.174" stroke="white" stroke-width="2" stroke-dasharray="5 5"/>
    <line x1="318.944" y1="133.669" x2="345.944" y2="210.669" stroke="#0CB9FB" stroke-width="2" stroke-dasharray="5 5"/>
    <path d="M454.174 185.242L402 211" stroke="#0CB9FB" stroke-width="2" stroke-dasharray="5 5"/>
    <line x1="488.824" y1="259.985" x2="404.824" y2="244.985" stroke="#0CB9FB" stroke-width="2" stroke-dasharray="5 5"/>
    <line x1="453.286" y1="326.7" x2="404.286" y2="276.7" stroke="#0CB9FB" stroke-width="2" stroke-dasharray="5 5"/>
    <line x1="235.772" y1="284.026" x2="329.772" y2="262.026" stroke="white" stroke-width="2" stroke-dasharray="5 5"/>
    <defs>
        <clipPath id="clip0_448_1547">
            <rect width="52" height="52" fill="white" transform="translate(601 187)"/>
        </clipPath>
    </defs>
</svg>
