<svg width="802" height="521" viewBox="0 0 802 521" fill="none" xmlns="http://www.w3.org/2000/svg">
<g opacity="0.2">
<path d="M190.578 369.812C280.213 369.812 352.877 297.148 352.877 207.513C352.877 117.878 280.213 45.215 190.578 45.215C100.943 45.215 28.2798 117.878 28.2798 207.513C28.2798 297.148 100.943 369.812 190.578 369.812Z" fill="#0CB9FB"/>
<path d="M384.071 414.542C400.049 414.542 413.002 401.589 413.002 385.611C413.002 369.632 400.049 356.679 384.071 356.679C368.092 356.679 355.139 369.632 355.139 385.611C355.139 401.589 368.092 414.542 384.071 414.542Z" fill="#0CB9FB"/>
<path fill-rule="evenodd" clip-rule="evenodd" d="M163.774 0.738281L198.361 35.3254L163.774 69.9125L129.187 35.3254L163.774 0.738281Z" fill="#F73E59"/>
<path fill-rule="evenodd" clip-rule="evenodd" d="M16.9356 323.128L33.8711 340.064L16.9356 356.999L0 340.064L16.9356 323.128Z" fill="#F73E59"/>
<path fill-rule="evenodd" clip-rule="evenodd" d="M312.656 45.215L321.124 53.6827L312.656 62.1505L304.188 53.6827L312.656 45.215Z" fill="#F73E59"/>
</g>
<path fill-rule="evenodd" clip-rule="evenodd" d="M142.359 221.455C149.18 225.566 155.882 227.553 159.028 226.742C166.917 224.708 167.642 195.85 161.538 184.472C155.434 173.095 124.056 168.137 122.474 190.678C121.925 198.502 125.21 205.484 130.064 211.181L121.361 251.744H146.641L142.359 221.455Z" fill="#FFD1B5"/>
<path fill-rule="evenodd" clip-rule="evenodd" d="M151.553 172.081C134.001 165.522 120.236 178.195 118.411 180.282C116.476 182.493 115.188 185.257 114.236 188.067C113.201 191.12 112.561 194.292 112.325 197.524C112.1 200.595 112.079 203.843 112.799 206.848C113.473 209.658 114.913 211.964 117.317 213.427C118.419 214.097 119.603 214.6 120.795 215.06C121.97 215.513 123.148 215.954 124.378 216.208C126.707 216.69 129.39 216.607 131.183 214.754C131.83 214.085 132.541 213.246 133.012 212.43C133.182 212.136 133.284 211.944 133.078 211.657C132.831 211.314 132.432 211.05 132.115 210.782C130.307 209.249 129.188 207.203 128.906 204.771C128.619 202.304 129.282 199.119 131.681 198.042C134.642 196.713 137.903 198.239 140.535 199.661C141.653 195.714 143.95 192.159 147.55 190.348C151.534 188.345 156.105 188.111 160.198 186.392C161.265 185.944 162.351 185.436 163.137 184.523C163.465 184.142 163.85 183.647 163.981 183.142C164.153 182.48 163.726 181.924 163.396 181.408C161.645 178.668 158.238 174.58 151.553 172.081Z" fill="#4A312C"/>
<path d="M122.415 184.331C131.14 184.331 138.214 177.258 138.214 168.532C138.214 159.806 131.14 152.732 122.415 152.732C113.689 152.732 106.615 159.806 106.615 168.532C106.615 177.258 113.689 184.331 122.415 184.331Z" fill="#4A312C"/>
<path fill-rule="evenodd" clip-rule="evenodd" d="M119.184 211.854C119.184 211.854 110.651 232.04 103.458 238.699C106.615 245.388 123.368 244.583 123.368 244.583L129.685 215.026L119.184 211.854Z" fill="#4A312C"/>
<path fill-rule="evenodd" clip-rule="evenodd" d="M50.7889 383.409C41.4811 383.409 33.9358 390.954 33.9358 400.262V497.167C33.9358 506.475 41.4811 514.02 50.7889 514.02H171.92C181.229 514.02 188.774 506.475 188.774 497.167V400.262C188.774 390.954 181.229 383.409 171.92 383.409H50.7889ZM67.642 412.902C65.3151 412.902 63.4287 414.788 63.4287 417.115V480.314C63.4287 482.641 65.3151 484.527 67.642 484.527H155.067C157.394 484.527 159.281 482.641 159.281 480.314V417.115C159.281 414.788 157.394 412.902 155.067 412.902H67.642Z" fill="#0CB9FB"/>
<path fill-rule="evenodd" clip-rule="evenodd" d="M293.22 508.754C272.452 483.394 258.401 464.593 251.065 452.353C238.504 431.392 228.224 412.742 224.979 405.617C217.243 388.628 242.79 380.673 248.572 388.597C257.323 400.591 276.012 438.332 304.639 501.82L293.22 508.754Z" fill="#FFD1B5"/>
<path fill-rule="evenodd" clip-rule="evenodd" d="M250.665 501.38L212.015 404.093C203.749 386.358 243.668 374.7 249.743 382.953C263.535 401.691 296.316 475.61 300.425 481.192L250.665 501.38Z" fill="#1F3969"/>
<path fill-rule="evenodd" clip-rule="evenodd" d="M147.729 481.87C155.258 470.888 182.642 433.941 197.557 418.654C201.843 414.261 206.026 410.045 209.981 406.115C221.738 394.437 245.151 414.066 233.415 424.704C204.189 451.195 161.546 486.957 157.984 490.146C152.99 494.615 142.997 488.771 147.729 481.87Z" fill="#FFD1B5"/>
<path fill-rule="evenodd" clip-rule="evenodd" d="M152.607 477.349C151.877 476.355 150.464 476.119 149.521 476.913C147.798 478.361 145.322 480.592 144.428 482.14C143.004 484.607 141.093 489.816 141.093 489.816C143.955 491.469 192.542 519.521 192.542 519.521C192.542 519.521 198.376 514.049 194.36 511.026C190.344 508.001 187.733 505.925 187.733 505.925L169.974 481.459C169.625 480.979 168.949 480.881 168.479 481.243L164.79 484.084C164.79 484.084 159.711 483.641 157.211 482.197C155.688 481.318 153.829 479.015 152.607 477.349Z" fill="#E2E2E2"/>
<path fill-rule="evenodd" clip-rule="evenodd" d="M287.206 503.786C286.077 503.29 284.735 503.792 284.315 504.952C283.548 507.066 282.519 510.238 282.519 512.025C282.519 514.874 283.468 520.34 283.468 520.34C286.773 520.34 342.877 520.34 342.877 520.34C342.877 520.34 345.193 512.684 340.204 512.074C335.214 511.464 331.914 510.972 331.914 510.972L304.301 498.662C303.759 498.419 303.125 498.673 302.898 499.222L301.124 503.528C301.124 503.528 296.505 505.683 293.618 505.683C291.86 505.683 289.098 504.618 287.206 503.786Z" fill="#E2E2E2"/>
<path fill-rule="evenodd" clip-rule="evenodd" d="M198.108 408.952C198.108 408.952 149.924 401.102 133.558 398.216C102.461 392.733 93.3934 375.999 98.7547 339.488H156.051C167.425 342.772 251.095 380.114 251.095 380.114C261.131 385.096 259.263 399.785 257.429 404.625C257.316 404.921 206.671 491.598 206.671 491.598L159.801 461.739L198.196 412.47C198.196 412.47 199.717 409.407 198.108 408.952Z" fill="#2C5AA0"/>
<path fill-rule="evenodd" clip-rule="evenodd" d="M242.872 219.051L202.947 231.036L213.141 248.018L244.183 229.749C258.674 228.886 265.52 227.457 264.723 225.461C264.05 223.779 262.45 223.492 260.976 223.228C259.828 223.022 258.757 222.831 258.26 222.003C257.125 220.114 261.102 215.195 265.074 210.689C269.047 206.182 265.868 205.972 263.948 206.334C257.346 209.014 250.32 213.253 242.872 219.051ZM233.018 326.099L199.419 301.427L191.991 319.787L225.264 333.584C234.674 344.638 239.935 349.245 241.049 347.408C241.988 345.859 241.254 344.408 240.578 343.072C240.051 342.031 239.559 341.06 239.922 340.166C240.749 338.122 247.069 338.337 253.059 338.798C259.048 339.259 257.302 336.594 255.858 335.277C249.745 331.618 242.132 328.558 233.018 326.099Z" fill="#FFD1B5"/>
<path fill-rule="evenodd" clip-rule="evenodd" d="M147.232 234.982C165.528 269.099 191.986 295.251 230.344 322.438L215.82 338.814C172.993 322.898 150.39 313.296 139.29 281.063C136.504 272.973 134.557 247.184 132.887 233.615L147.232 234.982Z" fill="#3977D2"/>
<path fill-rule="evenodd" clip-rule="evenodd" d="M96.0818 348.649H177.187C177.187 348.649 149.629 264.603 149.032 233.281C149.012 232.216 147.046 230.34 146.177 230.586C136.635 233.281 125.756 228.571 125.756 228.571C106.528 259.495 99.8788 297.568 96.0818 348.649Z" fill="#E2E2E2"/>
<path fill-rule="evenodd" clip-rule="evenodd" d="M146.1 275.75C158.767 330.086 158.183 374.567 130.217 374.567H86.9716C80.1032 328.408 98.1547 264.408 114.89 232.127C115.529 230.895 116.889 228.571 120.094 228.571H132.66C132.665 228.587 132.671 228.604 132.677 228.621C136.457 228.652 140.622 228.79 145.132 228.94C168.348 229.71 200.719 230.785 237.145 219.091L241.44 240.551C208.562 261.696 175.271 278.076 146.1 275.75Z" fill="#4186EC"/>
<path d="M452.06 291.039L483.798 272.594L483.701 307.098L451.962 325.542L452.06 291.039Z" fill="#777BB4"/>
<path d="M452.06 291.039L483.798 272.594L483.701 307.098L451.962 325.542L452.06 291.039Z" stroke="#1E223B" stroke-width="2" stroke-linecap="round" stroke-linejoin="round"/>
<path opacity="0.88" d="M422.033 273.702L453.771 255.257L483.798 272.593L452.06 291.038L422.033 273.702Z" fill="#FF5855" stroke="#1E223B" stroke-miterlimit="10"/>
<path d="M452.06 291.039L451.962 325.542L421.935 308.206L422.033 273.702L452.06 291.039Z" fill="#0CB9FB"/>
<path d="M422.033 273.702L453.771 255.257L483.798 272.593L452.06 291.038L422.033 273.702Z" stroke="#1E223B" stroke-width="2" stroke-linecap="round" stroke-linejoin="round"/>
<path d="M452.06 291.039L451.962 325.542L421.935 308.206L422.033 273.702L452.06 291.039Z" stroke="#1E223B" stroke-width="2" stroke-linecap="round" stroke-linejoin="round"/>
<path opacity="0.39" d="M480.245 134.328C512.449 134.328 538.556 108.221 538.556 76.0169C538.556 43.8118 512.449 17.7062 480.245 17.7062C448.041 17.7062 421.935 43.8118 421.935 76.0169C421.935 108.221 448.041 134.328 480.245 134.328Z" fill="#0D182E"/>
<path d="M479.444 76.6504L510.944 58.3455L510.847 92.59L479.347 110.896L479.444 76.6504Z" stroke="#E2E2E2" stroke-width="2" stroke-linecap="round" stroke-linejoin="round"/>
<path d="M449.642 59.4447L481.142 41.1387L510.945 58.3452L479.444 76.6502L449.642 59.4447Z" stroke="#E2E2E2" stroke-width="2" stroke-linecap="round" stroke-linejoin="round"/>
<path d="M449.642 59.4447L481.142 41.1387L510.945 58.3452L479.444 76.6502L449.642 59.4447Z" fill="#E25050" stroke="#E2E2E2" stroke-width="2" stroke-linecap="round" stroke-linejoin="round"/>
<path opacity="0.4" d="M479.444 76.6503L479.347 110.896L449.545 93.6894L449.642 59.4448L479.444 76.6503Z" fill="#E25050" stroke="#E2E2E2" stroke-width="2" stroke-linecap="round" stroke-linejoin="round"/>
<path d="M479.444 76.6503L479.347 110.896L449.545 93.6894L449.642 59.4448L479.444 76.6503Z" stroke="#E2E2E2" stroke-width="2" stroke-linecap="round" stroke-linejoin="round"/>
<path d="M480.245 134.328C512.449 134.328 538.556 108.221 538.556 76.0169C538.556 43.8118 512.449 17.7062 480.245 17.7062C448.041 17.7062 421.935 43.8118 421.935 76.0169C421.935 108.221 448.041 134.328 480.245 134.328Z" stroke="#E2E2E2" stroke-width="2" stroke-linecap="round" stroke-linejoin="round"/>
<path d="M437.166 98.0209H316.496C309.755 98.0209 304.291 103.486 304.291 110.226V144.865C304.291 151.605 309.755 157.07 316.496 157.07H437.166C443.907 157.07 449.372 151.605 449.372 144.865V110.226C449.372 103.486 443.907 98.0209 437.166 98.0209Z" fill="#E25050" stroke="#E2E2E2" stroke-width="2" stroke-miterlimit="10"/>
<path d="M437.166 98.0209H316.496C309.755 98.0209 304.291 103.486 304.291 110.226V144.865C304.291 151.605 309.755 157.07 316.496 157.07H437.166C443.907 157.07 449.372 151.605 449.372 144.865V110.226C449.372 103.486 443.907 98.0209 437.166 98.0209Z" stroke="#E2E2E2" stroke-width="2" stroke-linecap="round" stroke-linejoin="round"/>
<path d="M340.016 140.928V129.211H326.095V140.928H321.401V114.165H326.095V125.078H340.016V114.165H344.71V140.928H340.016Z" fill="#0D182E"/>
<path d="M359.799 140.928V118.304H351.694V114.172H372.594V118.304H364.489V140.928H359.799Z" fill="#0D182E"/>
<path d="M402.691 140.928V120.264L394.505 140.928H392.503L384.279 120.266V140.928H379.585V114.165H386.205L393.508 132.542L400.769 114.165H407.389V140.928H402.691Z" fill="#0D182E"/>
<path d="M415.772 140.928V114.165H420.465V136.789H432.261V140.928H415.772Z" fill="#0D182E"/>
<g clip-path="url(#clip0_448_1547)">
<path fill-rule="evenodd" clip-rule="evenodd" d="M743.193 263.401V286.93C735.864 286.925 728.8 284.185 723.386 279.244C717.972 274.304 714.598 267.52 713.924 260.222C713.251 252.923 715.327 245.636 719.745 239.789C724.163 233.941 730.606 229.954 737.811 228.608L743.193 233.99H757.899C761.794 233.99 765.53 235.535 768.287 238.287C771.044 241.038 772.596 244.771 772.604 248.666V275.195C772.596 278.31 771.353 281.295 769.148 283.495C766.943 285.694 763.955 286.93 760.84 286.93V281.048C762.4 281.048 763.896 280.428 764.999 279.325C766.102 278.222 766.722 276.726 766.722 275.166C766.722 273.605 766.102 272.109 764.999 271.006C763.896 269.903 762.4 269.283 760.84 269.283H749.075L743.193 263.401ZM759.369 254.578C760.539 254.578 761.661 254.113 762.489 253.286C763.316 252.458 763.781 251.336 763.781 250.166C763.781 248.996 763.316 247.874 762.489 247.047C761.661 246.219 760.539 245.755 759.369 245.755C758.199 245.755 757.077 246.219 756.25 247.047C755.422 247.874 754.957 248.996 754.957 250.166C754.957 251.336 755.422 252.458 756.25 253.286C757.077 254.113 758.199 254.578 759.369 254.578V254.578Z" fill="#B3B8FF"/>
</g>
<path d="M742.682 315.318C774.886 315.318 800.992 289.211 800.992 257.008C800.992 224.803 774.886 198.697 742.682 198.697C710.478 198.697 684.371 224.803 684.371 257.008C684.371 289.211 710.478 315.318 742.682 315.318Z" stroke="#E2E2E2" stroke-width="2" stroke-linecap="round" stroke-linejoin="round"/>
<path d="M701.799 280.143H611.515C604.897 280.143 599.532 285.507 599.532 292.126V328.072C599.532 334.69 604.897 340.055 611.515 340.055H701.799C708.417 340.055 713.782 334.69 713.782 328.072V292.126C713.782 285.507 708.417 280.143 701.799 280.143Z" fill="#777BB4"/>
<path d="M701.799 280.143H611.515C604.897 280.143 599.532 285.507 599.532 292.126V328.072C599.532 334.69 604.897 340.055 611.515 340.055H701.799C708.417 340.055 713.782 334.69 713.782 328.072V292.126C713.782 285.507 708.417 280.143 701.799 280.143Z" stroke="#E2E2E2" stroke-width="2" stroke-linecap="round" stroke-linejoin="round"/>
<path d="M616.536 323.479V296.619H628.375C634.012 296.619 637.113 300.449 637.113 305.035C637.113 309.585 633.973 313.411 628.375 313.411H621.248V323.479H616.536ZM632.281 305.035C632.281 302.457 630.388 300.767 627.73 300.767H621.248V309.264H627.73C630.388 309.264 632.279 307.572 632.279 305.035H632.281Z" fill="#0D182E"/>
<path d="M662.758 323.479V311.72H648.784V323.479H644.071V296.619H648.782V307.572H662.758V296.619H667.468V323.479H662.758Z" fill="#0D182E"/>
<path d="M676.2 323.479V296.619H688.039C693.676 296.619 696.777 300.449 696.777 305.035C696.777 309.585 693.637 313.411 688.039 313.411H680.911V323.479H676.2ZM691.944 305.035C691.944 302.457 690.051 300.767 687.394 300.767H680.911V309.264H687.394C690.051 309.264 691.946 307.572 691.946 305.035H691.944Z" fill="#0D182E"/>
<path d="M639.743 513.277C671.947 513.277 698.054 487.17 698.054 454.966C698.054 422.761 671.947 396.655 639.743 396.655C607.539 396.655 581.433 422.761 581.433 454.966C581.433 487.17 607.539 513.277 639.743 513.277Z" stroke="#E2E2E2" stroke-width="2" stroke-linecap="round" stroke-linejoin="round"/>
<path d="M625.53 454.005C630.258 455.666 635.245 456.466 640.255 456.366C645.265 456.465 650.252 455.665 654.979 454.003C658.669 452.563 659.977 450.964 659.977 450.043V443.006C658.687 443.87 657.303 444.585 655.852 445.136C650.85 446.927 645.566 447.8 640.255 447.713C634.943 447.798 629.66 446.927 624.657 445.14C623.205 444.588 621.821 443.872 620.532 443.006V450.034C620.532 450.972 621.844 452.563 625.53 454.005ZM625.53 467.278C627.2 467.915 628.923 468.405 630.677 468.745C633.833 469.355 637.041 469.655 640.255 469.641C643.469 469.656 646.676 469.356 649.832 468.747C651.587 468.407 653.309 467.917 654.979 467.28C658.669 465.841 659.977 464.241 659.977 463.32V456.61C658.911 457.251 657.79 457.798 656.628 458.243C651.373 460.103 645.828 461.004 640.255 460.901C634.681 461.001 629.135 460.097 623.881 458.233C622.72 457.787 621.599 457.24 620.532 456.6V463.317C620.532 464.239 621.844 465.833 625.53 467.278V467.278ZM640.255 483.192C651.142 483.192 659.977 479.739 659.977 475.483V469.867C659.007 470.452 657.991 470.956 656.939 471.375L656.628 471.5C651.375 473.366 645.829 474.272 640.255 474.175C634.68 474.275 629.134 473.369 623.881 471.5C623.775 471.461 623.672 471.415 623.571 471.375C622.518 470.956 621.502 470.452 620.532 469.867V475.483C620.532 479.739 629.367 483.192 640.255 483.192Z" fill="#B72E42"/>
<path d="M640.255 443.18C651.147 443.18 659.977 439.729 659.977 435.472C659.977 431.214 651.147 427.763 640.255 427.763C629.362 427.763 620.532 431.214 620.532 435.472C620.532 439.729 629.362 443.18 640.255 443.18Z" fill="#B72E42"/>
<path d="M593.575 396.656H503.681C497.267 396.656 492.068 401.854 492.068 408.268V443.105C492.068 449.519 497.267 454.718 503.681 454.718H593.575C599.989 454.718 605.188 449.519 605.188 443.105V408.268C605.188 401.854 599.989 396.656 593.575 396.656Z" fill="#F73E59"/>
<path d="M593.575 396.656H503.681C497.267 396.656 492.068 401.854 492.068 408.268V443.105C492.068 449.519 497.267 454.718 503.681 454.718H593.575C599.989 454.718 605.188 449.519 605.188 443.105V408.268C605.188 401.854 599.989 396.656 593.575 396.656Z" stroke="#E2E2E2" stroke-width="2" stroke-linecap="round" stroke-linejoin="round"/>
<path d="M506.738 435.84L509.48 432.061C510.594 433.278 511.948 434.248 513.458 434.912C514.967 435.578 516.596 435.922 518.245 435.923C522.227 435.923 523.768 433.971 523.768 432.102C523.768 426.287 507.652 429.901 507.652 419.724C507.652 415.114 511.634 411.582 517.746 411.582C519.643 411.516 521.533 411.827 523.308 412.497C525.084 413.168 526.709 414.184 528.09 415.486L525.348 419.1C524.28 418.064 523.019 417.247 521.637 416.698C520.254 416.15 518.776 415.879 517.289 415.903C514.463 415.903 512.637 417.316 512.637 419.35C512.637 424.542 528.755 421.344 528.755 431.645C528.755 436.256 525.472 440.242 518.037 440.242C515.952 440.326 513.872 439.978 511.928 439.22C509.983 438.462 508.216 437.311 506.738 435.84Z" fill="#0D182E"/>
<path d="M535.109 425.911C535.109 417.646 540.967 411.58 549.275 411.58C557.54 411.58 563.439 417.646 563.439 425.911C563.512 429.582 562.19 433.146 559.741 435.882L562.026 438.45L558.662 441.276L556.253 438.579C554.098 439.696 551.703 440.266 549.275 440.24C540.967 440.242 535.109 434.179 535.109 425.911ZM553.178 435.092L549.731 431.186L553.137 428.361L556.584 432.264C557.849 430.39 558.503 428.17 558.454 425.908C558.454 420.177 554.84 415.899 549.275 415.899C543.667 415.899 540.094 420.177 540.094 425.908C540.094 431.6 543.667 435.926 549.275 435.926C550.621 435.938 551.954 435.655 553.178 435.093V435.092Z" fill="#0D182E"/>
<path d="M570.882 439.745V412.04H575.742V435.468H587.953V439.747L570.882 439.745Z" fill="#0D182E"/>
<path opacity="0.3" d="M606.226 198.92L584.982 186.655C581.477 184.631 580.265 180.107 582.289 176.602L637.891 80.2971C639.914 76.7919 644.438 75.5797 647.943 77.6035L669.187 89.8686C672.692 91.8923 673.904 96.416 671.881 99.9212L616.279 196.226C614.235 199.767 609.767 200.964 606.226 198.92Z" fill="#0D182E" stroke="#0D182E" stroke-miterlimit="10" stroke-linecap="round" stroke-linejoin="round"/>
<path d="M604.211 195.868L582.967 183.603C579.462 181.579 578.25 177.056 580.274 173.55L635.876 77.2453C637.899 73.7401 642.423 72.528 645.928 74.5517L667.172 86.8168C670.677 88.8406 671.889 93.3643 669.866 96.8695L614.264 193.175C612.22 196.715 607.752 197.912 604.211 195.868Z" fill="white"/>
<path d="M604.211 195.868L582.967 183.603C579.462 181.579 578.25 177.056 580.274 173.55L635.876 77.2453C637.899 73.7401 642.423 72.528 645.928 74.5517L667.172 86.8168C670.677 88.8406 671.889 93.3643 669.866 96.8695L614.264 193.175C612.22 196.715 607.752 197.912 604.211 195.868Z" stroke="#0D182E" stroke-miterlimit="10" stroke-linecap="round" stroke-linejoin="round"/>
<path d="M633.07 160.601L599.08 140.977L635.876 77.2453C637.899 73.7401 642.423 72.528 645.928 74.5517L667.172 86.8168C670.677 88.8406 671.889 93.3643 669.866 96.8695L633.07 160.601Z" stroke="#0D182E" stroke-miterlimit="10" stroke-linecap="round" stroke-linejoin="round"/>
<path d="M660.054 113.864L626.064 94.2403L635.876 77.2453C637.899 73.7401 642.423 72.528 645.928 74.5517L667.172 86.8168C670.677 88.8406 671.889 93.3643 669.866 96.8695L660.054 113.864Z" fill="#2C5AA0"/>
<path d="M660.054 113.864L626.064 94.2403L635.876 77.2453C637.899 73.7401 642.423 72.528 645.928 74.5517L667.172 86.8168C670.677 88.8406 671.889 93.3643 669.866 96.8695L660.054 113.864Z" stroke="#0D182E" stroke-miterlimit="10" stroke-linecap="round" stroke-linejoin="round"/>
<path d="M660.054 113.865L626.064 94.2404L612.572 117.609L646.562 137.233L660.054 113.865Z" fill="#0D182E"/>
<path d="M660.054 113.865L626.064 94.2404L612.572 117.609L646.562 137.233L660.054 113.865Z" fill="#4186EC" stroke="#0D182E" stroke-miterlimit="10" stroke-linecap="round" stroke-linejoin="round"/>
<path d="M646.562 137.233L612.572 117.609L599.08 140.977L633.07 160.601L646.562 137.233Z" fill="#0CB9FB"/>
<path d="M646.562 137.233L612.572 117.609L599.08 140.977L633.07 160.601L646.562 137.233Z" stroke="#0D182E" stroke-miterlimit="10" stroke-linecap="round" stroke-linejoin="round"/>
<path d="M606.008 190.053C607.573 190.956 609.573 190.42 610.476 188.856C611.379 187.291 610.843 185.291 609.279 184.388C607.715 183.485 605.714 184.021 604.811 185.585C603.908 187.149 604.444 189.15 606.008 190.053Z" stroke="#0D182E" stroke-miterlimit="10" stroke-linecap="round" stroke-linejoin="round"/>
<path opacity="0.3" d="M604.032 197.242L586.687 179.897C583.825 177.035 583.825 172.352 586.687 169.49L665.319 90.8568C668.181 87.9948 672.865 87.9948 675.727 90.8568L693.072 108.202C695.934 111.064 695.934 115.748 693.072 118.61L614.439 197.242C611.548 200.133 606.923 200.133 604.032 197.242Z" fill="#0D182E" stroke="#0D182E" stroke-miterlimit="10" stroke-linecap="round" stroke-linejoin="round"/>
<path d="M602.876 193.773L585.53 176.428C582.668 173.566 582.668 168.883 585.53 166.021L664.163 87.3877C667.025 84.5257 671.708 84.5257 674.57 87.3877L691.916 104.733C694.778 107.595 694.778 112.278 691.916 115.14L613.283 193.773C610.392 196.664 605.767 196.664 602.876 193.773Z" fill="white"/>
<path d="M602.876 193.773L585.53 176.428C582.668 173.566 582.668 168.883 585.53 166.021L664.163 87.3877C667.025 84.5257 671.708 84.5257 674.57 87.3877L691.916 104.733C694.778 107.595 694.778 112.278 691.916 115.14L613.283 193.773C610.392 196.664 605.767 196.664 602.876 193.773Z" stroke="#0D182E" stroke-miterlimit="10" stroke-linecap="round" stroke-linejoin="round"/>
<path d="M639.879 167.177L612.127 139.424L664.163 87.3877C667.025 84.5257 671.708 84.5257 674.57 87.3877L691.916 104.733C694.778 107.595 694.778 112.278 691.916 115.14L639.879 167.177Z" stroke="#0D182E" stroke-miterlimit="10" stroke-linecap="round" stroke-linejoin="round"/>
<path d="M678.039 129.017L650.287 101.264L664.163 87.3877C667.025 84.5257 671.708 84.5257 674.57 87.3877L691.916 104.733C694.778 107.595 694.778 112.278 691.916 115.14L678.039 129.017Z" fill="#672424"/>
<path d="M678.039 129.017L650.287 101.264L664.163 87.3877C667.025 84.5257 671.708 84.5257 674.57 87.3877L691.916 104.733C694.778 107.595 694.778 112.278 691.916 115.14L678.039 129.017Z" stroke="#0D182E" stroke-miterlimit="10" stroke-linecap="round" stroke-linejoin="round"/>
<path d="M678.039 129.017L650.287 101.264L631.207 120.344L658.959 148.097L678.039 129.017Z" fill="#0D182E"/>
<path d="M678.039 129.017L650.287 101.264L631.207 120.344L658.959 148.097L678.039 129.017Z" fill="#9E3636" stroke="#0D182E" stroke-miterlimit="10" stroke-linecap="round" stroke-linejoin="round"/>
<path d="M658.959 148.097L631.207 120.344L612.127 139.424L639.879 167.177L658.959 148.097Z" fill="#E25050"/>
<path d="M658.959 148.097L631.207 120.344L612.127 139.424L639.879 167.177L658.959 148.097Z" stroke="#0D182E" stroke-miterlimit="10" stroke-linecap="round" stroke-linejoin="round"/>
<path d="M606.117 188.621C607.394 189.898 609.465 189.898 610.742 188.621C612.019 187.344 612.019 185.273 610.742 183.996C609.465 182.718 607.394 182.718 606.117 183.996C604.84 185.273 604.84 187.344 606.117 188.621Z" stroke="#0D182E" stroke-miterlimit="10" stroke-linecap="round" stroke-linejoin="round"/>
<path opacity="0.3" d="M602.406 195.642L590.141 174.399C588.117 170.893 589.329 166.37 592.835 164.346L689.14 108.744C692.645 106.72 697.169 107.933 699.192 111.438L711.457 132.682C713.481 136.187 712.269 140.711 708.764 142.734L612.459 198.336C608.918 200.38 604.45 199.183 602.406 195.642Z" fill="#0D182E" stroke="#0D182E" stroke-miterlimit="10" stroke-linecap="round" stroke-linejoin="round"/>
<path d="M602.187 191.992L589.922 170.748C587.898 167.243 589.11 162.719 592.615 160.696L688.921 105.094C692.426 103.07 696.949 104.282 698.973 107.788L711.238 129.031C713.262 132.537 712.05 137.06 708.545 139.084L612.24 194.686C608.699 196.73 604.231 195.533 602.187 191.992Z" fill="white"/>
<path d="M602.187 191.992L589.922 170.748C587.898 167.243 589.11 162.719 592.615 160.696L688.921 105.094C692.426 103.07 696.949 104.282 698.973 107.788L711.238 129.031C713.262 132.537 712.05 137.06 708.545 139.084L612.24 194.686C608.699 196.73 604.231 195.533 602.187 191.992Z" stroke="#0D182E" stroke-miterlimit="10" stroke-linecap="round" stroke-linejoin="round"/>
<path d="M644.813 175.879L625.189 141.889L688.921 105.094C692.426 103.07 696.949 104.282 698.973 107.788L711.238 129.031C713.262 132.537 712.05 137.06 708.545 139.084L644.813 175.879Z" stroke="#0D182E" stroke-miterlimit="10" stroke-linecap="round" stroke-linejoin="round"/>
<path d="M691.55 148.896L671.926 114.906L688.921 105.094C692.426 103.07 696.949 104.282 698.973 107.788L711.238 129.031C713.262 132.537 712.05 137.06 708.545 139.084L691.55 148.896Z" fill="#383A56"/>
<path d="M691.55 148.896L671.926 114.906L688.921 105.094C692.426 103.07 696.949 104.282 698.973 107.788L711.238 129.031C713.262 132.537 712.05 137.06 708.545 139.084L691.55 148.896Z" stroke="#0D182E" stroke-miterlimit="10" stroke-linecap="round" stroke-linejoin="round"/>
<path d="M691.55 148.896L671.926 114.906L648.558 128.398L668.182 162.388L691.55 148.896Z" fill="#0D182E"/>
<path d="M691.55 148.896L671.926 114.906L648.558 128.398L668.182 162.388L691.55 148.896Z" fill="#555881" stroke="#0D182E" stroke-miterlimit="10" stroke-linecap="round" stroke-linejoin="round"/>
<path d="M668.182 162.388L648.557 128.398L625.189 141.889L644.814 175.879L668.182 162.388Z" fill="#777BB4"/>
<path d="M668.182 162.388L648.557 128.398L625.189 141.889L644.814 175.879L668.182 162.388Z" stroke="#0D182E" stroke-miterlimit="10" stroke-linecap="round" stroke-linejoin="round"/>
<path d="M606.651 187.854C607.554 189.419 609.555 189.955 611.119 189.051C612.683 188.148 613.219 186.148 612.316 184.584C611.413 183.019 609.413 182.483 607.848 183.386C606.284 184.29 605.748 186.29 606.651 187.854Z" stroke="#0D182E" stroke-miterlimit="10" stroke-linecap="round" stroke-linejoin="round"/>
<path d="M592.56 153.449H503.565C497.215 153.449 492.068 158.596 492.068 164.946V199.434C492.068 205.784 497.215 210.931 503.565 210.931H592.56C598.91 210.931 604.056 205.784 604.056 199.434V164.946C604.056 158.596 598.91 153.449 592.56 153.449Z" fill="#0CB9FB"/>
<path d="M592.56 153.449H503.565C497.215 153.449 492.068 158.596 492.068 164.946V199.434C492.068 205.784 497.215 210.931 503.565 210.931H592.56C598.91 210.931 604.056 205.784 604.056 199.434V164.946C604.056 158.596 598.91 153.449 592.56 153.449Z" stroke="#E2E2E2" stroke-width="2" stroke-linecap="round" stroke-linejoin="round"/>
<path d="M509.338 181.842C509.338 173.626 515.441 168.081 523.297 168.081C525.442 168.022 527.564 168.543 529.438 169.588C531.313 170.634 532.87 172.167 533.947 174.024L529.997 176.098C529.308 174.929 528.331 173.959 527.156 173.282C525.982 172.604 524.652 172.24 523.297 172.229C518.033 172.229 514.123 176.217 514.123 181.842C514.123 187.386 518.033 191.453 523.297 191.453C524.651 191.432 525.977 191.066 527.149 190.388C528.322 189.711 529.302 188.746 529.997 187.584L533.986 189.579C532.899 191.441 531.336 192.98 529.457 194.038C527.579 195.097 525.453 195.636 523.297 195.602C515.439 195.602 509.338 190.018 509.338 181.842Z" fill="#0D182E"/>
<path d="M538.968 191.373L541.601 187.745C542.67 188.912 543.97 189.845 545.419 190.483C546.867 191.122 548.434 191.452 550.017 191.453C553.845 191.453 555.321 189.579 555.321 187.784C555.321 182.2 539.845 185.671 539.845 175.9C539.845 171.471 543.675 168.081 549.539 168.081C551.359 168.018 553.175 168.317 554.88 168.96C556.585 169.603 558.145 170.58 559.47 171.831L556.837 175.299C555.812 174.303 554.602 173.519 553.274 172.992C551.945 172.465 550.527 172.206 549.099 172.229C546.387 172.229 544.632 173.586 544.632 175.535C544.632 180.521 560.107 177.45 560.107 187.342C560.107 191.769 556.956 195.597 549.817 195.597C547.816 195.678 545.818 195.345 543.952 194.618C542.084 193.891 540.388 192.786 538.968 191.373Z" fill="#0D182E"/>
<path d="M565.648 191.373L568.281 187.745C569.35 188.912 570.651 189.845 572.099 190.483C573.547 191.122 575.114 191.452 576.697 191.453C580.525 191.453 582.001 189.579 582.001 187.784C582.001 182.2 566.525 185.671 566.525 175.9C566.525 171.471 570.355 168.081 576.219 168.081C578.04 168.018 579.855 168.317 581.56 168.96C583.265 169.603 584.825 170.58 586.15 171.831L583.517 175.299C582.492 174.303 581.282 173.519 579.954 172.992C578.626 172.465 577.207 172.206 575.779 172.229C573.067 172.229 571.312 173.586 571.312 175.535C571.312 180.521 586.787 177.45 586.787 187.342C586.787 191.769 583.637 195.597 576.497 195.597C574.496 195.678 572.498 195.345 570.631 194.618C568.764 193.891 567.068 192.786 565.648 191.373Z" fill="#0D182E"/>
<rect x="268.093" y="124.038" width="3.39358" height="136.874" rx="1.69679" fill="#0CB9FB"/>
<rect x="348.845" y="292.283" width="3.39358" height="136.874" rx="1.69679" transform="rotate(60 348.845 292.283)" fill="#0CB9FB"/>
<line x1="283.361" y1="191.084" x2="407.792" y2="275.923" stroke="white" stroke-width="2" stroke-dasharray="5 5"/>
<line x1="394.598" y1="167.824" x2="425.14" y2="254.926" stroke="#0CB9FB" stroke-width="2" stroke-dasharray="5 5"/>
<path d="M547.694 226.119L488.675 255.256" stroke="#0CB9FB" stroke-width="2" stroke-dasharray="5 5"/>
<line x1="586.913" y1="310.538" x2="491.892" y2="293.57" stroke="#0CB9FB" stroke-width="2" stroke-dasharray="5 5"/>
<line x1="546.782" y1="386.044" x2="491.354" y2="329.484" stroke="#0CB9FB" stroke-width="2" stroke-dasharray="5 5"/>
<line x1="300.669" y1="337.991" x2="407.001" y2="313.105" stroke="white" stroke-width="2" stroke-dasharray="5 5"/>
<defs>
<clipPath id="clip0_448_1547">
<rect width="58.822" height="58.822" fill="white" transform="translate(713.782 228.108)"/>
</clipPath>
</defs>
</svg>
